# CAD Exchanger 3.2.3 (www.cadexchanger.com)
# Object Count: 4
mtllib 0805_D.mtl
o User Library-0805_D_Fusion
v 0.700000 1.450000 0.950000
v 0.700000 0.000000 0.950000
v 0.700000 0.000000 0.650000
v 0.700000 1.450000 0.650000
vn 1.000000 -0.000000 0.000000
vn 1.000000 -0.000000 0.000000
vn 1.000000 -0.000000 0.000000
vn 1.000000 -0.000000 0.000000
usemtl Material_1
f 4//4 1//1 2//2
f 4//4 2//2 3//3
v 1.900000 0.000000 0.950000
v 1.900000 1.450000 0.950000
v 0.700000 1.450000 0.950000
v 0.700000 0.000000 0.950000
vn 0.000000 0.000000 1.000000
vn 0.000000 0.000000 1.000000
vn 0.000000 0.000000 1.000000
vn 0.000000 0.000000 1.000000
usemtl Material_1
f 7//7 8//8 5//5
f 6//6 7//7 5//5
v 0.300000 0.000000 0.650000
v 0.700000 0.000000 0.650000
v 0.700000 1.450000 0.650000
v 0.300000 1.450000 0.650000
vn 0.000000 0.000000 1.000000
vn 0.000000 0.000000 1.000000
vn 0.000000 0.000000 1.000000
vn 0.000000 0.000000 1.000000
usemtl Material_1
f 12//12 9//9 10//10
f 11//11 12//12 10//10
v 0.300000 1.450000 0.650000
v 0.300000 0.000000 0.650000
v 0.300000 0.000000 0.350000
v 0.300000 1.450000 0.350000
vn 1.000000 -0.000000 0.000000
vn 1.000000 -0.000000 0.000000
vn 1.000000 -0.000000 0.000000
vn 1.000000 -0.000000 0.000000
usemtl Material_1
f 16//16 13//13 14//14
f 16//16 14//14 15//15
v 1.900000 0.000000 0.350000
v 0.300000 0.000000 0.350000
v 0.300000 0.000000 0.650000
v 0.700000 0.000000 0.650000
v 0.700000 0.000000 0.950000
v 1.900000 0.000000 0.950000
vn 0.000000 1.000000 0.000000
vn 0.000000 1.000000 0.000000
vn 0.000000 1.000000 0.000000
vn 0.000000 1.000000 0.000000
vn 0.000000 1.000000 0.000000
vn 0.000000 1.000000 0.000000
usemtl Material_1
f 20//20 18//18 19//19
f 17//17 18//18 20//20
f 22//22 20//20 21//21
f 22//22 17//17 20//20
v 1.900000 1.450000 0.350000
v 1.900000 1.450000 0.950000
v 1.900000 0.000000 0.950000
v 1.900000 0.000000 0.350000
vn 1.000000 -0.000000 0.000000
vn 1.000000 -0.000000 0.000000
vn 1.000000 -0.000000 0.000000
vn 1.000000 -0.000000 0.000000
usemtl Material_1
f 23//23 24//24 25//25
f 23//23 25//25 26//26
v 0.300000 1.450000 0.650000
v 0.700000 1.450000 0.650000
v 0.700000 1.450000 0.950000
v 1.900000 1.450000 0.950000
v 1.900000 1.450000 0.350000
v 0.300000 1.450000 0.350000
vn 0.000000 1.000000 0.000000
vn 0.000000 1.000000 0.000000
vn 0.000000 1.000000 0.000000
vn 0.000000 1.000000 0.000000
vn 0.000000 1.000000 0.000000
vn 0.000000 1.000000 0.000000
usemtl Material_1
f 28//28 32//32 27//27
f 31//31 32//32 28//28
f 30//30 28//28 29//29
f 30//30 31//31 28//28
v 1.900000 1.450000 0.350000
v 0.300000 1.450000 0.350000
v 0.300000 0.000000 0.350000
v 1.900000 0.000000 0.350000
vn 0.000000 0.000000 1.000000
vn 0.000000 0.000000 1.000000
vn 0.000000 0.000000 1.000000
vn 0.000000 0.000000 1.000000
usemtl Material_1
f 33//33 34//34 35//35
f 33//33 35//35 36//36
o User Library-0805_D_Cut001
v 1.550000 0.000000 0.350000
v 1.900000 0.000000 0.350000
v 1.900000 1.450000 0.350000
v 1.550000 1.450000 0.350000
vn 0.000000 0.000000 1.000000
vn 0.000000 0.000000 1.000000
vn 0.000000 0.000000 1.000000
vn 0.000000 0.000000 1.000000
usemtl Material_9
f 39//39 37//37 38//38
f 39//39 40//40 37//37
v 1.550000 0.000000 0.000000
v 1.550000 1.450000 0.000000
v 1.550000 1.450000 0.350000
v 1.550000 0.000000 0.350000
vn 1.000000 -0.000000 0.000000
vn 1.000000 -0.000000 0.000000
vn 1.000000 -0.000000 0.000000
vn 1.000000 -0.000000 0.000000
usemtl Material_10
f 42//42 43//43 44//44
f 42//42 44//44 41//41
v 1.900000 1.450000 0.950000
v 1.900000 0.000000 0.950000
v 1.900000 0.000000 0.350000
v 1.900000 1.450000 0.350000
vn 1.000000 -0.000000 0.000000
vn 1.000000 -0.000000 0.000000
vn 1.000000 -0.000000 0.000000
vn 1.000000 -0.000000 0.000000
usemtl Material_9
f 48//48 45//45 46//46
f 48//48 46//46 47//47
v 1.900000 0.000000 0.950000
v 2.200000 0.000000 0.950000
v 2.200000 0.000000 0.000000
v 1.550000 0.000000 0.000000
v 1.550000 0.000000 0.350000
v 1.900000 0.000000 0.350000
vn 0.000000 1.000000 0.000000
vn 0.000000 1.000000 0.000000
vn 0.000000 1.000000 0.000000
vn 0.000000 1.000000 0.000000
vn 0.000000 1.000000 0.000000
vn 0.000000 1.000000 0.000000
usemtl Material_10
f 54//54 51//51 52//52
f 54//54 52//52 53//53
f 50//50 54//54 49//49
f 50//50 51//51 54//54
v 2.200000 1.450000 0.000000
v 1.550000 1.450000 0.000000
v 1.550000 0.000000 0.000000
v 2.200000 0.000000 0.000000
vn 0.000000 0.000000 1.000000
vn 0.000000 0.000000 1.000000
vn 0.000000 0.000000 1.000000
vn 0.000000 0.000000 1.000000
usemtl Material_10
f 55//55 56//56 57//57
f 55//55 57//57 58//58
v 1.900000 1.450000 0.350000
v 1.900000 1.450000 0.950000
v 2.200000 1.450000 0.950000
v 2.200000 1.450000 0.000000
v 1.550000 1.450000 0.000000
v 1.550000 1.450000 0.350000
vn 0.000000 1.000000 0.000000
vn 0.000000 1.000000 0.000000
vn 0.000000 1.000000 0.000000
vn 0.000000 1.000000 0.000000
vn 0.000000 1.000000 0.000000
vn 0.000000 1.000000 0.000000
usemtl Material_10
f 59//59 62//62 63//63
f 59//59 63//63 64//64
f 61//61 59//59 60//60
f 61//61 62//62 59//59
v 1.900000 0.000000 0.950000
v 2.200000 0.000000 0.950000
v 2.200000 1.450000 0.950000
v 1.900000 1.450000 0.950000
vn 0.000000 0.000000 1.000000
vn 0.000000 0.000000 1.000000
vn 0.000000 0.000000 1.000000
vn 0.000000 0.000000 1.000000
usemtl Material_10
f 67//67 65//65 66//66
f 67//67 68//68 65//65
v 2.200000 1.450000 0.000000
v 2.200000 1.450000 0.950000
v 2.200000 0.000000 0.950000
v 2.200000 0.000000 0.000000
vn 1.000000 -0.000000 0.000000
vn 1.000000 -0.000000 0.000000
vn 1.000000 -0.000000 0.000000
vn 1.000000 -0.000000 0.000000
usemtl Material_10
f 69//69 70//70 71//71
f 69//69 71//71 72//72
o User Library-0805_D_Box002001001
v 0.700000 0.000000 0.950000
v 0.700000 1.450000 0.950000
v 0.300000 1.450000 0.950000
v 0.300000 0.000000 0.950000
vn 0.000000 0.000000 1.000000
vn 0.000000 0.000000 1.000000
vn 0.000000 0.000000 1.000000
vn 0.000000 0.000000 1.000000
usemtl Material_17
f 74//74 75//75 76//76
f 74//74 76//76 73//73
v 0.300000 1.450000 0.950000
v 0.300000 0.000000 0.950000
v 0.300000 0.000000 0.650000
v 0.300000 1.450000 0.650000
vn 1.000000 -0.000000 0.000000
vn 1.000000 -0.000000 0.000000
vn 1.000000 -0.000000 0.000000
vn 1.000000 -0.000000 0.000000
usemtl Material_17
f 80//80 77//77 78//78
f 80//80 78//78 79//79
v 0.700000 0.000000 0.950000
v 0.700000 0.000000 0.650000
v 0.300000 0.000000 0.650000
v 0.300000 0.000000 0.950000
vn 0.000000 1.000000 0.000000
vn 0.000000 1.000000 0.000000
vn 0.000000 1.000000 0.000000
vn 0.000000 1.000000 0.000000
usemtl Material_17
f 81//81 82//82 83//83
f 81//81 83//83 84//84
v 0.700000 1.450000 0.650000
v 0.700000 1.450000 0.950000
v 0.700000 0.000000 0.950000
v 0.700000 0.000000 0.650000
vn 1.000000 -0.000000 0.000000
vn 1.000000 -0.000000 0.000000
vn 1.000000 -0.000000 0.000000
vn 1.000000 -0.000000 0.000000
usemtl Material_17
f 85//85 86//86 87//87
f 85//85 87//87 88//88
v 0.300000 1.450000 0.950000
v 0.700000 1.450000 0.950000
v 0.700000 1.450000 0.650000
v 0.300000 1.450000 0.650000
vn 0.000000 1.000000 0.000000
vn 0.000000 1.000000 0.000000
vn 0.000000 1.000000 0.000000
vn 0.000000 1.000000 0.000000
usemtl Material_17
f 90//90 91//91 92//92
f 90//90 92//92 89//89
v 0.700000 1.450000 0.650000
v 0.300000 1.450000 0.650000
v 0.300000 0.000000 0.650000
v 0.700000 0.000000 0.650000
vn 0.000000 0.000000 1.000000
vn 0.000000 0.000000 1.000000
vn 0.000000 0.000000 1.000000
vn 0.000000 0.000000 1.000000
usemtl Material_17
f 93//93 94//94 95//95
f 93//93 95//95 96//96
o User Library-0805_D_Cut
v 0.300000 1.450000 0.350000
v 0.300000 0.000000 0.350000
v 0.650000 0.000000 0.350000
v 0.650000 1.450000 0.350000
vn 0.000000 0.000000 1.000000
vn 0.000000 0.000000 1.000000
vn 0.000000 0.000000 1.000000
vn 0.000000 0.000000 1.000000
usemtl Material_9
f 97//97 98//98 99//99
f 100//100 97//97 99//99
v 0.650000 0.000000 0.350000
v 0.650000 0.000000 0.000000
v 0.650000 1.450000 0.000000
v 0.650000 1.450000 0.350000
vn 1.000000 -0.000000 0.000000
vn 1.000000 -0.000000 0.000000
vn 1.000000 -0.000000 0.000000
vn 1.000000 -0.000000 0.000000
usemtl Material_10
f 103//103 101//101 102//102
f 103//103 104//104 101//101
v 0.300000 1.450000 0.350000
v 0.300000 1.450000 0.950000
v 0.300000 0.000000 0.950000
v 0.300000 0.000000 0.350000
vn 1.000000 -0.000000 0.000000
vn 1.000000 -0.000000 0.000000
vn 1.000000 -0.000000 0.000000
vn 1.000000 -0.000000 0.000000
usemtl Material_9
f 105//105 106//106 107//107
f 105//105 107//107 108//108
v 0.300000 0.000000 0.350000
v 0.650000 0.000000 0.350000
v 0.650000 0.000000 0.000000
v 0.000000 0.000000 0.000000
v 0.000000 0.000000 0.950000
v 0.300000 0.000000 0.950000
vn 0.000000 1.000000 0.000000
vn 0.000000 1.000000 0.000000
vn 0.000000 1.000000 0.000000
vn 0.000000 1.000000 0.000000
vn 0.000000 1.000000 0.000000
vn 0.000000 1.000000 0.000000
usemtl Material_10
f 109//109 111//111 112//112
f 113//113 109//109 112//112
f 110//110 111//111 109//109
f 114//114 109//109 113//113
v 0.650000 1.450000 0.000000
v 0.000000 1.450000 0.000000
v 0.000000 0.000000 0.000000
v 0.650000 0.000000 0.000000
vn 0.000000 0.000000 1.000000
vn 0.000000 0.000000 1.000000
vn 0.000000 0.000000 1.000000
vn 0.000000 0.000000 1.000000
usemtl Material_10
f 115//115 116//116 117//117
f 115//115 117//117 118//118
v 0.300000 1.450000 0.950000
v 0.300000 1.450000 0.350000
v 0.650000 1.450000 0.350000
v 0.650000 1.450000 0.000000
v 0.000000 1.450000 0.000000
v 0.000000 1.450000 0.950000
vn 0.000000 1.000000 0.000000
vn 0.000000 1.000000 0.000000
vn 0.000000 1.000000 0.000000
vn 0.000000 1.000000 0.000000
vn 0.000000 1.000000 0.000000
vn 0.000000 1.000000 0.000000
usemtl Material_10
f 120//120 122//122 123//123
f 124//124 120//120 123//123
f 121//121 122//122 120//120
f 119//119 120//120 124//124
v 0.000000 0.000000 0.950000
v 0.300000 0.000000 0.950000
v 0.300000 1.450000 0.950000
v 0.000000 1.450000 0.950000
vn 0.000000 0.000000 1.000000
vn 0.000000 0.000000 1.000000
vn 0.000000 0.000000 1.000000
vn 0.000000 0.000000 1.000000
usemtl Material_10
f 127//127 125//125 126//126
f 127//127 128//128 125//125
v 0.000000 1.450000 0.950000
v 0.000000 0.000000 0.950000
v 0.000000 0.000000 0.000000
v 0.000000 1.450000 0.000000
vn 1.000000 -0.000000 0.000000
vn 1.000000 -0.000000 0.000000
vn 1.000000 -0.000000 0.000000
vn 1.000000 -0.000000 0.000000
usemtl Material_10
f 132//132 129//129 130//130
f 132//132 130//130 131//131
