M48
;DRILL file {KiCad 4.0.6} date 03/19/17 22:54:05
;FORMAT={-:-/ absolute / inch / decimal}
FMAT,2
INCH,TZ
T1C0.016
%
G90
G05
M72
T1
X-0.675Y-0.28
X-0.445Y-0.685
X-0.375Y0.87
X-0.375Y0.815
X-0.375Y0.76
X-0.32Y0.87
X-0.32Y0.815
X-0.32Y0.76
X-0.285Y0.375
X-0.27Y0.87
X-0.27Y0.815
X-0.27Y0.76
X-0.175Y0.285
X-0.145Y-0.31
X-0.085Y-0.21
X0.05Y-0.29
X0.27Y0.865
X0.27Y0.815
X0.27Y0.765
X0.32Y0.865
X0.32Y0.815
X0.32Y0.765
X0.37Y0.865
X0.37Y0.815
X0.37Y0.765
X0.4Y0.0425
X0.445Y-0.685
X0.47Y0.0325
T0
M30
