G04 #@! TF.FileFunction,Copper,L2,Bot,Signal*
%FSLAX46Y46*%
G04 Gerber Fmt 4.6, Leading zero omitted, Abs format (unit mm)*
G04 Created by KiCad (PCBNEW 4.0.6) date 03/19/17 23:09:47*
%MOMM*%
%LPD*%
G01*
G04 APERTURE LIST*
%ADD10C,0.100000*%
%ADD11R,1.500000X0.600000*%
%ADD12R,1.300000X4.500000*%
%ADD13R,1.800000X3.900000*%
%ADD14R,0.600000X1.550000*%
%ADD15R,1.300000X0.700000*%
%ADD16R,0.700000X1.300000*%
%ADD17R,4.000000X4.000000*%
%ADD18R,1.200000X1.200000*%
%ADD19C,0.600000*%
%ADD20C,0.250000*%
%ADD21C,0.500000*%
%ADD22C,0.254000*%
G04 APERTURE END LIST*
D10*
D11*
X-2745264Y910247D03*
X-2745264Y2180247D03*
X-2745264Y3450247D03*
X-2745264Y4720247D03*
X-2745264Y5990247D03*
X-2745264Y7260247D03*
X-2745264Y8530247D03*
X2654736Y8530247D03*
X2654736Y7260247D03*
X2654736Y5990247D03*
X2654736Y4720247D03*
X2654736Y3450247D03*
X2654736Y2180247D03*
X2654736Y910247D03*
D12*
X-3750000Y-21149000D03*
X-1250000Y-21149000D03*
X1250000Y-21149000D03*
X3750000Y-21149000D03*
D13*
X-6950000Y-14349000D03*
X6950000Y-14349000D03*
D14*
X1905000Y12540000D03*
X635000Y12540000D03*
X-635000Y12540000D03*
X-1905000Y12540000D03*
X-1905000Y17940000D03*
X-635000Y17940000D03*
X635000Y17940000D03*
X1905000Y17940000D03*
D15*
X-5842000Y10602000D03*
X-5842000Y8702000D03*
D16*
X-4003000Y12573000D03*
X-5903000Y12573000D03*
D17*
X-11303000Y-17399000D03*
X11303000Y-17399000D03*
D18*
X-6180000Y16383000D03*
X-3980000Y16383000D03*
D15*
X-8001000Y14480500D03*
X-8001000Y16380500D03*
D19*
X-2159000Y-5334000D03*
X-3683000Y-7874000D03*
X-7239000Y9525000D03*
X-4445000Y7239000D03*
X11938000Y825500D03*
X10160000Y1079500D03*
X-6858000Y19304000D03*
X-8128000Y19304000D03*
X-9525000Y19304000D03*
X-9525000Y20701000D03*
X-9525000Y22098000D03*
X-8128000Y22098000D03*
X-6858000Y22098000D03*
X-6858000Y20701000D03*
X-8128000Y20701000D03*
X-11303000Y-17399000D03*
X11303000Y-17399000D03*
X-17145000Y-7112000D03*
X1270000Y-7366000D03*
X6858000Y21971000D03*
X6858000Y20701000D03*
X6858000Y19431000D03*
X8128000Y19431000D03*
X9398000Y19431000D03*
X9398000Y21971000D03*
X8128000Y21971000D03*
X9398000Y20701000D03*
X8128000Y20701000D03*
D20*
X-4042753Y3450247D02*
X-2745264Y3450247D01*
X-2159000Y-5334000D02*
X-2032000Y-5207000D01*
X-2032000Y-5207000D02*
X-1524000Y-4699000D01*
X-1524000Y-4699000D02*
X-1524000Y-889000D01*
X-1524000Y-889000D02*
X-3937000Y-889000D01*
X-3937000Y-889000D02*
X-4699000Y-127000D01*
X-4699000Y-127000D02*
X-4699000Y2794000D01*
X-4699000Y2794000D02*
X-4042753Y3450247D01*
X-3788753Y2180247D02*
X-2745264Y2180247D01*
X-4064000Y1905000D02*
X-3788753Y2180247D01*
X-4064000Y127000D02*
X-4064000Y1905000D01*
X-3683000Y-254000D02*
X-4064000Y127000D01*
X-1016000Y-254000D02*
X-3683000Y-254000D01*
X-889000Y-381000D02*
X-1016000Y-254000D01*
X-889000Y-5080000D02*
X-889000Y-381000D01*
X-3683000Y-7874000D02*
X-889000Y-5080000D01*
X-7239000Y9525000D02*
X-1270000Y9525000D01*
X889000Y7366000D02*
X2548983Y7366000D01*
X-1270000Y9525000D02*
X889000Y7366000D01*
X2548983Y7366000D02*
X2654736Y7260247D01*
X-5101247Y5990247D02*
X-2745264Y5990247D01*
X-7239000Y8128000D02*
X-5101247Y5990247D01*
X-7239000Y9525000D02*
X-7239000Y8128000D01*
X-4445000Y7239000D02*
X-2745264Y7260247D01*
X7302991Y3432796D02*
X2654736Y3450247D01*
X11938000Y825500D02*
X7302991Y3432796D01*
X8124936Y2217019D02*
X2654736Y2180247D01*
X10160000Y1079500D02*
X8124936Y2217019D01*
X-2745264Y8530247D02*
X-4085247Y8530247D01*
X-4257000Y8702000D02*
X-5842000Y8702000D01*
X-4085247Y8530247D02*
X-4257000Y8702000D01*
X0Y910247D02*
X0Y889000D01*
X0Y889000D02*
X0Y910247D01*
X2654736Y5990247D02*
X-1397000Y5990247D01*
X-1397000Y5990247D02*
X-1397000Y5969000D01*
X-2745264Y8530247D02*
X-1672247Y8530247D01*
X-1397000Y8255000D02*
X-1397000Y5969000D01*
X-1397000Y5969000D02*
X-1397000Y910247D01*
X-1672247Y8530247D02*
X-1397000Y8255000D01*
X-2745264Y910247D02*
X-1397000Y910247D01*
X-1397000Y910247D02*
X0Y910247D01*
X0Y910247D02*
X2654736Y910247D01*
D21*
X-5903000Y12573000D02*
X-8128000Y12573000D01*
X-8128000Y12573000D02*
X-8128000Y12446000D01*
X-5903000Y12573000D02*
X-5903000Y10663000D01*
X-5903000Y10663000D02*
X-5842000Y10602000D01*
X-8128000Y12446000D02*
X-8128000Y12065000D01*
X-8128000Y7937500D02*
X-4889500Y4699000D01*
X-8128000Y12065000D02*
X-8128000Y7937500D01*
X-4889500Y4699000D02*
X-2745264Y4720247D01*
X10879986Y-17399000D02*
X11303000Y-17399000D01*
X10677358Y-17601628D02*
X10879986Y-17399000D01*
X1905000Y12540000D02*
X4859000Y12540000D01*
X6794500Y10604500D02*
X6794500Y4762500D01*
X4859000Y12540000D02*
X6794500Y10604500D01*
X-635000Y12540000D02*
X635000Y12540000D01*
X635000Y12540000D02*
X1905000Y12540000D01*
X6794500Y4762500D02*
X2654736Y4720247D01*
D20*
X-4003000Y12573000D02*
X-1938000Y12573000D01*
X-1938000Y12573000D02*
X-1905000Y12540000D01*
X2654736Y8530247D02*
X740753Y8530247D01*
X-1905000Y11176000D02*
X-1905000Y12540000D01*
X740753Y8530247D02*
X-1905000Y11176000D01*
X-3970000Y12540000D02*
X-4003000Y12573000D01*
X-1905000Y11938000D02*
X-1905000Y12540000D01*
D21*
X-1250000Y-21149000D02*
X-1270000Y-15748000D01*
X-14605000Y-11557000D02*
X-17145000Y-7112000D01*
X-5588000Y-11430000D02*
X-14605000Y-11557000D01*
X-1270000Y-15748000D02*
X-5588000Y-11430000D01*
X1250000Y-21149000D02*
X1270000Y-7366000D01*
X-3980000Y16383000D02*
X-2540000Y16383000D01*
X-1905000Y17018000D02*
X-1905000Y17940000D01*
X-2540000Y16383000D02*
X-1905000Y17018000D01*
X-1905000Y17940000D02*
X-635000Y17940000D01*
X-635000Y17940000D02*
X635000Y17940000D01*
X635000Y17940000D02*
X1905000Y17940000D01*
D20*
X-6180000Y16383000D02*
X-8001000Y16380500D01*
D22*
G36*
X20244113Y13436100D02*
X22469679Y9250418D01*
X23839857Y4712171D01*
X24302456Y-5781D01*
X24292986Y-683998D01*
X23698834Y-5387194D01*
X22202475Y-9885414D01*
X19860906Y-14007322D01*
X16763315Y-17595916D01*
X13027689Y-20514506D01*
X8796317Y-22651926D01*
X4944250Y-23727442D01*
X4962730Y-23699785D01*
X5010597Y-23584223D01*
X5035000Y-23461542D01*
X5035000Y-21434750D01*
X4876250Y-21276000D01*
X3877000Y-21276000D01*
X3877000Y-21296000D01*
X3623000Y-21296000D01*
X3623000Y-21276000D01*
X3603000Y-21276000D01*
X3603000Y-21022000D01*
X3623000Y-21022000D01*
X3623000Y-18422750D01*
X3877000Y-18422750D01*
X3877000Y-21022000D01*
X4876250Y-21022000D01*
X5035000Y-20863250D01*
X5035000Y-18836458D01*
X5010597Y-18713777D01*
X4962730Y-18598215D01*
X4893237Y-18494211D01*
X4804789Y-18405763D01*
X4700785Y-18336270D01*
X4585223Y-18288403D01*
X4462542Y-18264000D01*
X4035750Y-18264000D01*
X3877000Y-18422750D01*
X3623000Y-18422750D01*
X3464250Y-18264000D01*
X3037458Y-18264000D01*
X2914777Y-18288403D01*
X2799215Y-18336270D01*
X2695211Y-18405763D01*
X2606763Y-18494211D01*
X2537270Y-18598215D01*
X2497734Y-18693663D01*
X2476894Y-18626366D01*
X2378100Y-18476441D01*
X2241450Y-18359975D01*
X2139115Y-18313846D01*
X2140027Y-17684750D01*
X8668000Y-17684750D01*
X8668000Y-19461542D01*
X8692403Y-19584223D01*
X8740270Y-19699785D01*
X8809763Y-19803789D01*
X8898211Y-19892237D01*
X9002215Y-19961730D01*
X9117777Y-20009597D01*
X9240458Y-20034000D01*
X11017250Y-20034000D01*
X11176000Y-19875250D01*
X11176000Y-17526000D01*
X11430000Y-17526000D01*
X11430000Y-19875250D01*
X11588750Y-20034000D01*
X13365542Y-20034000D01*
X13488223Y-20009597D01*
X13603785Y-19961730D01*
X13707789Y-19892237D01*
X13796237Y-19803789D01*
X13865730Y-19699785D01*
X13913597Y-19584223D01*
X13938000Y-19461542D01*
X13938000Y-17684750D01*
X13779250Y-17526000D01*
X11430000Y-17526000D01*
X11176000Y-17526000D01*
X8826750Y-17526000D01*
X8668000Y-17684750D01*
X2140027Y-17684750D01*
X2147697Y-12399000D01*
X5411928Y-12399000D01*
X5411928Y-16299000D01*
X5419992Y-16400121D01*
X5473106Y-16571634D01*
X5571900Y-16721559D01*
X5708550Y-16838025D01*
X5872237Y-16911810D01*
X6050000Y-16937072D01*
X7850000Y-16937072D01*
X7951121Y-16929008D01*
X8122634Y-16875894D01*
X8272559Y-16777100D01*
X8389025Y-16640450D01*
X8462810Y-16476763D01*
X8488072Y-16299000D01*
X8488072Y-15336458D01*
X8668000Y-15336458D01*
X8668000Y-17113250D01*
X8826750Y-17272000D01*
X11176000Y-17272000D01*
X11176000Y-14922750D01*
X11430000Y-14922750D01*
X11430000Y-17272000D01*
X13779250Y-17272000D01*
X13938000Y-17113250D01*
X13938000Y-15336458D01*
X13913597Y-15213777D01*
X13865730Y-15098215D01*
X13796237Y-14994211D01*
X13707789Y-14905763D01*
X13603785Y-14836270D01*
X13488223Y-14788403D01*
X13365542Y-14764000D01*
X11588750Y-14764000D01*
X11430000Y-14922750D01*
X11176000Y-14922750D01*
X11017250Y-14764000D01*
X9240458Y-14764000D01*
X9117777Y-14788403D01*
X9002215Y-14836270D01*
X8898211Y-14905763D01*
X8809763Y-14994211D01*
X8740270Y-15098215D01*
X8692403Y-15213777D01*
X8668000Y-15336458D01*
X8488072Y-15336458D01*
X8488072Y-12399000D01*
X8480008Y-12297879D01*
X8426894Y-12126366D01*
X8328100Y-11976441D01*
X8191450Y-11859975D01*
X8027763Y-11786190D01*
X7850000Y-11760928D01*
X6050000Y-11760928D01*
X5948879Y-11768992D01*
X5777366Y-11822106D01*
X5627441Y-11920900D01*
X5510975Y-12057550D01*
X5437190Y-12221237D01*
X5411928Y-12399000D01*
X2147697Y-12399000D01*
X2154548Y-7678157D01*
X2161492Y-7662560D01*
X2202116Y-7483754D01*
X2205040Y-7274319D01*
X2169425Y-7094448D01*
X2099550Y-6924920D01*
X1998079Y-6772193D01*
X1868875Y-6642084D01*
X1716860Y-6539549D01*
X1547825Y-6468493D01*
X1368207Y-6431623D01*
X1184849Y-6430343D01*
X1004733Y-6464701D01*
X834722Y-6533390D01*
X681291Y-6633793D01*
X635000Y-6679125D01*
X635000Y150247D01*
X1470566Y150247D01*
X1563286Y71222D01*
X1726973Y-2563D01*
X1904736Y-27825D01*
X3404736Y-27825D01*
X3505857Y-19761D01*
X3677370Y33353D01*
X3827295Y132147D01*
X3943761Y268797D01*
X4017546Y432484D01*
X4042808Y610247D01*
X4042808Y1210247D01*
X4034744Y1311368D01*
X3998235Y1429261D01*
X7929329Y1455687D01*
X9311219Y683266D01*
X9324372Y650046D01*
X9423701Y495917D01*
X9551076Y364016D01*
X9701644Y259369D01*
X9869671Y185960D01*
X10048757Y146585D01*
X10232079Y142745D01*
X10412657Y174586D01*
X10583610Y240894D01*
X10738429Y339145D01*
X10871215Y465596D01*
X10915658Y528598D01*
X11088353Y431453D01*
X11102372Y396046D01*
X11201701Y241917D01*
X11329076Y110016D01*
X11479644Y5369D01*
X11647671Y-68040D01*
X11826757Y-107415D01*
X12010079Y-111255D01*
X12190657Y-79414D01*
X12361610Y-13106D01*
X12516429Y85145D01*
X12649215Y211596D01*
X12754911Y361430D01*
X12829492Y528940D01*
X12870116Y707746D01*
X12873040Y917181D01*
X12837425Y1097052D01*
X12767550Y1266580D01*
X12666079Y1419307D01*
X12536875Y1549416D01*
X12384860Y1651951D01*
X12215825Y1723007D01*
X12036207Y1759877D01*
X11852849Y1761157D01*
X11831920Y1757165D01*
X7675601Y4095187D01*
X7639502Y4111078D01*
X7605008Y4130210D01*
X7571786Y4140886D01*
X7539846Y4154946D01*
X7501346Y4163522D01*
X7463794Y4175590D01*
X7429125Y4179611D01*
X7395069Y4187197D01*
X7355643Y4188132D01*
X7316455Y4192677D01*
X7305844Y4192791D01*
X4002976Y4205191D01*
X4015333Y4235024D01*
X4039736Y4357705D01*
X4039736Y4434497D01*
X3880986Y4593247D01*
X2781736Y4593247D01*
X2781736Y4573247D01*
X2527736Y4573247D01*
X2527736Y4593247D01*
X1428486Y4593247D01*
X1269736Y4434497D01*
X1269736Y4357705D01*
X1294139Y4235024D01*
X1342006Y4119462D01*
X1363635Y4087092D01*
X1291926Y3928010D01*
X1266664Y3750247D01*
X1266664Y3150247D01*
X1274728Y3049126D01*
X1327842Y2877613D01*
X1365296Y2820775D01*
X1291926Y2658010D01*
X1266664Y2480247D01*
X1266664Y1880247D01*
X1274728Y1779126D01*
X1308446Y1670247D01*
X635000Y1670247D01*
X635000Y5230247D01*
X1304402Y5230247D01*
X1294139Y5205470D01*
X1269736Y5082789D01*
X1269736Y5005997D01*
X1428486Y4847247D01*
X2527736Y4847247D01*
X2527736Y4867247D01*
X2781736Y4867247D01*
X2781736Y4847247D01*
X3880986Y4847247D01*
X4039736Y5005997D01*
X4039736Y5082789D01*
X4015333Y5205470D01*
X3967466Y5321032D01*
X3945837Y5353402D01*
X4017546Y5512484D01*
X4042808Y5690247D01*
X4042808Y6290247D01*
X4034744Y6391368D01*
X3981630Y6562881D01*
X3944176Y6619719D01*
X4017546Y6782484D01*
X4042808Y6960247D01*
X4042808Y7560247D01*
X4034744Y7661368D01*
X3981630Y7832881D01*
X3944176Y7889719D01*
X4017546Y8052484D01*
X4042808Y8230247D01*
X4042808Y8830247D01*
X4034744Y8931368D01*
X3981630Y9102881D01*
X3882836Y9252806D01*
X3746186Y9369272D01*
X3582499Y9443057D01*
X3404736Y9468319D01*
X1904736Y9468319D01*
X1803615Y9460255D01*
X1632102Y9407141D01*
X1482177Y9308347D01*
X1466750Y9290247D01*
X1055555Y9290247D01*
X635000Y9710802D01*
X635000Y10668000D01*
X629972Y10703381D01*
X615286Y10735961D01*
X592105Y10763160D01*
X562264Y10782823D01*
X528127Y10793395D01*
X508000Y10795000D01*
X-449198Y10795000D01*
X-852474Y11198276D01*
X-762000Y11288750D01*
X-762000Y12413000D01*
X-508000Y12413000D01*
X-508000Y11288750D01*
X-349250Y11130000D01*
X-272458Y11130000D01*
X-149777Y11154403D01*
X-34215Y11202270D01*
X0Y11225132D01*
X34215Y11202270D01*
X149777Y11154403D01*
X272458Y11130000D01*
X349250Y11130000D01*
X508000Y11288750D01*
X508000Y12413000D01*
X762000Y12413000D01*
X762000Y11288750D01*
X920750Y11130000D01*
X997542Y11130000D01*
X1120223Y11154403D01*
X1235785Y11202270D01*
X1270000Y11225132D01*
X1304215Y11202270D01*
X1419777Y11154403D01*
X1542458Y11130000D01*
X1619250Y11130000D01*
X1778000Y11288750D01*
X1778000Y12413000D01*
X2032000Y12413000D01*
X2032000Y11288750D01*
X2190750Y11130000D01*
X2267542Y11130000D01*
X2390223Y11154403D01*
X2505785Y11202270D01*
X2609789Y11271763D01*
X2698237Y11360211D01*
X2767730Y11464215D01*
X2815597Y11579777D01*
X2840000Y11702458D01*
X2840000Y12254250D01*
X2681250Y12413000D01*
X2032000Y12413000D01*
X1778000Y12413000D01*
X762000Y12413000D01*
X508000Y12413000D01*
X-508000Y12413000D01*
X-762000Y12413000D01*
X-782000Y12413000D01*
X-782000Y12667000D01*
X-762000Y12667000D01*
X-762000Y13791250D01*
X-508000Y13791250D01*
X-508000Y12667000D01*
X508000Y12667000D01*
X508000Y13791250D01*
X762000Y13791250D01*
X762000Y12667000D01*
X1778000Y12667000D01*
X1778000Y13791250D01*
X2032000Y13791250D01*
X2032000Y12667000D01*
X2681250Y12667000D01*
X2840000Y12825750D01*
X2840000Y13377542D01*
X2815597Y13500223D01*
X2767730Y13615785D01*
X2698237Y13719789D01*
X2609789Y13808237D01*
X2505785Y13877730D01*
X2390223Y13925597D01*
X2267542Y13950000D01*
X2190750Y13950000D01*
X2032000Y13791250D01*
X1778000Y13791250D01*
X1619250Y13950000D01*
X1542458Y13950000D01*
X1419777Y13925597D01*
X1304215Y13877730D01*
X1270000Y13854868D01*
X1235785Y13877730D01*
X1120223Y13925597D01*
X997542Y13950000D01*
X920750Y13950000D01*
X762000Y13791250D01*
X508000Y13791250D01*
X349250Y13950000D01*
X272458Y13950000D01*
X149777Y13925597D01*
X34215Y13877730D01*
X0Y13854868D01*
X-34215Y13877730D01*
X-149777Y13925597D01*
X-272458Y13950000D01*
X-349250Y13950000D01*
X-508000Y13791250D01*
X-762000Y13791250D01*
X-920750Y13950000D01*
X-997542Y13950000D01*
X-1120223Y13925597D01*
X-1235785Y13877730D01*
X-1268155Y13856101D01*
X-1427237Y13927810D01*
X-1605000Y13953072D01*
X-2205000Y13953072D01*
X-2306121Y13945008D01*
X-2477634Y13891894D01*
X-2627559Y13793100D01*
X-2744025Y13656450D01*
X-2817810Y13492763D01*
X-2840514Y13333000D01*
X-2921000Y13333000D01*
X-2921000Y14605000D01*
X19290781Y14605000D01*
X20244113Y13436100D01*
X20244113Y13436100D01*
G37*
X20244113Y13436100D02*
X22469679Y9250418D01*
X23839857Y4712171D01*
X24302456Y-5781D01*
X24292986Y-683998D01*
X23698834Y-5387194D01*
X22202475Y-9885414D01*
X19860906Y-14007322D01*
X16763315Y-17595916D01*
X13027689Y-20514506D01*
X8796317Y-22651926D01*
X4944250Y-23727442D01*
X4962730Y-23699785D01*
X5010597Y-23584223D01*
X5035000Y-23461542D01*
X5035000Y-21434750D01*
X4876250Y-21276000D01*
X3877000Y-21276000D01*
X3877000Y-21296000D01*
X3623000Y-21296000D01*
X3623000Y-21276000D01*
X3603000Y-21276000D01*
X3603000Y-21022000D01*
X3623000Y-21022000D01*
X3623000Y-18422750D01*
X3877000Y-18422750D01*
X3877000Y-21022000D01*
X4876250Y-21022000D01*
X5035000Y-20863250D01*
X5035000Y-18836458D01*
X5010597Y-18713777D01*
X4962730Y-18598215D01*
X4893237Y-18494211D01*
X4804789Y-18405763D01*
X4700785Y-18336270D01*
X4585223Y-18288403D01*
X4462542Y-18264000D01*
X4035750Y-18264000D01*
X3877000Y-18422750D01*
X3623000Y-18422750D01*
X3464250Y-18264000D01*
X3037458Y-18264000D01*
X2914777Y-18288403D01*
X2799215Y-18336270D01*
X2695211Y-18405763D01*
X2606763Y-18494211D01*
X2537270Y-18598215D01*
X2497734Y-18693663D01*
X2476894Y-18626366D01*
X2378100Y-18476441D01*
X2241450Y-18359975D01*
X2139115Y-18313846D01*
X2140027Y-17684750D01*
X8668000Y-17684750D01*
X8668000Y-19461542D01*
X8692403Y-19584223D01*
X8740270Y-19699785D01*
X8809763Y-19803789D01*
X8898211Y-19892237D01*
X9002215Y-19961730D01*
X9117777Y-20009597D01*
X9240458Y-20034000D01*
X11017250Y-20034000D01*
X11176000Y-19875250D01*
X11176000Y-17526000D01*
X11430000Y-17526000D01*
X11430000Y-19875250D01*
X11588750Y-20034000D01*
X13365542Y-20034000D01*
X13488223Y-20009597D01*
X13603785Y-19961730D01*
X13707789Y-19892237D01*
X13796237Y-19803789D01*
X13865730Y-19699785D01*
X13913597Y-19584223D01*
X13938000Y-19461542D01*
X13938000Y-17684750D01*
X13779250Y-17526000D01*
X11430000Y-17526000D01*
X11176000Y-17526000D01*
X8826750Y-17526000D01*
X8668000Y-17684750D01*
X2140027Y-17684750D01*
X2147697Y-12399000D01*
X5411928Y-12399000D01*
X5411928Y-16299000D01*
X5419992Y-16400121D01*
X5473106Y-16571634D01*
X5571900Y-16721559D01*
X5708550Y-16838025D01*
X5872237Y-16911810D01*
X6050000Y-16937072D01*
X7850000Y-16937072D01*
X7951121Y-16929008D01*
X8122634Y-16875894D01*
X8272559Y-16777100D01*
X8389025Y-16640450D01*
X8462810Y-16476763D01*
X8488072Y-16299000D01*
X8488072Y-15336458D01*
X8668000Y-15336458D01*
X8668000Y-17113250D01*
X8826750Y-17272000D01*
X11176000Y-17272000D01*
X11176000Y-14922750D01*
X11430000Y-14922750D01*
X11430000Y-17272000D01*
X13779250Y-17272000D01*
X13938000Y-17113250D01*
X13938000Y-15336458D01*
X13913597Y-15213777D01*
X13865730Y-15098215D01*
X13796237Y-14994211D01*
X13707789Y-14905763D01*
X13603785Y-14836270D01*
X13488223Y-14788403D01*
X13365542Y-14764000D01*
X11588750Y-14764000D01*
X11430000Y-14922750D01*
X11176000Y-14922750D01*
X11017250Y-14764000D01*
X9240458Y-14764000D01*
X9117777Y-14788403D01*
X9002215Y-14836270D01*
X8898211Y-14905763D01*
X8809763Y-14994211D01*
X8740270Y-15098215D01*
X8692403Y-15213777D01*
X8668000Y-15336458D01*
X8488072Y-15336458D01*
X8488072Y-12399000D01*
X8480008Y-12297879D01*
X8426894Y-12126366D01*
X8328100Y-11976441D01*
X8191450Y-11859975D01*
X8027763Y-11786190D01*
X7850000Y-11760928D01*
X6050000Y-11760928D01*
X5948879Y-11768992D01*
X5777366Y-11822106D01*
X5627441Y-11920900D01*
X5510975Y-12057550D01*
X5437190Y-12221237D01*
X5411928Y-12399000D01*
X2147697Y-12399000D01*
X2154548Y-7678157D01*
X2161492Y-7662560D01*
X2202116Y-7483754D01*
X2205040Y-7274319D01*
X2169425Y-7094448D01*
X2099550Y-6924920D01*
X1998079Y-6772193D01*
X1868875Y-6642084D01*
X1716860Y-6539549D01*
X1547825Y-6468493D01*
X1368207Y-6431623D01*
X1184849Y-6430343D01*
X1004733Y-6464701D01*
X834722Y-6533390D01*
X681291Y-6633793D01*
X635000Y-6679125D01*
X635000Y150247D01*
X1470566Y150247D01*
X1563286Y71222D01*
X1726973Y-2563D01*
X1904736Y-27825D01*
X3404736Y-27825D01*
X3505857Y-19761D01*
X3677370Y33353D01*
X3827295Y132147D01*
X3943761Y268797D01*
X4017546Y432484D01*
X4042808Y610247D01*
X4042808Y1210247D01*
X4034744Y1311368D01*
X3998235Y1429261D01*
X7929329Y1455687D01*
X9311219Y683266D01*
X9324372Y650046D01*
X9423701Y495917D01*
X9551076Y364016D01*
X9701644Y259369D01*
X9869671Y185960D01*
X10048757Y146585D01*
X10232079Y142745D01*
X10412657Y174586D01*
X10583610Y240894D01*
X10738429Y339145D01*
X10871215Y465596D01*
X10915658Y528598D01*
X11088353Y431453D01*
X11102372Y396046D01*
X11201701Y241917D01*
X11329076Y110016D01*
X11479644Y5369D01*
X11647671Y-68040D01*
X11826757Y-107415D01*
X12010079Y-111255D01*
X12190657Y-79414D01*
X12361610Y-13106D01*
X12516429Y85145D01*
X12649215Y211596D01*
X12754911Y361430D01*
X12829492Y528940D01*
X12870116Y707746D01*
X12873040Y917181D01*
X12837425Y1097052D01*
X12767550Y1266580D01*
X12666079Y1419307D01*
X12536875Y1549416D01*
X12384860Y1651951D01*
X12215825Y1723007D01*
X12036207Y1759877D01*
X11852849Y1761157D01*
X11831920Y1757165D01*
X7675601Y4095187D01*
X7639502Y4111078D01*
X7605008Y4130210D01*
X7571786Y4140886D01*
X7539846Y4154946D01*
X7501346Y4163522D01*
X7463794Y4175590D01*
X7429125Y4179611D01*
X7395069Y4187197D01*
X7355643Y4188132D01*
X7316455Y4192677D01*
X7305844Y4192791D01*
X4002976Y4205191D01*
X4015333Y4235024D01*
X4039736Y4357705D01*
X4039736Y4434497D01*
X3880986Y4593247D01*
X2781736Y4593247D01*
X2781736Y4573247D01*
X2527736Y4573247D01*
X2527736Y4593247D01*
X1428486Y4593247D01*
X1269736Y4434497D01*
X1269736Y4357705D01*
X1294139Y4235024D01*
X1342006Y4119462D01*
X1363635Y4087092D01*
X1291926Y3928010D01*
X1266664Y3750247D01*
X1266664Y3150247D01*
X1274728Y3049126D01*
X1327842Y2877613D01*
X1365296Y2820775D01*
X1291926Y2658010D01*
X1266664Y2480247D01*
X1266664Y1880247D01*
X1274728Y1779126D01*
X1308446Y1670247D01*
X635000Y1670247D01*
X635000Y5230247D01*
X1304402Y5230247D01*
X1294139Y5205470D01*
X1269736Y5082789D01*
X1269736Y5005997D01*
X1428486Y4847247D01*
X2527736Y4847247D01*
X2527736Y4867247D01*
X2781736Y4867247D01*
X2781736Y4847247D01*
X3880986Y4847247D01*
X4039736Y5005997D01*
X4039736Y5082789D01*
X4015333Y5205470D01*
X3967466Y5321032D01*
X3945837Y5353402D01*
X4017546Y5512484D01*
X4042808Y5690247D01*
X4042808Y6290247D01*
X4034744Y6391368D01*
X3981630Y6562881D01*
X3944176Y6619719D01*
X4017546Y6782484D01*
X4042808Y6960247D01*
X4042808Y7560247D01*
X4034744Y7661368D01*
X3981630Y7832881D01*
X3944176Y7889719D01*
X4017546Y8052484D01*
X4042808Y8230247D01*
X4042808Y8830247D01*
X4034744Y8931368D01*
X3981630Y9102881D01*
X3882836Y9252806D01*
X3746186Y9369272D01*
X3582499Y9443057D01*
X3404736Y9468319D01*
X1904736Y9468319D01*
X1803615Y9460255D01*
X1632102Y9407141D01*
X1482177Y9308347D01*
X1466750Y9290247D01*
X1055555Y9290247D01*
X635000Y9710802D01*
X635000Y10668000D01*
X629972Y10703381D01*
X615286Y10735961D01*
X592105Y10763160D01*
X562264Y10782823D01*
X528127Y10793395D01*
X508000Y10795000D01*
X-449198Y10795000D01*
X-852474Y11198276D01*
X-762000Y11288750D01*
X-762000Y12413000D01*
X-508000Y12413000D01*
X-508000Y11288750D01*
X-349250Y11130000D01*
X-272458Y11130000D01*
X-149777Y11154403D01*
X-34215Y11202270D01*
X0Y11225132D01*
X34215Y11202270D01*
X149777Y11154403D01*
X272458Y11130000D01*
X349250Y11130000D01*
X508000Y11288750D01*
X508000Y12413000D01*
X762000Y12413000D01*
X762000Y11288750D01*
X920750Y11130000D01*
X997542Y11130000D01*
X1120223Y11154403D01*
X1235785Y11202270D01*
X1270000Y11225132D01*
X1304215Y11202270D01*
X1419777Y11154403D01*
X1542458Y11130000D01*
X1619250Y11130000D01*
X1778000Y11288750D01*
X1778000Y12413000D01*
X2032000Y12413000D01*
X2032000Y11288750D01*
X2190750Y11130000D01*
X2267542Y11130000D01*
X2390223Y11154403D01*
X2505785Y11202270D01*
X2609789Y11271763D01*
X2698237Y11360211D01*
X2767730Y11464215D01*
X2815597Y11579777D01*
X2840000Y11702458D01*
X2840000Y12254250D01*
X2681250Y12413000D01*
X2032000Y12413000D01*
X1778000Y12413000D01*
X762000Y12413000D01*
X508000Y12413000D01*
X-508000Y12413000D01*
X-762000Y12413000D01*
X-782000Y12413000D01*
X-782000Y12667000D01*
X-762000Y12667000D01*
X-762000Y13791250D01*
X-508000Y13791250D01*
X-508000Y12667000D01*
X508000Y12667000D01*
X508000Y13791250D01*
X762000Y13791250D01*
X762000Y12667000D01*
X1778000Y12667000D01*
X1778000Y13791250D01*
X2032000Y13791250D01*
X2032000Y12667000D01*
X2681250Y12667000D01*
X2840000Y12825750D01*
X2840000Y13377542D01*
X2815597Y13500223D01*
X2767730Y13615785D01*
X2698237Y13719789D01*
X2609789Y13808237D01*
X2505785Y13877730D01*
X2390223Y13925597D01*
X2267542Y13950000D01*
X2190750Y13950000D01*
X2032000Y13791250D01*
X1778000Y13791250D01*
X1619250Y13950000D01*
X1542458Y13950000D01*
X1419777Y13925597D01*
X1304215Y13877730D01*
X1270000Y13854868D01*
X1235785Y13877730D01*
X1120223Y13925597D01*
X997542Y13950000D01*
X920750Y13950000D01*
X762000Y13791250D01*
X508000Y13791250D01*
X349250Y13950000D01*
X272458Y13950000D01*
X149777Y13925597D01*
X34215Y13877730D01*
X0Y13854868D01*
X-34215Y13877730D01*
X-149777Y13925597D01*
X-272458Y13950000D01*
X-349250Y13950000D01*
X-508000Y13791250D01*
X-762000Y13791250D01*
X-920750Y13950000D01*
X-997542Y13950000D01*
X-1120223Y13925597D01*
X-1235785Y13877730D01*
X-1268155Y13856101D01*
X-1427237Y13927810D01*
X-1605000Y13953072D01*
X-2205000Y13953072D01*
X-2306121Y13945008D01*
X-2477634Y13891894D01*
X-2627559Y13793100D01*
X-2744025Y13656450D01*
X-2817810Y13492763D01*
X-2840514Y13333000D01*
X-2921000Y13333000D01*
X-2921000Y14605000D01*
X19290781Y14605000D01*
X20244113Y13436100D01*
G36*
X4896639Y23788102D02*
X9425210Y22386275D01*
X13595252Y20131542D01*
X17247929Y17109784D01*
X18254994Y15875000D01*
X-2745000Y15875000D01*
X-2745000Y16097250D01*
X-2903750Y16256000D01*
X-2921000Y16256000D01*
X-2921000Y16510000D01*
X-2903750Y16510000D01*
X-2745000Y16668750D01*
X-2745000Y16830197D01*
X-2698237Y16760211D01*
X-2609789Y16671763D01*
X-2505785Y16602270D01*
X-2390223Y16554403D01*
X-2267542Y16530000D01*
X-2190750Y16530000D01*
X-2032000Y16688750D01*
X-2032000Y17813000D01*
X-1778000Y17813000D01*
X-1778000Y16688750D01*
X-1619250Y16530000D01*
X-1542458Y16530000D01*
X-1419777Y16554403D01*
X-1304215Y16602270D01*
X-1270000Y16625132D01*
X-1235785Y16602270D01*
X-1120223Y16554403D01*
X-997542Y16530000D01*
X-920750Y16530000D01*
X-762000Y16688750D01*
X-762000Y17813000D01*
X-508000Y17813000D01*
X-508000Y16688750D01*
X-349250Y16530000D01*
X-272458Y16530000D01*
X-149777Y16554403D01*
X-34215Y16602270D01*
X0Y16625132D01*
X34215Y16602270D01*
X149777Y16554403D01*
X272458Y16530000D01*
X349250Y16530000D01*
X508000Y16688750D01*
X508000Y17813000D01*
X762000Y17813000D01*
X762000Y16688750D01*
X920750Y16530000D01*
X997542Y16530000D01*
X1120223Y16554403D01*
X1235785Y16602270D01*
X1270000Y16625132D01*
X1304215Y16602270D01*
X1419777Y16554403D01*
X1542458Y16530000D01*
X1619250Y16530000D01*
X1778000Y16688750D01*
X1778000Y17813000D01*
X2032000Y17813000D01*
X2032000Y16688750D01*
X2190750Y16530000D01*
X2267542Y16530000D01*
X2390223Y16554403D01*
X2505785Y16602270D01*
X2609789Y16671763D01*
X2698237Y16760211D01*
X2767730Y16864215D01*
X2815597Y16979777D01*
X2840000Y17102458D01*
X2840000Y17654250D01*
X2681250Y17813000D01*
X2032000Y17813000D01*
X1778000Y17813000D01*
X762000Y17813000D01*
X508000Y17813000D01*
X-508000Y17813000D01*
X-762000Y17813000D01*
X-1778000Y17813000D01*
X-2032000Y17813000D01*
X-2681250Y17813000D01*
X-2840000Y17654250D01*
X-2840000Y17317803D01*
X-2886763Y17387789D01*
X-2921000Y17422026D01*
X-2921000Y18777542D01*
X-2840000Y18777542D01*
X-2840000Y18225750D01*
X-2681250Y18067000D01*
X-2032000Y18067000D01*
X-2032000Y19191250D01*
X-1778000Y19191250D01*
X-1778000Y18067000D01*
X-762000Y18067000D01*
X-762000Y19191250D01*
X-508000Y19191250D01*
X-508000Y18067000D01*
X508000Y18067000D01*
X508000Y19191250D01*
X762000Y19191250D01*
X762000Y18067000D01*
X1778000Y18067000D01*
X1778000Y19191250D01*
X2032000Y19191250D01*
X2032000Y18067000D01*
X2681250Y18067000D01*
X2840000Y18225750D01*
X2840000Y18777542D01*
X2815597Y18900223D01*
X2767730Y19015785D01*
X2698237Y19119789D01*
X2609789Y19208237D01*
X2505785Y19277730D01*
X2390223Y19325597D01*
X2267542Y19350000D01*
X2190750Y19350000D01*
X2032000Y19191250D01*
X1778000Y19191250D01*
X1619250Y19350000D01*
X1542458Y19350000D01*
X1419777Y19325597D01*
X1304215Y19277730D01*
X1270000Y19254868D01*
X1235785Y19277730D01*
X1120223Y19325597D01*
X997542Y19350000D01*
X920750Y19350000D01*
X762000Y19191250D01*
X508000Y19191250D01*
X349250Y19350000D01*
X272458Y19350000D01*
X149777Y19325597D01*
X34215Y19277730D01*
X0Y19254868D01*
X-34215Y19277730D01*
X-149777Y19325597D01*
X-272458Y19350000D01*
X-349250Y19350000D01*
X-508000Y19191250D01*
X-762000Y19191250D01*
X-920750Y19350000D01*
X-997542Y19350000D01*
X-1120223Y19325597D01*
X-1235785Y19277730D01*
X-1270000Y19254868D01*
X-1304215Y19277730D01*
X-1419777Y19325597D01*
X-1542458Y19350000D01*
X-1619250Y19350000D01*
X-1778000Y19191250D01*
X-2032000Y19191250D01*
X-2190750Y19350000D01*
X-2267542Y19350000D01*
X-2390223Y19325597D01*
X-2505785Y19277730D01*
X-2609789Y19208237D01*
X-2698237Y19119789D01*
X-2767730Y19015785D01*
X-2815597Y18900223D01*
X-2840000Y18777542D01*
X-2921000Y18777542D01*
X-2921000Y24001229D01*
X182031Y24283627D01*
X4896639Y23788102D01*
X4896639Y23788102D01*
G37*
X4896639Y23788102D02*
X9425210Y22386275D01*
X13595252Y20131542D01*
X17247929Y17109784D01*
X18254994Y15875000D01*
X-2745000Y15875000D01*
X-2745000Y16097250D01*
X-2903750Y16256000D01*
X-2921000Y16256000D01*
X-2921000Y16510000D01*
X-2903750Y16510000D01*
X-2745000Y16668750D01*
X-2745000Y16830197D01*
X-2698237Y16760211D01*
X-2609789Y16671763D01*
X-2505785Y16602270D01*
X-2390223Y16554403D01*
X-2267542Y16530000D01*
X-2190750Y16530000D01*
X-2032000Y16688750D01*
X-2032000Y17813000D01*
X-1778000Y17813000D01*
X-1778000Y16688750D01*
X-1619250Y16530000D01*
X-1542458Y16530000D01*
X-1419777Y16554403D01*
X-1304215Y16602270D01*
X-1270000Y16625132D01*
X-1235785Y16602270D01*
X-1120223Y16554403D01*
X-997542Y16530000D01*
X-920750Y16530000D01*
X-762000Y16688750D01*
X-762000Y17813000D01*
X-508000Y17813000D01*
X-508000Y16688750D01*
X-349250Y16530000D01*
X-272458Y16530000D01*
X-149777Y16554403D01*
X-34215Y16602270D01*
X0Y16625132D01*
X34215Y16602270D01*
X149777Y16554403D01*
X272458Y16530000D01*
X349250Y16530000D01*
X508000Y16688750D01*
X508000Y17813000D01*
X762000Y17813000D01*
X762000Y16688750D01*
X920750Y16530000D01*
X997542Y16530000D01*
X1120223Y16554403D01*
X1235785Y16602270D01*
X1270000Y16625132D01*
X1304215Y16602270D01*
X1419777Y16554403D01*
X1542458Y16530000D01*
X1619250Y16530000D01*
X1778000Y16688750D01*
X1778000Y17813000D01*
X2032000Y17813000D01*
X2032000Y16688750D01*
X2190750Y16530000D01*
X2267542Y16530000D01*
X2390223Y16554403D01*
X2505785Y16602270D01*
X2609789Y16671763D01*
X2698237Y16760211D01*
X2767730Y16864215D01*
X2815597Y16979777D01*
X2840000Y17102458D01*
X2840000Y17654250D01*
X2681250Y17813000D01*
X2032000Y17813000D01*
X1778000Y17813000D01*
X762000Y17813000D01*
X508000Y17813000D01*
X-508000Y17813000D01*
X-762000Y17813000D01*
X-1778000Y17813000D01*
X-2032000Y17813000D01*
X-2681250Y17813000D01*
X-2840000Y17654250D01*
X-2840000Y17317803D01*
X-2886763Y17387789D01*
X-2921000Y17422026D01*
X-2921000Y18777542D01*
X-2840000Y18777542D01*
X-2840000Y18225750D01*
X-2681250Y18067000D01*
X-2032000Y18067000D01*
X-2032000Y19191250D01*
X-1778000Y19191250D01*
X-1778000Y18067000D01*
X-762000Y18067000D01*
X-762000Y19191250D01*
X-508000Y19191250D01*
X-508000Y18067000D01*
X508000Y18067000D01*
X508000Y19191250D01*
X762000Y19191250D01*
X762000Y18067000D01*
X1778000Y18067000D01*
X1778000Y19191250D01*
X2032000Y19191250D01*
X2032000Y18067000D01*
X2681250Y18067000D01*
X2840000Y18225750D01*
X2840000Y18777542D01*
X2815597Y18900223D01*
X2767730Y19015785D01*
X2698237Y19119789D01*
X2609789Y19208237D01*
X2505785Y19277730D01*
X2390223Y19325597D01*
X2267542Y19350000D01*
X2190750Y19350000D01*
X2032000Y19191250D01*
X1778000Y19191250D01*
X1619250Y19350000D01*
X1542458Y19350000D01*
X1419777Y19325597D01*
X1304215Y19277730D01*
X1270000Y19254868D01*
X1235785Y19277730D01*
X1120223Y19325597D01*
X997542Y19350000D01*
X920750Y19350000D01*
X762000Y19191250D01*
X508000Y19191250D01*
X349250Y19350000D01*
X272458Y19350000D01*
X149777Y19325597D01*
X34215Y19277730D01*
X0Y19254868D01*
X-34215Y19277730D01*
X-149777Y19325597D01*
X-272458Y19350000D01*
X-349250Y19350000D01*
X-508000Y19191250D01*
X-762000Y19191250D01*
X-920750Y19350000D01*
X-997542Y19350000D01*
X-1120223Y19325597D01*
X-1235785Y19277730D01*
X-1270000Y19254868D01*
X-1304215Y19277730D01*
X-1419777Y19325597D01*
X-1542458Y19350000D01*
X-1619250Y19350000D01*
X-1778000Y19191250D01*
X-2032000Y19191250D01*
X-2190750Y19350000D01*
X-2267542Y19350000D01*
X-2390223Y19325597D01*
X-2505785Y19277730D01*
X-2609789Y19208237D01*
X-2698237Y19119789D01*
X-2767730Y19015785D01*
X-2815597Y18900223D01*
X-2840000Y18777542D01*
X-2921000Y18777542D01*
X-2921000Y24001229D01*
X182031Y24283627D01*
X4896639Y23788102D01*
G36*
X-4191000Y17621072D02*
X-4580000Y17621072D01*
X-4681121Y17613008D01*
X-4852634Y17559894D01*
X-5002559Y17461100D01*
X-5079225Y17371148D01*
X-5101900Y17405559D01*
X-5238550Y17522025D01*
X-5402237Y17595810D01*
X-5580000Y17621072D01*
X-6780000Y17621072D01*
X-6881121Y17613008D01*
X-7052634Y17559894D01*
X-7202559Y17461100D01*
X-7288937Y17359752D01*
X-7351000Y17368572D01*
X-8651000Y17368572D01*
X-8752121Y17360508D01*
X-8923634Y17307394D01*
X-9073559Y17208600D01*
X-9190025Y17071950D01*
X-9263810Y16908263D01*
X-9289072Y16730500D01*
X-9289072Y16030500D01*
X-9281008Y15929379D01*
X-9227894Y15757866D01*
X-9129100Y15607941D01*
X-8992450Y15491475D01*
X-8859396Y15431498D01*
X-8951785Y15393230D01*
X-9055789Y15323737D01*
X-9144237Y15235289D01*
X-9213730Y15131285D01*
X-9261597Y15015723D01*
X-9286000Y14893042D01*
X-9286000Y14766250D01*
X-9127250Y14607500D01*
X-8128000Y14607500D01*
X-8128000Y14627500D01*
X-7874000Y14627500D01*
X-7874000Y14607500D01*
X-6874750Y14607500D01*
X-6716000Y14766250D01*
X-6716000Y14893042D01*
X-6740403Y15015723D01*
X-6788270Y15131285D01*
X-6799210Y15147658D01*
X-6780000Y15144928D01*
X-5580000Y15144928D01*
X-5478879Y15152992D01*
X-5307366Y15206106D01*
X-5157441Y15304900D01*
X-5080775Y15394852D01*
X-5058100Y15360441D01*
X-4921450Y15243975D01*
X-4757763Y15170190D01*
X-4580000Y15144928D01*
X-4191000Y15144928D01*
X-4191000Y13861072D01*
X-4353000Y13861072D01*
X-4454121Y13853008D01*
X-4625634Y13799894D01*
X-4775559Y13701100D01*
X-4892025Y13564450D01*
X-4952002Y13431396D01*
X-4990270Y13523785D01*
X-5059763Y13627789D01*
X-5148211Y13716237D01*
X-5252215Y13785730D01*
X-5367777Y13833597D01*
X-5490458Y13858000D01*
X-5617250Y13858000D01*
X-5776000Y13699250D01*
X-5776000Y12700000D01*
X-5756000Y12700000D01*
X-5756000Y12446000D01*
X-5776000Y12446000D01*
X-5776000Y11446750D01*
X-5715000Y11385750D01*
X-5715000Y10729000D01*
X-4715750Y10729000D01*
X-4557000Y10887750D01*
X-4557000Y11014542D01*
X-4581403Y11137223D01*
X-4629270Y11252785D01*
X-4698763Y11356789D01*
X-4787211Y11445237D01*
X-4891215Y11514730D01*
X-5006777Y11562597D01*
X-5027369Y11566693D01*
X-4990270Y11622215D01*
X-4950734Y11717663D01*
X-4929894Y11650366D01*
X-4831100Y11500441D01*
X-4694450Y11383975D01*
X-4530763Y11310190D01*
X-4353000Y11284928D01*
X-4191000Y11284928D01*
X-4191000Y10285000D01*
X-4557000Y10285000D01*
X-4557000Y10316250D01*
X-4715750Y10475000D01*
X-5715000Y10475000D01*
X-5715000Y10455000D01*
X-5969000Y10455000D01*
X-5969000Y10475000D01*
X-6968250Y10475000D01*
X-7010598Y10432652D01*
X-7140793Y10459377D01*
X-7324151Y10460657D01*
X-7504267Y10426299D01*
X-7674278Y10357610D01*
X-7827709Y10257207D01*
X-7958717Y10128914D01*
X-8062311Y9977619D01*
X-8134546Y9809084D01*
X-8172669Y9629728D01*
X-8175229Y9446383D01*
X-8142128Y9266032D01*
X-8074628Y9095546D01*
X-7999000Y8978194D01*
X-7999000Y8128000D01*
X-7992149Y8058123D01*
X-7986031Y7988197D01*
X-7984916Y7984359D01*
X-7984526Y7980382D01*
X-7964236Y7913179D01*
X-7944649Y7845760D01*
X-7942810Y7842212D01*
X-7941655Y7838387D01*
X-7908701Y7776409D01*
X-7876390Y7714075D01*
X-7873897Y7710952D01*
X-7872020Y7707422D01*
X-7827645Y7653013D01*
X-7783852Y7598154D01*
X-7778369Y7592594D01*
X-7778274Y7592478D01*
X-7778166Y7592389D01*
X-7776401Y7590599D01*
X-5638648Y5452846D01*
X-5584392Y5408279D01*
X-5530622Y5363161D01*
X-5527121Y5361236D01*
X-5524032Y5358699D01*
X-5462180Y5325534D01*
X-5400643Y5291704D01*
X-5396831Y5290495D01*
X-5393312Y5288608D01*
X-5326216Y5268095D01*
X-5259260Y5246855D01*
X-5255288Y5246409D01*
X-5251466Y5245241D01*
X-5181642Y5238149D01*
X-5111858Y5230321D01*
X-5104043Y5230266D01*
X-5103900Y5230252D01*
X-5103767Y5230265D01*
X-5101247Y5230247D01*
X-4095598Y5230247D01*
X-4105861Y5205470D01*
X-4130264Y5082789D01*
X-4130264Y5005997D01*
X-3971514Y4847247D01*
X-2872264Y4847247D01*
X-2872264Y4867247D01*
X-2618264Y4867247D01*
X-2618264Y4847247D01*
X-2598264Y4847247D01*
X-2598264Y4593247D01*
X-2618264Y4593247D01*
X-2618264Y4573247D01*
X-2872264Y4573247D01*
X-2872264Y4593247D01*
X-3971514Y4593247D01*
X-4130264Y4434497D01*
X-4130264Y4357705D01*
X-4105861Y4235024D01*
X-4093536Y4205268D01*
X-4112680Y4203391D01*
X-4182556Y4197277D01*
X-4186389Y4196163D01*
X-4190371Y4195773D01*
X-4257615Y4175471D01*
X-4324993Y4155896D01*
X-4328541Y4154057D01*
X-4332366Y4152902D01*
X-4394363Y4119938D01*
X-4456679Y4087636D01*
X-4459800Y4085144D01*
X-4463331Y4083267D01*
X-4517746Y4038888D01*
X-4572599Y3995099D01*
X-4578159Y3989616D01*
X-4578275Y3989521D01*
X-4578364Y3989413D01*
X-4580154Y3987648D01*
X-5236401Y3331401D01*
X-5280968Y3277145D01*
X-5326086Y3223375D01*
X-5328011Y3219874D01*
X-5330548Y3216785D01*
X-5363713Y3154933D01*
X-5397543Y3093396D01*
X-5398752Y3089584D01*
X-5400639Y3086065D01*
X-5421152Y3018969D01*
X-5442392Y2952013D01*
X-5442838Y2948041D01*
X-5444006Y2944219D01*
X-5451103Y2874351D01*
X-5458926Y2804611D01*
X-5458980Y2796806D01*
X-5458996Y2796653D01*
X-5458982Y2796510D01*
X-5459000Y2794000D01*
X-5459000Y-127000D01*
X-5452149Y-196877D01*
X-5446031Y-266803D01*
X-5444916Y-270641D01*
X-5444526Y-274618D01*
X-5424236Y-341821D01*
X-5404649Y-409240D01*
X-5402810Y-412788D01*
X-5401655Y-416613D01*
X-5368701Y-478591D01*
X-5336390Y-540925D01*
X-5333897Y-544048D01*
X-5332020Y-547578D01*
X-5287645Y-601987D01*
X-5243852Y-656846D01*
X-5238369Y-662406D01*
X-5238274Y-662522D01*
X-5238166Y-662611D01*
X-5236401Y-664401D01*
X-4474401Y-1426401D01*
X-4420145Y-1470968D01*
X-4366375Y-1516086D01*
X-4362874Y-1518011D01*
X-4359785Y-1520548D01*
X-4297898Y-1553732D01*
X-4236396Y-1587543D01*
X-4232588Y-1588751D01*
X-4229065Y-1590640D01*
X-4161923Y-1611167D01*
X-4095013Y-1632392D01*
X-4091041Y-1632838D01*
X-4087219Y-1634006D01*
X-4017351Y-1641103D01*
X-3947611Y-1648926D01*
X-3939806Y-1648980D01*
X-3939653Y-1648996D01*
X-3939510Y-1648982D01*
X-3937000Y-1649000D01*
X-2284000Y-1649000D01*
X-2284000Y-4384198D01*
X-2310872Y-4411070D01*
X-2424267Y-4432701D01*
X-2594278Y-4501390D01*
X-2747709Y-4601793D01*
X-2878717Y-4730086D01*
X-2982311Y-4881381D01*
X-3054546Y-5049916D01*
X-3092669Y-5229272D01*
X-3095229Y-5412617D01*
X-3062128Y-5592968D01*
X-2994628Y-5763454D01*
X-2895299Y-5917583D01*
X-2849162Y-5965360D01*
X-3834872Y-6951070D01*
X-3948267Y-6972701D01*
X-4118278Y-7041390D01*
X-4271709Y-7141793D01*
X-4402717Y-7270086D01*
X-4506311Y-7421381D01*
X-4578546Y-7589916D01*
X-4616669Y-7769272D01*
X-4619229Y-7952617D01*
X-4586128Y-8132968D01*
X-4518628Y-8303454D01*
X-4419299Y-8457583D01*
X-4291924Y-8589484D01*
X-4141356Y-8694131D01*
X-3973329Y-8767540D01*
X-3794243Y-8806915D01*
X-3610921Y-8810755D01*
X-3430343Y-8778914D01*
X-3259390Y-8712606D01*
X-3104571Y-8614355D01*
X-2971785Y-8487904D01*
X-2866089Y-8338070D01*
X-2791508Y-8170560D01*
X-2758214Y-8024016D01*
X-635000Y-5900802D01*
X-635000Y-15131678D01*
X-635534Y-15131009D01*
X-644211Y-15122210D01*
X-4962210Y-10804210D01*
X-4963456Y-10803187D01*
X-4964475Y-10801955D01*
X-5029962Y-10748559D01*
X-5095678Y-10694579D01*
X-5097096Y-10693819D01*
X-5098338Y-10692806D01*
X-5173122Y-10653054D01*
X-5247899Y-10612959D01*
X-5249434Y-10612490D01*
X-5250852Y-10611736D01*
X-5332012Y-10587243D01*
X-5413074Y-10562460D01*
X-5414671Y-10562298D01*
X-5416208Y-10561834D01*
X-5500654Y-10553564D01*
X-5584911Y-10545006D01*
X-5586506Y-10545157D01*
X-5588107Y-10545000D01*
X-5600464Y-10545088D01*
X-14095565Y-10664737D01*
X-16226859Y-6934973D01*
X-16245575Y-6840448D01*
X-16315450Y-6670920D01*
X-16416921Y-6518193D01*
X-16546125Y-6388084D01*
X-16698140Y-6285549D01*
X-16867175Y-6214493D01*
X-17046793Y-6177623D01*
X-17230151Y-6176343D01*
X-17410267Y-6210701D01*
X-17580278Y-6279390D01*
X-17733709Y-6379793D01*
X-17864717Y-6508086D01*
X-17968311Y-6659381D01*
X-18040546Y-6827916D01*
X-18078669Y-7007272D01*
X-18081229Y-7190617D01*
X-18048128Y-7370968D01*
X-17980628Y-7541454D01*
X-17881299Y-7695583D01*
X-17757666Y-7823609D01*
X-15373395Y-11996083D01*
X-15354322Y-12022976D01*
X-15338638Y-12051974D01*
X-15304478Y-12093257D01*
X-15273476Y-12136969D01*
X-15249542Y-12159646D01*
X-15228525Y-12185045D01*
X-15186996Y-12218907D01*
X-15148095Y-12255765D01*
X-15120214Y-12273360D01*
X-15094663Y-12294194D01*
X-15047341Y-12319348D01*
X-15002027Y-12347945D01*
X-14971263Y-12359788D01*
X-14942149Y-12375264D01*
X-14890845Y-12390747D01*
X-14840838Y-12409998D01*
X-14808355Y-12415641D01*
X-14776793Y-12425166D01*
X-14723466Y-12430388D01*
X-14670665Y-12439561D01*
X-14637702Y-12438787D01*
X-14604893Y-12442000D01*
X-14592536Y-12441912D01*
X-8481940Y-12355847D01*
X-8488072Y-12399000D01*
X-8488072Y-16299000D01*
X-8480008Y-16400121D01*
X-8426894Y-16571634D01*
X-8328100Y-16721559D01*
X-8191450Y-16838025D01*
X-8027763Y-16911810D01*
X-7850000Y-16937072D01*
X-6050000Y-16937072D01*
X-5948879Y-16929008D01*
X-5777366Y-16875894D01*
X-5627441Y-16777100D01*
X-5510975Y-16640450D01*
X-5437190Y-16476763D01*
X-5411928Y-16299000D01*
X-5411928Y-12857652D01*
X-2153644Y-16115935D01*
X-2145505Y-18313705D01*
X-2172634Y-18322106D01*
X-2322559Y-18420900D01*
X-2439025Y-18557550D01*
X-2499002Y-18690604D01*
X-2537270Y-18598215D01*
X-2606763Y-18494211D01*
X-2695211Y-18405763D01*
X-2799215Y-18336270D01*
X-2914777Y-18288403D01*
X-3037458Y-18264000D01*
X-3464250Y-18264000D01*
X-3623000Y-18422750D01*
X-3623000Y-21022000D01*
X-3603000Y-21022000D01*
X-3603000Y-21276000D01*
X-3623000Y-21276000D01*
X-3623000Y-21296000D01*
X-3877000Y-21296000D01*
X-3877000Y-21276000D01*
X-4876250Y-21276000D01*
X-5035000Y-21434750D01*
X-5035000Y-23461542D01*
X-5010597Y-23584223D01*
X-4962730Y-23699785D01*
X-4920569Y-23762884D01*
X-5203465Y-23729151D01*
X-9712022Y-22264232D01*
X-13850177Y-19951495D01*
X-16513593Y-17684750D01*
X-13938000Y-17684750D01*
X-13938000Y-19461542D01*
X-13913597Y-19584223D01*
X-13865730Y-19699785D01*
X-13796237Y-19803789D01*
X-13707789Y-19892237D01*
X-13603785Y-19961730D01*
X-13488223Y-20009597D01*
X-13365542Y-20034000D01*
X-11588750Y-20034000D01*
X-11430000Y-19875250D01*
X-11430000Y-17526000D01*
X-11176000Y-17526000D01*
X-11176000Y-19875250D01*
X-11017250Y-20034000D01*
X-9240458Y-20034000D01*
X-9117777Y-20009597D01*
X-9002215Y-19961730D01*
X-8898211Y-19892237D01*
X-8809763Y-19803789D01*
X-8740270Y-19699785D01*
X-8692403Y-19584223D01*
X-8668000Y-19461542D01*
X-8668000Y-18836458D01*
X-5035000Y-18836458D01*
X-5035000Y-20863250D01*
X-4876250Y-21022000D01*
X-3877000Y-21022000D01*
X-3877000Y-18422750D01*
X-4035750Y-18264000D01*
X-4462542Y-18264000D01*
X-4585223Y-18288403D01*
X-4700785Y-18336270D01*
X-4804789Y-18405763D01*
X-4893237Y-18494211D01*
X-4962730Y-18598215D01*
X-5010597Y-18713777D01*
X-5035000Y-18836458D01*
X-8668000Y-18836458D01*
X-8668000Y-17684750D01*
X-8826750Y-17526000D01*
X-11176000Y-17526000D01*
X-11430000Y-17526000D01*
X-13779250Y-17526000D01*
X-13938000Y-17684750D01*
X-16513593Y-17684750D01*
X-17460308Y-16879033D01*
X-18682937Y-15336458D01*
X-13938000Y-15336458D01*
X-13938000Y-17113250D01*
X-13779250Y-17272000D01*
X-11430000Y-17272000D01*
X-11430000Y-14922750D01*
X-11176000Y-14922750D01*
X-11176000Y-17272000D01*
X-8826750Y-17272000D01*
X-8668000Y-17113250D01*
X-8668000Y-15336458D01*
X-8692403Y-15213777D01*
X-8740270Y-15098215D01*
X-8809763Y-14994211D01*
X-8898211Y-14905763D01*
X-9002215Y-14836270D01*
X-9117777Y-14788403D01*
X-9240458Y-14764000D01*
X-11017250Y-14764000D01*
X-11176000Y-14922750D01*
X-11430000Y-14922750D01*
X-11588750Y-14764000D01*
X-13365542Y-14764000D01*
X-13488223Y-14788403D01*
X-13603785Y-14836270D01*
X-13707789Y-14905763D01*
X-13796237Y-14994211D01*
X-13865730Y-15098215D01*
X-13913597Y-15213777D01*
X-13938000Y-15336458D01*
X-18682937Y-15336458D01*
X-20404907Y-13163873D01*
X-22571815Y-8947526D01*
X-23878495Y-4390591D01*
X-24275176Y333360D01*
X-23746749Y5044394D01*
X-22313341Y9563068D01*
X-21515387Y11014542D01*
X-7127000Y11014542D01*
X-7127000Y10887750D01*
X-6968250Y10729000D01*
X-5969000Y10729000D01*
X-5969000Y11428250D01*
X-6030000Y11489250D01*
X-6030000Y12446000D01*
X-6729250Y12446000D01*
X-6888000Y12287250D01*
X-6888000Y11860458D01*
X-6863597Y11737777D01*
X-6815730Y11622215D01*
X-6754506Y11530586D01*
X-6792785Y11514730D01*
X-6896789Y11445237D01*
X-6985237Y11356789D01*
X-7054730Y11252785D01*
X-7102597Y11137223D01*
X-7127000Y11014542D01*
X-21515387Y11014542D01*
X-20266895Y13285542D01*
X-6888000Y13285542D01*
X-6888000Y12858750D01*
X-6729250Y12700000D01*
X-6030000Y12700000D01*
X-6030000Y13699250D01*
X-6188750Y13858000D01*
X-6315542Y13858000D01*
X-6438223Y13833597D01*
X-6553785Y13785730D01*
X-6657789Y13716237D01*
X-6746237Y13627789D01*
X-6815730Y13523785D01*
X-6863597Y13408223D01*
X-6888000Y13285542D01*
X-20266895Y13285542D01*
X-20029551Y13717268D01*
X-19628896Y14194750D01*
X-9286000Y14194750D01*
X-9286000Y14067958D01*
X-9261597Y13945277D01*
X-9213730Y13829715D01*
X-9144237Y13725711D01*
X-9055789Y13637263D01*
X-8951785Y13567770D01*
X-8836223Y13519903D01*
X-8713542Y13495500D01*
X-8286750Y13495500D01*
X-8128000Y13654250D01*
X-8128000Y14353500D01*
X-7874000Y14353500D01*
X-7874000Y13654250D01*
X-7715250Y13495500D01*
X-7288458Y13495500D01*
X-7165777Y13519903D01*
X-7050215Y13567770D01*
X-6946211Y13637263D01*
X-6857763Y13725711D01*
X-6788270Y13829715D01*
X-6740403Y13945277D01*
X-6716000Y14067958D01*
X-6716000Y14194750D01*
X-6874750Y14353500D01*
X-7874000Y14353500D01*
X-8128000Y14353500D01*
X-9127250Y14353500D01*
X-9286000Y14194750D01*
X-19628896Y14194750D01*
X-16982367Y17348760D01*
X-13287855Y20319224D01*
X-9086738Y22515515D01*
X-4539036Y23853976D01*
X-4191000Y23885650D01*
X-4191000Y17621072D01*
X-4191000Y17621072D01*
G37*
X-4191000Y17621072D02*
X-4580000Y17621072D01*
X-4681121Y17613008D01*
X-4852634Y17559894D01*
X-5002559Y17461100D01*
X-5079225Y17371148D01*
X-5101900Y17405559D01*
X-5238550Y17522025D01*
X-5402237Y17595810D01*
X-5580000Y17621072D01*
X-6780000Y17621072D01*
X-6881121Y17613008D01*
X-7052634Y17559894D01*
X-7202559Y17461100D01*
X-7288937Y17359752D01*
X-7351000Y17368572D01*
X-8651000Y17368572D01*
X-8752121Y17360508D01*
X-8923634Y17307394D01*
X-9073559Y17208600D01*
X-9190025Y17071950D01*
X-9263810Y16908263D01*
X-9289072Y16730500D01*
X-9289072Y16030500D01*
X-9281008Y15929379D01*
X-9227894Y15757866D01*
X-9129100Y15607941D01*
X-8992450Y15491475D01*
X-8859396Y15431498D01*
X-8951785Y15393230D01*
X-9055789Y15323737D01*
X-9144237Y15235289D01*
X-9213730Y15131285D01*
X-9261597Y15015723D01*
X-9286000Y14893042D01*
X-9286000Y14766250D01*
X-9127250Y14607500D01*
X-8128000Y14607500D01*
X-8128000Y14627500D01*
X-7874000Y14627500D01*
X-7874000Y14607500D01*
X-6874750Y14607500D01*
X-6716000Y14766250D01*
X-6716000Y14893042D01*
X-6740403Y15015723D01*
X-6788270Y15131285D01*
X-6799210Y15147658D01*
X-6780000Y15144928D01*
X-5580000Y15144928D01*
X-5478879Y15152992D01*
X-5307366Y15206106D01*
X-5157441Y15304900D01*
X-5080775Y15394852D01*
X-5058100Y15360441D01*
X-4921450Y15243975D01*
X-4757763Y15170190D01*
X-4580000Y15144928D01*
X-4191000Y15144928D01*
X-4191000Y13861072D01*
X-4353000Y13861072D01*
X-4454121Y13853008D01*
X-4625634Y13799894D01*
X-4775559Y13701100D01*
X-4892025Y13564450D01*
X-4952002Y13431396D01*
X-4990270Y13523785D01*
X-5059763Y13627789D01*
X-5148211Y13716237D01*
X-5252215Y13785730D01*
X-5367777Y13833597D01*
X-5490458Y13858000D01*
X-5617250Y13858000D01*
X-5776000Y13699250D01*
X-5776000Y12700000D01*
X-5756000Y12700000D01*
X-5756000Y12446000D01*
X-5776000Y12446000D01*
X-5776000Y11446750D01*
X-5715000Y11385750D01*
X-5715000Y10729000D01*
X-4715750Y10729000D01*
X-4557000Y10887750D01*
X-4557000Y11014542D01*
X-4581403Y11137223D01*
X-4629270Y11252785D01*
X-4698763Y11356789D01*
X-4787211Y11445237D01*
X-4891215Y11514730D01*
X-5006777Y11562597D01*
X-5027369Y11566693D01*
X-4990270Y11622215D01*
X-4950734Y11717663D01*
X-4929894Y11650366D01*
X-4831100Y11500441D01*
X-4694450Y11383975D01*
X-4530763Y11310190D01*
X-4353000Y11284928D01*
X-4191000Y11284928D01*
X-4191000Y10285000D01*
X-4557000Y10285000D01*
X-4557000Y10316250D01*
X-4715750Y10475000D01*
X-5715000Y10475000D01*
X-5715000Y10455000D01*
X-5969000Y10455000D01*
X-5969000Y10475000D01*
X-6968250Y10475000D01*
X-7010598Y10432652D01*
X-7140793Y10459377D01*
X-7324151Y10460657D01*
X-7504267Y10426299D01*
X-7674278Y10357610D01*
X-7827709Y10257207D01*
X-7958717Y10128914D01*
X-8062311Y9977619D01*
X-8134546Y9809084D01*
X-8172669Y9629728D01*
X-8175229Y9446383D01*
X-8142128Y9266032D01*
X-8074628Y9095546D01*
X-7999000Y8978194D01*
X-7999000Y8128000D01*
X-7992149Y8058123D01*
X-7986031Y7988197D01*
X-7984916Y7984359D01*
X-7984526Y7980382D01*
X-7964236Y7913179D01*
X-7944649Y7845760D01*
X-7942810Y7842212D01*
X-7941655Y7838387D01*
X-7908701Y7776409D01*
X-7876390Y7714075D01*
X-7873897Y7710952D01*
X-7872020Y7707422D01*
X-7827645Y7653013D01*
X-7783852Y7598154D01*
X-7778369Y7592594D01*
X-7778274Y7592478D01*
X-7778166Y7592389D01*
X-7776401Y7590599D01*
X-5638648Y5452846D01*
X-5584392Y5408279D01*
X-5530622Y5363161D01*
X-5527121Y5361236D01*
X-5524032Y5358699D01*
X-5462180Y5325534D01*
X-5400643Y5291704D01*
X-5396831Y5290495D01*
X-5393312Y5288608D01*
X-5326216Y5268095D01*
X-5259260Y5246855D01*
X-5255288Y5246409D01*
X-5251466Y5245241D01*
X-5181642Y5238149D01*
X-5111858Y5230321D01*
X-5104043Y5230266D01*
X-5103900Y5230252D01*
X-5103767Y5230265D01*
X-5101247Y5230247D01*
X-4095598Y5230247D01*
X-4105861Y5205470D01*
X-4130264Y5082789D01*
X-4130264Y5005997D01*
X-3971514Y4847247D01*
X-2872264Y4847247D01*
X-2872264Y4867247D01*
X-2618264Y4867247D01*
X-2618264Y4847247D01*
X-2598264Y4847247D01*
X-2598264Y4593247D01*
X-2618264Y4593247D01*
X-2618264Y4573247D01*
X-2872264Y4573247D01*
X-2872264Y4593247D01*
X-3971514Y4593247D01*
X-4130264Y4434497D01*
X-4130264Y4357705D01*
X-4105861Y4235024D01*
X-4093536Y4205268D01*
X-4112680Y4203391D01*
X-4182556Y4197277D01*
X-4186389Y4196163D01*
X-4190371Y4195773D01*
X-4257615Y4175471D01*
X-4324993Y4155896D01*
X-4328541Y4154057D01*
X-4332366Y4152902D01*
X-4394363Y4119938D01*
X-4456679Y4087636D01*
X-4459800Y4085144D01*
X-4463331Y4083267D01*
X-4517746Y4038888D01*
X-4572599Y3995099D01*
X-4578159Y3989616D01*
X-4578275Y3989521D01*
X-4578364Y3989413D01*
X-4580154Y3987648D01*
X-5236401Y3331401D01*
X-5280968Y3277145D01*
X-5326086Y3223375D01*
X-5328011Y3219874D01*
X-5330548Y3216785D01*
X-5363713Y3154933D01*
X-5397543Y3093396D01*
X-5398752Y3089584D01*
X-5400639Y3086065D01*
X-5421152Y3018969D01*
X-5442392Y2952013D01*
X-5442838Y2948041D01*
X-5444006Y2944219D01*
X-5451103Y2874351D01*
X-5458926Y2804611D01*
X-5458980Y2796806D01*
X-5458996Y2796653D01*
X-5458982Y2796510D01*
X-5459000Y2794000D01*
X-5459000Y-127000D01*
X-5452149Y-196877D01*
X-5446031Y-266803D01*
X-5444916Y-270641D01*
X-5444526Y-274618D01*
X-5424236Y-341821D01*
X-5404649Y-409240D01*
X-5402810Y-412788D01*
X-5401655Y-416613D01*
X-5368701Y-478591D01*
X-5336390Y-540925D01*
X-5333897Y-544048D01*
X-5332020Y-547578D01*
X-5287645Y-601987D01*
X-5243852Y-656846D01*
X-5238369Y-662406D01*
X-5238274Y-662522D01*
X-5238166Y-662611D01*
X-5236401Y-664401D01*
X-4474401Y-1426401D01*
X-4420145Y-1470968D01*
X-4366375Y-1516086D01*
X-4362874Y-1518011D01*
X-4359785Y-1520548D01*
X-4297898Y-1553732D01*
X-4236396Y-1587543D01*
X-4232588Y-1588751D01*
X-4229065Y-1590640D01*
X-4161923Y-1611167D01*
X-4095013Y-1632392D01*
X-4091041Y-1632838D01*
X-4087219Y-1634006D01*
X-4017351Y-1641103D01*
X-3947611Y-1648926D01*
X-3939806Y-1648980D01*
X-3939653Y-1648996D01*
X-3939510Y-1648982D01*
X-3937000Y-1649000D01*
X-2284000Y-1649000D01*
X-2284000Y-4384198D01*
X-2310872Y-4411070D01*
X-2424267Y-4432701D01*
X-2594278Y-4501390D01*
X-2747709Y-4601793D01*
X-2878717Y-4730086D01*
X-2982311Y-4881381D01*
X-3054546Y-5049916D01*
X-3092669Y-5229272D01*
X-3095229Y-5412617D01*
X-3062128Y-5592968D01*
X-2994628Y-5763454D01*
X-2895299Y-5917583D01*
X-2849162Y-5965360D01*
X-3834872Y-6951070D01*
X-3948267Y-6972701D01*
X-4118278Y-7041390D01*
X-4271709Y-7141793D01*
X-4402717Y-7270086D01*
X-4506311Y-7421381D01*
X-4578546Y-7589916D01*
X-4616669Y-7769272D01*
X-4619229Y-7952617D01*
X-4586128Y-8132968D01*
X-4518628Y-8303454D01*
X-4419299Y-8457583D01*
X-4291924Y-8589484D01*
X-4141356Y-8694131D01*
X-3973329Y-8767540D01*
X-3794243Y-8806915D01*
X-3610921Y-8810755D01*
X-3430343Y-8778914D01*
X-3259390Y-8712606D01*
X-3104571Y-8614355D01*
X-2971785Y-8487904D01*
X-2866089Y-8338070D01*
X-2791508Y-8170560D01*
X-2758214Y-8024016D01*
X-635000Y-5900802D01*
X-635000Y-15131678D01*
X-635534Y-15131009D01*
X-644211Y-15122210D01*
X-4962210Y-10804210D01*
X-4963456Y-10803187D01*
X-4964475Y-10801955D01*
X-5029962Y-10748559D01*
X-5095678Y-10694579D01*
X-5097096Y-10693819D01*
X-5098338Y-10692806D01*
X-5173122Y-10653054D01*
X-5247899Y-10612959D01*
X-5249434Y-10612490D01*
X-5250852Y-10611736D01*
X-5332012Y-10587243D01*
X-5413074Y-10562460D01*
X-5414671Y-10562298D01*
X-5416208Y-10561834D01*
X-5500654Y-10553564D01*
X-5584911Y-10545006D01*
X-5586506Y-10545157D01*
X-5588107Y-10545000D01*
X-5600464Y-10545088D01*
X-14095565Y-10664737D01*
X-16226859Y-6934973D01*
X-16245575Y-6840448D01*
X-16315450Y-6670920D01*
X-16416921Y-6518193D01*
X-16546125Y-6388084D01*
X-16698140Y-6285549D01*
X-16867175Y-6214493D01*
X-17046793Y-6177623D01*
X-17230151Y-6176343D01*
X-17410267Y-6210701D01*
X-17580278Y-6279390D01*
X-17733709Y-6379793D01*
X-17864717Y-6508086D01*
X-17968311Y-6659381D01*
X-18040546Y-6827916D01*
X-18078669Y-7007272D01*
X-18081229Y-7190617D01*
X-18048128Y-7370968D01*
X-17980628Y-7541454D01*
X-17881299Y-7695583D01*
X-17757666Y-7823609D01*
X-15373395Y-11996083D01*
X-15354322Y-12022976D01*
X-15338638Y-12051974D01*
X-15304478Y-12093257D01*
X-15273476Y-12136969D01*
X-15249542Y-12159646D01*
X-15228525Y-12185045D01*
X-15186996Y-12218907D01*
X-15148095Y-12255765D01*
X-15120214Y-12273360D01*
X-15094663Y-12294194D01*
X-15047341Y-12319348D01*
X-15002027Y-12347945D01*
X-14971263Y-12359788D01*
X-14942149Y-12375264D01*
X-14890845Y-12390747D01*
X-14840838Y-12409998D01*
X-14808355Y-12415641D01*
X-14776793Y-12425166D01*
X-14723466Y-12430388D01*
X-14670665Y-12439561D01*
X-14637702Y-12438787D01*
X-14604893Y-12442000D01*
X-14592536Y-12441912D01*
X-8481940Y-12355847D01*
X-8488072Y-12399000D01*
X-8488072Y-16299000D01*
X-8480008Y-16400121D01*
X-8426894Y-16571634D01*
X-8328100Y-16721559D01*
X-8191450Y-16838025D01*
X-8027763Y-16911810D01*
X-7850000Y-16937072D01*
X-6050000Y-16937072D01*
X-5948879Y-16929008D01*
X-5777366Y-16875894D01*
X-5627441Y-16777100D01*
X-5510975Y-16640450D01*
X-5437190Y-16476763D01*
X-5411928Y-16299000D01*
X-5411928Y-12857652D01*
X-2153644Y-16115935D01*
X-2145505Y-18313705D01*
X-2172634Y-18322106D01*
X-2322559Y-18420900D01*
X-2439025Y-18557550D01*
X-2499002Y-18690604D01*
X-2537270Y-18598215D01*
X-2606763Y-18494211D01*
X-2695211Y-18405763D01*
X-2799215Y-18336270D01*
X-2914777Y-18288403D01*
X-3037458Y-18264000D01*
X-3464250Y-18264000D01*
X-3623000Y-18422750D01*
X-3623000Y-21022000D01*
X-3603000Y-21022000D01*
X-3603000Y-21276000D01*
X-3623000Y-21276000D01*
X-3623000Y-21296000D01*
X-3877000Y-21296000D01*
X-3877000Y-21276000D01*
X-4876250Y-21276000D01*
X-5035000Y-21434750D01*
X-5035000Y-23461542D01*
X-5010597Y-23584223D01*
X-4962730Y-23699785D01*
X-4920569Y-23762884D01*
X-5203465Y-23729151D01*
X-9712022Y-22264232D01*
X-13850177Y-19951495D01*
X-16513593Y-17684750D01*
X-13938000Y-17684750D01*
X-13938000Y-19461542D01*
X-13913597Y-19584223D01*
X-13865730Y-19699785D01*
X-13796237Y-19803789D01*
X-13707789Y-19892237D01*
X-13603785Y-19961730D01*
X-13488223Y-20009597D01*
X-13365542Y-20034000D01*
X-11588750Y-20034000D01*
X-11430000Y-19875250D01*
X-11430000Y-17526000D01*
X-11176000Y-17526000D01*
X-11176000Y-19875250D01*
X-11017250Y-20034000D01*
X-9240458Y-20034000D01*
X-9117777Y-20009597D01*
X-9002215Y-19961730D01*
X-8898211Y-19892237D01*
X-8809763Y-19803789D01*
X-8740270Y-19699785D01*
X-8692403Y-19584223D01*
X-8668000Y-19461542D01*
X-8668000Y-18836458D01*
X-5035000Y-18836458D01*
X-5035000Y-20863250D01*
X-4876250Y-21022000D01*
X-3877000Y-21022000D01*
X-3877000Y-18422750D01*
X-4035750Y-18264000D01*
X-4462542Y-18264000D01*
X-4585223Y-18288403D01*
X-4700785Y-18336270D01*
X-4804789Y-18405763D01*
X-4893237Y-18494211D01*
X-4962730Y-18598215D01*
X-5010597Y-18713777D01*
X-5035000Y-18836458D01*
X-8668000Y-18836458D01*
X-8668000Y-17684750D01*
X-8826750Y-17526000D01*
X-11176000Y-17526000D01*
X-11430000Y-17526000D01*
X-13779250Y-17526000D01*
X-13938000Y-17684750D01*
X-16513593Y-17684750D01*
X-17460308Y-16879033D01*
X-18682937Y-15336458D01*
X-13938000Y-15336458D01*
X-13938000Y-17113250D01*
X-13779250Y-17272000D01*
X-11430000Y-17272000D01*
X-11430000Y-14922750D01*
X-11176000Y-14922750D01*
X-11176000Y-17272000D01*
X-8826750Y-17272000D01*
X-8668000Y-17113250D01*
X-8668000Y-15336458D01*
X-8692403Y-15213777D01*
X-8740270Y-15098215D01*
X-8809763Y-14994211D01*
X-8898211Y-14905763D01*
X-9002215Y-14836270D01*
X-9117777Y-14788403D01*
X-9240458Y-14764000D01*
X-11017250Y-14764000D01*
X-11176000Y-14922750D01*
X-11430000Y-14922750D01*
X-11588750Y-14764000D01*
X-13365542Y-14764000D01*
X-13488223Y-14788403D01*
X-13603785Y-14836270D01*
X-13707789Y-14905763D01*
X-13796237Y-14994211D01*
X-13865730Y-15098215D01*
X-13913597Y-15213777D01*
X-13938000Y-15336458D01*
X-18682937Y-15336458D01*
X-20404907Y-13163873D01*
X-22571815Y-8947526D01*
X-23878495Y-4390591D01*
X-24275176Y333360D01*
X-23746749Y5044394D01*
X-22313341Y9563068D01*
X-21515387Y11014542D01*
X-7127000Y11014542D01*
X-7127000Y10887750D01*
X-6968250Y10729000D01*
X-5969000Y10729000D01*
X-5969000Y11428250D01*
X-6030000Y11489250D01*
X-6030000Y12446000D01*
X-6729250Y12446000D01*
X-6888000Y12287250D01*
X-6888000Y11860458D01*
X-6863597Y11737777D01*
X-6815730Y11622215D01*
X-6754506Y11530586D01*
X-6792785Y11514730D01*
X-6896789Y11445237D01*
X-6985237Y11356789D01*
X-7054730Y11252785D01*
X-7102597Y11137223D01*
X-7127000Y11014542D01*
X-21515387Y11014542D01*
X-20266895Y13285542D01*
X-6888000Y13285542D01*
X-6888000Y12858750D01*
X-6729250Y12700000D01*
X-6030000Y12700000D01*
X-6030000Y13699250D01*
X-6188750Y13858000D01*
X-6315542Y13858000D01*
X-6438223Y13833597D01*
X-6553785Y13785730D01*
X-6657789Y13716237D01*
X-6746237Y13627789D01*
X-6815730Y13523785D01*
X-6863597Y13408223D01*
X-6888000Y13285542D01*
X-20266895Y13285542D01*
X-20029551Y13717268D01*
X-19628896Y14194750D01*
X-9286000Y14194750D01*
X-9286000Y14067958D01*
X-9261597Y13945277D01*
X-9213730Y13829715D01*
X-9144237Y13725711D01*
X-9055789Y13637263D01*
X-8951785Y13567770D01*
X-8836223Y13519903D01*
X-8713542Y13495500D01*
X-8286750Y13495500D01*
X-8128000Y13654250D01*
X-8128000Y14353500D01*
X-7874000Y14353500D01*
X-7874000Y13654250D01*
X-7715250Y13495500D01*
X-7288458Y13495500D01*
X-7165777Y13519903D01*
X-7050215Y13567770D01*
X-6946211Y13637263D01*
X-6857763Y13725711D01*
X-6788270Y13829715D01*
X-6740403Y13945277D01*
X-6716000Y14067958D01*
X-6716000Y14194750D01*
X-6874750Y14353500D01*
X-7874000Y14353500D01*
X-8128000Y14353500D01*
X-9127250Y14353500D01*
X-9286000Y14194750D01*
X-19628896Y14194750D01*
X-16982367Y17348760D01*
X-13287855Y20319224D01*
X-9086738Y22515515D01*
X-4539036Y23853976D01*
X-4191000Y23885650D01*
X-4191000Y17621072D01*
M02*
