G04 #@! TF.FileFunction,Legend,Top*
%FSLAX46Y46*%
G04 Gerber Fmt 4.6, Leading zero omitted, Abs format (unit mm)*
G04 Created by KiCad (PCBNEW 4.0.6) date 03/19/17 21:35:25*
%MOMM*%
%LPD*%
G01*
G04 APERTURE LIST*
%ADD10C,0.100000*%
%ADD11C,0.300000*%
%ADD12C,0.200000*%
%ADD13C,0.120000*%
%ADD14C,0.150000*%
G04 APERTURE END LIST*
D10*
D11*
X11112643Y18371500D02*
X11041215Y18442929D01*
X10898358Y18657214D01*
X10826929Y18800071D01*
X10755500Y19014357D01*
X10684072Y19371500D01*
X10684072Y19657214D01*
X10755500Y20014357D01*
X10826929Y20228643D01*
X10898358Y20371500D01*
X11041215Y20585786D01*
X11112643Y20657214D01*
X11684072Y19514357D02*
X12826929Y19514357D01*
X13398358Y18371500D02*
X13469786Y18442929D01*
X13612643Y18657214D01*
X13684072Y18800071D01*
X13755501Y19014357D01*
X13826929Y19371500D01*
X13826929Y19657214D01*
X13755501Y20014357D01*
X13684072Y20228643D01*
X13612643Y20371500D01*
X13469786Y20585786D01*
X13398358Y20657214D01*
X-13398357Y18181000D02*
X-13469785Y18252429D01*
X-13612642Y18466714D01*
X-13684071Y18609571D01*
X-13755500Y18823857D01*
X-13826928Y19181000D01*
X-13826928Y19466714D01*
X-13755500Y19823857D01*
X-13684071Y20038143D01*
X-13612642Y20181000D01*
X-13469785Y20395286D01*
X-13398357Y20466714D01*
X-12826928Y19323857D02*
X-11684071Y19323857D01*
X-12255500Y18752429D02*
X-12255500Y19895286D01*
X-11112642Y18181000D02*
X-11041214Y18252429D01*
X-10898357Y18466714D01*
X-10826928Y18609571D01*
X-10755499Y18823857D01*
X-10684071Y19181000D01*
X-10684071Y19466714D01*
X-10755499Y19823857D01*
X-10826928Y20038143D01*
X-10898357Y20181000D01*
X-11041214Y20395286D01*
X-11112642Y20466714D01*
X-5624001Y15140714D02*
X-5552572Y15212143D01*
X-5338286Y15283571D01*
X-5195429Y15283571D01*
X-4981144Y15212143D01*
X-4838286Y15069286D01*
X-4766858Y14926429D01*
X-4695429Y14640714D01*
X-4695429Y14426429D01*
X-4766858Y14140714D01*
X-4838286Y13997857D01*
X-4981144Y13855000D01*
X-5195429Y13783571D01*
X-5338286Y13783571D01*
X-5552572Y13855000D01*
X-5624001Y13926429D01*
X-6838286Y15212143D02*
X-6695429Y15283571D01*
X-6409715Y15283571D01*
X-6266858Y15212143D01*
X-6195429Y15069286D01*
X-6195429Y14497857D01*
X-6266858Y14355000D01*
X-6409715Y14283571D01*
X-6695429Y14283571D01*
X-6838286Y14355000D01*
X-6909715Y14497857D01*
X-6909715Y14640714D01*
X-6195429Y14783571D01*
X-7766858Y15283571D02*
X-7624000Y15212143D01*
X-7552572Y15069286D01*
X-7552572Y13783571D01*
X-8552572Y15283571D02*
X-8409714Y15212143D01*
X-8338286Y15069286D01*
X-8338286Y13783571D01*
X-10195428Y13926429D02*
X-10266857Y13855000D01*
X-10409714Y13783571D01*
X-10766857Y13783571D01*
X-10909714Y13855000D01*
X-10981143Y13926429D01*
X-11052571Y14069286D01*
X-11052571Y14212143D01*
X-10981143Y14426429D01*
X-10124000Y15283571D01*
X-11052571Y15283571D01*
X16039442Y-2914913D02*
X16065587Y-3012487D01*
X16020303Y-3233778D01*
X15948874Y-3357496D01*
X15779873Y-3507358D01*
X15584726Y-3559648D01*
X15425295Y-3550078D01*
X15142144Y-3469080D01*
X14956567Y-3361938D01*
X14744846Y-3157221D01*
X14656842Y-3023934D01*
X14604553Y-2828787D01*
X14649836Y-2607496D01*
X14721265Y-2483778D01*
X14890267Y-2333916D01*
X14987841Y-2307771D01*
X16708444Y-1899026D02*
X16698874Y-2058458D01*
X16556017Y-2305894D01*
X16422730Y-2393897D01*
X16263298Y-2384328D01*
X15768426Y-2098614D01*
X15680423Y-1965326D01*
X15689992Y-1805894D01*
X15832849Y-1558458D01*
X15966137Y-1470455D01*
X16125569Y-1480024D01*
X16249287Y-1551452D01*
X16015862Y-2241471D01*
X17234589Y-1130573D02*
X17101301Y-1218578D01*
X16941869Y-1209008D01*
X15828408Y-566150D01*
X17627446Y-450125D02*
X17494158Y-538130D01*
X17334726Y-528560D01*
X16221265Y114298D01*
X17114122Y1660772D02*
X17578407Y2464938D01*
X17823279Y1746211D01*
X17930422Y1931788D01*
X18063710Y2019791D01*
X18161283Y2045936D01*
X18320715Y2036366D01*
X18630010Y1857795D01*
X18718013Y1724508D01*
X18744158Y1626934D01*
X18734588Y1467502D01*
X18520302Y1096348D01*
X18387015Y1008344D01*
X18289442Y982200D01*
X-10732941Y-12035301D02*
X-10830515Y-12009156D01*
X-10999517Y-11859293D01*
X-11070945Y-11735575D01*
X-11116229Y-11514285D01*
X-11063940Y-11319138D01*
X-10975937Y-11185851D01*
X-10764215Y-10981134D01*
X-10578638Y-10873991D01*
X-10295488Y-10792993D01*
X-10136056Y-10783423D01*
X-9940909Y-10835713D01*
X-9771907Y-10985575D01*
X-9700479Y-11109293D01*
X-9655195Y-11330584D01*
X-9681340Y-11428158D01*
X-10187658Y-13122617D02*
X-10320945Y-13034613D01*
X-10463802Y-12787177D01*
X-10473372Y-12627746D01*
X-10385369Y-12494458D01*
X-9890497Y-12208743D01*
X-9731065Y-12199174D01*
X-9597777Y-12287177D01*
X-9454920Y-12534613D01*
X-9445351Y-12694045D01*
X-9533354Y-12827333D01*
X-9657072Y-12898762D01*
X-10137933Y-12351600D01*
X-9785231Y-13962498D02*
X-9794801Y-13803065D01*
X-9706797Y-13669778D01*
X-8593336Y-13026921D01*
X-9392374Y-14642946D02*
X-9401944Y-14483513D01*
X-9313940Y-14350226D01*
X-8200479Y-13707369D01*
X-8142374Y-16808009D02*
X-8570946Y-16065701D01*
X-8356660Y-16436855D02*
X-7057622Y-15686855D01*
X-7314627Y-15670281D01*
X-7509774Y-15617990D01*
X-7643062Y-15529987D01*
D12*
X12456Y-5781D02*
X12456Y-25005781D01*
X12456Y-5781D02*
X21663091Y12494219D01*
X12456Y-5781D02*
X-21638179Y12494219D01*
D13*
X10128000Y22701000D02*
X10128000Y18701000D01*
X6128000Y18701000D02*
X10128000Y18701000D01*
X6128000Y22701000D02*
X6128000Y18701000D01*
X6128000Y22701000D02*
X10128000Y22701000D01*
D14*
X-15361534Y-5205922D02*
X-15336534Y-5249223D01*
X-11767528Y-3130922D02*
X-11695028Y-3256495D01*
X-9192528Y-7590952D02*
X-9265028Y-7465379D01*
X-12786534Y-9665952D02*
X-12859034Y-9540379D01*
X-15361534Y-5205922D02*
X-11767528Y-3130922D01*
X-12786534Y-9665952D02*
X-9192528Y-7590952D01*
X-15336534Y-5249223D02*
X-16548969Y-5949223D01*
X12319848Y-10524751D02*
X12344848Y-10481450D01*
X8725842Y-8449751D02*
X8798342Y-8324178D01*
X11300842Y-3989721D02*
X11228342Y-4115294D01*
X14894848Y-6064721D02*
X14822348Y-6190294D01*
X12319848Y-10524751D02*
X8725842Y-8449751D01*
X14894848Y-6064721D02*
X11300842Y-3989721D01*
X12344848Y-10481450D02*
X13557283Y-11181450D01*
X7239848Y-19323569D02*
X7264848Y-19280268D01*
X3645842Y-17248569D02*
X3718342Y-17122996D01*
X6220842Y-12788539D02*
X6148342Y-12914112D01*
X9814848Y-14863539D02*
X9742348Y-14989112D01*
X7239848Y-19323569D02*
X3645842Y-17248569D01*
X9814848Y-14863539D02*
X6220842Y-12788539D01*
X7264848Y-19280268D02*
X8477283Y-19980268D01*
D13*
X-7610910Y-4980396D02*
X-6810910Y-6366036D01*
X-6810910Y-6366036D02*
X-4559244Y-5066036D01*
X-7610910Y-4980396D02*
X-5359244Y-3680396D01*
X-455101Y9077446D02*
X-2055101Y9077446D01*
X-2055101Y9077446D02*
X-2055101Y6477446D01*
X-455101Y9077446D02*
X-455101Y6477446D01*
X8249225Y-3925278D02*
X9049225Y-2539638D01*
X9049225Y-2539638D02*
X6797559Y-1239638D01*
X8249225Y-3925278D02*
X5997559Y-2625278D01*
D14*
X3224900Y15902446D02*
X3174900Y15902446D01*
X3224900Y11752446D02*
X3079900Y11752446D01*
X-1925100Y11752446D02*
X-1780100Y11752446D01*
X-1925100Y15902446D02*
X-1780100Y15902446D01*
X3224900Y15902446D02*
X3224900Y11752446D01*
X-1925100Y15902446D02*
X-1925100Y11752446D01*
X3174900Y15902446D02*
X3174900Y17302446D01*
X-20759032Y4142821D02*
X-20734032Y4099520D01*
X-17165026Y6217821D02*
X-17092526Y6092248D01*
X-14590026Y1757791D02*
X-14662526Y1883364D01*
X-18184032Y-317209D02*
X-18256532Y-191636D01*
X-20759032Y4142821D02*
X-17165026Y6217821D01*
X-18184032Y-317209D02*
X-14590026Y1757791D01*
X-20734032Y4099520D02*
X-21946467Y3399520D01*
X14019899Y15902447D02*
X13969899Y15902447D01*
X14019899Y11752447D02*
X13874899Y11752447D01*
X8869899Y11752447D02*
X9014899Y11752447D01*
X8869899Y15902447D02*
X9014899Y15902447D01*
X14019899Y15902447D02*
X14019899Y11752447D01*
X8869899Y15902447D02*
X8869899Y11752447D01*
X13969899Y15902447D02*
X13969899Y17302447D01*
D13*
X-10944115Y392885D02*
X-11444115Y1258911D01*
X-8326423Y3058911D02*
X-7826423Y2192885D01*
X5864899Y9277447D02*
X6864899Y9277447D01*
X6864899Y5677447D02*
X5864899Y5677447D01*
X5579930Y-8948632D02*
X5079930Y-9814658D01*
X1962238Y-8014658D02*
X2462238Y-7148632D01*
X-6429460Y-7906725D02*
X-7295486Y-8406725D01*
X-6445486Y-9878969D02*
X-5579460Y-9378969D01*
X-13476739Y489520D02*
X-14342765Y-10480D01*
X-13492765Y-1482724D02*
X-12626739Y-982724D01*
X-3580101Y9517446D02*
X-3580101Y10517446D01*
X-5280101Y10517446D02*
X-5280101Y9517446D01*
X7200000Y10930000D02*
X7200000Y11930000D01*
X5500000Y11930000D02*
X5500000Y10930000D01*
X10192776Y-1438949D02*
X11058802Y-1938949D01*
X11908802Y-466705D02*
X11042776Y33295D01*
X6762554Y-11190267D02*
X7628580Y-11690267D01*
X8478580Y-10218023D02*
X7612554Y-9718023D01*
X-8974722Y-3718201D02*
X-9574722Y-2678971D01*
X-8050518Y-1798971D02*
X-7450518Y-2838201D01*
X-6225092Y-2130700D02*
X-6825092Y-1091470D01*
X-5300888Y-211470D02*
X-4700888Y-1250700D01*
X-15824694Y-2863704D02*
X-16863924Y-3463704D01*
X-17743924Y-1939500D02*
X-16704694Y-1339500D01*
X-17603393Y-11632905D02*
X-18203393Y-10593675D01*
X-16679189Y-9713675D02*
X-16079189Y-10752905D01*
X-15698393Y-14932461D02*
X-16298393Y-13893231D01*
X-14774189Y-13013231D02*
X-14174189Y-14052461D01*
X-19508393Y-8333348D02*
X-20108393Y-7294118D01*
X-18584189Y-6414118D02*
X-17984189Y-7453348D01*
X1319899Y9627447D02*
X2519899Y9627447D01*
X2519899Y7867447D02*
X1319899Y7867447D01*
X1319899Y6452446D02*
X2519899Y6452446D01*
X2519899Y4692446D02*
X1319899Y4692446D01*
X5470000Y14513000D02*
X5470000Y15713000D01*
X7230000Y15713000D02*
X7230000Y14513000D01*
X-1220101Y21057446D02*
X-20101Y21057446D01*
X-20101Y19297446D02*
X-1220101Y19297446D01*
X-5030101Y21057446D02*
X-3830101Y21057446D01*
X-3830101Y19297446D02*
X-5030101Y19297446D01*
X2589899Y21057446D02*
X3789899Y21057446D01*
X3789899Y19297446D02*
X2589899Y19297446D01*
X7838038Y-5737474D02*
X7238038Y-6776704D01*
X5713834Y-5896704D02*
X6313834Y-4857474D01*
X5088408Y-4149974D02*
X4488408Y-5189204D01*
X2964204Y-4309204D02*
X3564204Y-3269974D01*
X10840509Y-11547043D02*
X11879739Y-12147043D01*
X10999739Y-13671247D02*
X9960509Y-13071247D01*
X19006709Y-9252769D02*
X18406709Y-10291999D01*
X16882505Y-9411999D02*
X17482505Y-8372769D01*
X20911709Y-5953212D02*
X20311709Y-6992442D01*
X18787505Y-6112442D02*
X19387505Y-5073212D01*
X17101709Y-12552326D02*
X16501709Y-13591556D01*
X14977505Y-12711556D02*
X15577505Y-11672326D01*
X-6128000Y22701000D02*
X-6128000Y18701000D01*
X-10128000Y18701000D02*
X-6128000Y18701000D01*
X-10128000Y22701000D02*
X-10128000Y18701000D01*
X-10128000Y22701000D02*
X-6128000Y22701000D01*
X-14263782Y7877846D02*
X-15476218Y7177846D01*
X-15476218Y7177846D02*
X-14076218Y4752975D01*
X-14263782Y7877846D02*
X-12863782Y5452975D01*
X14055500Y8444000D02*
X14055500Y9844000D01*
X14055500Y9844000D02*
X11255500Y9844000D01*
X14055500Y8444000D02*
X11255500Y8444000D01*
X779782Y-15559846D02*
X1992218Y-16259846D01*
X1992218Y-16259846D02*
X3392218Y-13834975D01*
X779782Y-15559846D02*
X2179782Y-13134975D01*
X-10586898Y5658615D02*
X-9986898Y4619385D01*
X-11511102Y3739385D02*
X-12111102Y4778615D01*
X10442500Y6549500D02*
X9242500Y6549500D01*
X9242500Y8309500D02*
X10442500Y8309500D01*
X652398Y-11636615D02*
X1252398Y-10597385D01*
X2776602Y-11477385D02*
X2176602Y-12516615D01*
D14*
X4619667Y22518619D02*
X4619667Y21804333D01*
X4572047Y21661476D01*
X4476809Y21566238D01*
X4333952Y21518619D01*
X4238714Y21518619D01*
X5000619Y22518619D02*
X5619667Y22518619D01*
X5286333Y22137667D01*
X5429191Y22137667D01*
X5524429Y22090048D01*
X5572048Y22042429D01*
X5619667Y21947190D01*
X5619667Y21709095D01*
X5572048Y21613857D01*
X5524429Y21566238D01*
X5429191Y21518619D01*
X5143476Y21518619D01*
X5048238Y21566238D01*
X5000619Y21613857D01*
X-14646246Y-4247216D02*
X-15146246Y-3381191D01*
X-13786600Y-3640928D02*
X-13804030Y-3705977D01*
X-13903938Y-3818645D01*
X-13986417Y-3866264D01*
X-14133945Y-3896454D01*
X-14264042Y-3861594D01*
X-14352901Y-3802925D01*
X-14489378Y-3661778D01*
X-14560807Y-3538059D01*
X-14614806Y-3349292D01*
X-14621185Y-3243004D01*
X-14586326Y-3112907D01*
X-14486417Y-3000239D01*
X-14403938Y-2952620D01*
X-14256411Y-2922430D01*
X-14191362Y-2939860D01*
X-13861448Y-2749384D02*
X-13844018Y-2684335D01*
X-13785349Y-2595477D01*
X-13579152Y-2476429D01*
X-13472864Y-2470049D01*
X-13407815Y-2487479D01*
X-13318957Y-2546148D01*
X-13271338Y-2628627D01*
X-13241149Y-2776154D01*
X-13450306Y-3556740D01*
X-12914195Y-3247216D01*
X8988749Y-10192003D02*
X9488749Y-9325978D01*
X9943633Y-10633334D02*
X9878584Y-10650764D01*
X9731057Y-10620575D01*
X9648578Y-10572956D01*
X9548669Y-10460288D01*
X9513810Y-10330190D01*
X9520189Y-10223902D01*
X9574188Y-10035136D01*
X9645617Y-9911417D01*
X9782094Y-9770269D01*
X9870953Y-9711600D01*
X10001050Y-9676741D01*
X10148578Y-9706931D01*
X10231057Y-9754550D01*
X10330965Y-9867217D01*
X10348395Y-9932266D01*
X10971655Y-10567034D02*
X10638321Y-11144384D01*
X10955934Y-10118072D02*
X10392594Y-10617614D01*
X10928706Y-10927138D01*
X4624057Y-19513776D02*
X4565388Y-19424918D01*
X4530528Y-19294820D01*
X4478239Y-19099674D01*
X4419569Y-19010815D01*
X4337091Y-18963196D01*
X4259282Y-19193202D02*
X4200613Y-19104344D01*
X4165754Y-18974246D01*
X4219753Y-18785480D01*
X4386420Y-18496804D01*
X4522897Y-18355656D01*
X4652994Y-18320797D01*
X4759282Y-18327177D01*
X4924240Y-18422415D01*
X4982909Y-18511273D01*
X5017769Y-18641371D01*
X4963770Y-18830137D01*
X4797103Y-19118813D01*
X4660626Y-19259961D01*
X4530528Y-19294820D01*
X4424240Y-19288440D01*
X4259282Y-19193202D01*
X5706078Y-19258709D02*
X5372744Y-19836059D01*
X5690357Y-18809747D02*
X5127017Y-19309289D01*
X5663129Y-19618813D01*
X-5438288Y-7019678D02*
X-5938288Y-6153653D01*
X-5732091Y-6034605D01*
X-5584563Y-6004415D01*
X-5454466Y-6039275D01*
X-5365607Y-6097944D01*
X-5229130Y-6239091D01*
X-5157701Y-6362810D01*
X-5103702Y-6551577D01*
X-5097323Y-6657865D01*
X-5132182Y-6787962D01*
X-5232091Y-6900630D01*
X-5438288Y-7019678D01*
X-4118629Y-6257773D02*
X-4613501Y-6543487D01*
X-4366066Y-6400630D02*
X-4866066Y-5534605D01*
X-4877116Y-5705942D01*
X-4911975Y-5836039D01*
X-4970644Y-5924898D01*
X-2402720Y6739351D02*
X-3402720Y6739351D01*
X-3402720Y6977446D01*
X-3355101Y7120304D01*
X-3259863Y7215542D01*
X-3164625Y7263161D01*
X-2974149Y7310780D01*
X-2831291Y7310780D01*
X-2640815Y7263161D01*
X-2545577Y7215542D01*
X-2450339Y7120304D01*
X-2402720Y6977446D01*
X-2402720Y6739351D01*
X-3307482Y7691732D02*
X-3355101Y7739351D01*
X-3402720Y7834589D01*
X-3402720Y8072685D01*
X-3355101Y8167923D01*
X-3307482Y8215542D01*
X-3212244Y8263161D01*
X-3117006Y8263161D01*
X-2974149Y8215542D01*
X-2402720Y7644113D01*
X-2402720Y8263161D01*
X7198184Y-1069543D02*
X7698184Y-203518D01*
X7904381Y-322565D01*
X8004290Y-435233D01*
X8039149Y-565331D01*
X8032770Y-671619D01*
X7978771Y-860385D01*
X7907342Y-984104D01*
X7770865Y-1125252D01*
X7682006Y-1183921D01*
X7551909Y-1218780D01*
X7404381Y-1188590D01*
X7198184Y-1069543D01*
X8481731Y-655899D02*
X9017843Y-965423D01*
X8538691Y-1128670D01*
X8662410Y-1200099D01*
X8721079Y-1288957D01*
X8738508Y-1354006D01*
X8732128Y-1460295D01*
X8613081Y-1666491D01*
X8524222Y-1725160D01*
X8459174Y-1742590D01*
X8352886Y-1736210D01*
X8105449Y-1593352D01*
X8046780Y-1504494D01*
X8029350Y-1439445D01*
X4602281Y12851256D02*
X3602281Y12851256D01*
X4507043Y13898875D02*
X4554662Y13851256D01*
X4602281Y13708399D01*
X4602281Y13613161D01*
X4554662Y13470303D01*
X4459424Y13375065D01*
X4364186Y13327446D01*
X4173710Y13279827D01*
X4030852Y13279827D01*
X3840376Y13327446D01*
X3745138Y13375065D01*
X3649900Y13470303D01*
X3602281Y13613161D01*
X3602281Y13708399D01*
X3649900Y13851256D01*
X3697519Y13898875D01*
X3602281Y14232208D02*
X3602281Y14851256D01*
X3983233Y14517922D01*
X3983233Y14660780D01*
X4030852Y14756018D01*
X4078471Y14803637D01*
X4173710Y14851256D01*
X4411805Y14851256D01*
X4507043Y14803637D01*
X4554662Y14756018D01*
X4602281Y14660780D01*
X4602281Y14375065D01*
X4554662Y14279827D01*
X4507043Y14232208D01*
X-19233198Y5459524D02*
X-19339486Y5453144D01*
X-19469584Y5488004D01*
X-19664730Y5540293D01*
X-19771019Y5533913D01*
X-19853497Y5486294D01*
X-19693211Y5303907D02*
X-19799499Y5297527D01*
X-19929596Y5332387D01*
X-20066073Y5473534D01*
X-20232740Y5762210D01*
X-20286739Y5950977D01*
X-20251880Y6081074D01*
X-20193211Y6169932D01*
X-20028253Y6265171D01*
X-19921965Y6271551D01*
X-19791867Y6236691D01*
X-19655390Y6095544D01*
X-19488723Y5806868D01*
X-19434724Y5618101D01*
X-19469584Y5488004D01*
X-19528253Y5399146D01*
X-19693211Y5303907D01*
X-19444523Y6492216D02*
X-19427093Y6557265D01*
X-19368424Y6646123D01*
X-19162227Y6765171D01*
X-19055939Y6771551D01*
X-18990890Y6754121D01*
X-18902032Y6695452D01*
X-18854413Y6612973D01*
X-18824224Y6465446D01*
X-19033381Y5684860D01*
X-18497270Y5994384D01*
X15492518Y13732209D02*
X15444899Y13636971D01*
X15349661Y13541733D01*
X15206804Y13398876D01*
X15159185Y13303637D01*
X15159185Y13208399D01*
X15397280Y13256018D02*
X15349661Y13160780D01*
X15254423Y13065542D01*
X15063947Y13017923D01*
X14730613Y13017923D01*
X14540137Y13065542D01*
X14444899Y13160780D01*
X14397280Y13256018D01*
X14397280Y13446495D01*
X14444899Y13541733D01*
X14540137Y13636971D01*
X14730613Y13684590D01*
X15063947Y13684590D01*
X15254423Y13636971D01*
X15349661Y13541733D01*
X15397280Y13446495D01*
X15397280Y13256018D01*
X14397280Y14017923D02*
X14397280Y14636971D01*
X14778232Y14303637D01*
X14778232Y14446495D01*
X14825851Y14541733D01*
X14873470Y14589352D01*
X14968709Y14636971D01*
X15206804Y14636971D01*
X15302042Y14589352D01*
X15349661Y14541733D01*
X15397280Y14446495D01*
X15397280Y14160780D01*
X15349661Y14065542D01*
X15302042Y14017923D01*
X-7772106Y2994044D02*
X-7526380Y3520816D01*
X-8057821Y3488917D02*
X-7191796Y3988917D01*
X-7001319Y3659002D01*
X-6994939Y3552714D01*
X-7012369Y3487665D01*
X-7071038Y3398806D01*
X-7194756Y3327378D01*
X-7301044Y3320998D01*
X-7366093Y3338428D01*
X-7454951Y3397097D01*
X-7645427Y3727012D01*
X-6453700Y2710498D02*
X-6691796Y3122891D01*
X-7127998Y2926035D01*
X-7062949Y2908606D01*
X-6974091Y2849937D01*
X-6855043Y2643739D01*
X-6848663Y2537451D01*
X-6866093Y2472403D01*
X-6924763Y2383544D01*
X-7130959Y2264496D01*
X-7237247Y2258117D01*
X-7302296Y2275546D01*
X-7391154Y2334215D01*
X-7510202Y2540413D01*
X-7516582Y2646701D01*
X-7499152Y2711749D01*
X5722042Y4325066D02*
X5388708Y4801257D01*
X5150613Y4325066D02*
X5150613Y5325066D01*
X5531566Y5325066D01*
X5626804Y5277447D01*
X5674423Y5229828D01*
X5722042Y5134590D01*
X5722042Y4991733D01*
X5674423Y4896495D01*
X5626804Y4848876D01*
X5531566Y4801257D01*
X5150613Y4801257D01*
X6674423Y4325066D02*
X6102994Y4325066D01*
X6388708Y4325066D02*
X6388708Y5325066D01*
X6293470Y5182209D01*
X6198232Y5086971D01*
X6102994Y5039352D01*
X7055375Y5229828D02*
X7102994Y5277447D01*
X7198232Y5325066D01*
X7436328Y5325066D01*
X7531566Y5277447D01*
X7579185Y5229828D01*
X7626804Y5134590D01*
X7626804Y5039352D01*
X7579185Y4896495D01*
X7007756Y4325066D01*
X7626804Y4325066D01*
X1503160Y-7914566D02*
X924099Y-7965146D01*
X1217445Y-8409438D02*
X351420Y-7909438D01*
X541897Y-7579523D01*
X630755Y-7520854D01*
X695804Y-7503424D01*
X802092Y-7509804D01*
X925809Y-7581232D01*
X984478Y-7670091D01*
X1001908Y-7735140D01*
X995528Y-7841428D01*
X805052Y-8171343D01*
X1979350Y-7089780D02*
X1693636Y-7584652D01*
X1836493Y-7337216D02*
X970468Y-6837216D01*
X1046566Y-6991123D01*
X1081426Y-7121221D01*
X1075046Y-7227509D01*
X2217445Y-6677387D02*
X2312683Y-6512430D01*
X2319064Y-6406141D01*
X2301634Y-6341093D01*
X2225535Y-6187185D01*
X2084388Y-6050708D01*
X1754473Y-5860232D01*
X1648185Y-5853852D01*
X1583136Y-5871282D01*
X1494278Y-5929951D01*
X1399039Y-6094909D01*
X1392659Y-6201197D01*
X1410089Y-6266245D01*
X1468758Y-6355104D01*
X1674954Y-6474151D01*
X1781242Y-6480531D01*
X1846292Y-6463102D01*
X1935150Y-6404433D01*
X2030389Y-6239475D01*
X2036769Y-6133187D01*
X2019338Y-6068137D01*
X1960669Y-5979279D01*
X-7153238Y-7986437D02*
X-7170668Y-8051486D01*
X-7270577Y-8164153D01*
X-7353055Y-8211772D01*
X-7500583Y-8241962D01*
X-7630681Y-8207103D01*
X-7719539Y-8148434D01*
X-7856016Y-8007286D01*
X-7927445Y-7883567D01*
X-7981444Y-7694801D01*
X-7987824Y-7588513D01*
X-7952964Y-7458415D01*
X-7853055Y-7345747D01*
X-7770577Y-7298128D01*
X-7623049Y-7267939D01*
X-7558000Y-7285369D01*
X-6280833Y-7592725D02*
X-6775705Y-7878439D01*
X-6528270Y-7735582D02*
X-7028270Y-6869557D01*
X-7039320Y-7040894D01*
X-7074179Y-7170991D01*
X-7132848Y-7259850D01*
X-14200517Y409808D02*
X-14217947Y344759D01*
X-14317856Y232092D01*
X-14400334Y184473D01*
X-14547862Y154283D01*
X-14677960Y189142D01*
X-14766818Y247811D01*
X-14903295Y388959D01*
X-14974724Y512678D01*
X-15028723Y701444D01*
X-15035103Y807732D01*
X-15000243Y937830D01*
X-14900334Y1050498D01*
X-14817856Y1098117D01*
X-14670328Y1128306D01*
X-14605279Y1110876D01*
X-14275365Y1301352D02*
X-14257936Y1366401D01*
X-14199267Y1455259D01*
X-13993069Y1574307D01*
X-13886781Y1580687D01*
X-13821733Y1563257D01*
X-13732874Y1504588D01*
X-13685255Y1422110D01*
X-13655066Y1274583D01*
X-13864224Y493996D01*
X-13328112Y803520D01*
X-2572958Y9850780D02*
X-2525339Y9803161D01*
X-2477720Y9660304D01*
X-2477720Y9565066D01*
X-2525339Y9422208D01*
X-2620577Y9326970D01*
X-2715815Y9279351D01*
X-2906291Y9231732D01*
X-3049149Y9231732D01*
X-3239625Y9279351D01*
X-3334863Y9326970D01*
X-3430101Y9422208D01*
X-3477720Y9565066D01*
X-3477720Y9660304D01*
X-3430101Y9803161D01*
X-3382482Y9850780D01*
X-3477720Y10184113D02*
X-3477720Y10803161D01*
X-3096768Y10469827D01*
X-3096768Y10612685D01*
X-3049149Y10707923D01*
X-3001530Y10755542D01*
X-2906291Y10803161D01*
X-2668196Y10803161D01*
X-2572958Y10755542D01*
X-2525339Y10707923D01*
X-2477720Y10612685D01*
X-2477720Y10326970D01*
X-2525339Y10231732D01*
X-2572958Y10184113D01*
X8207143Y11263334D02*
X8254762Y11215715D01*
X8302381Y11072858D01*
X8302381Y10977620D01*
X8254762Y10834762D01*
X8159524Y10739524D01*
X8064286Y10691905D01*
X7873810Y10644286D01*
X7730952Y10644286D01*
X7540476Y10691905D01*
X7445238Y10739524D01*
X7350000Y10834762D01*
X7302381Y10977620D01*
X7302381Y11072858D01*
X7350000Y11215715D01*
X7397619Y11263334D01*
X7635714Y12120477D02*
X8302381Y12120477D01*
X7254762Y11882381D02*
X7969048Y11644286D01*
X7969048Y12263334D01*
X9977881Y-2477827D02*
X9912832Y-2495257D01*
X9765304Y-2465067D01*
X9682826Y-2417448D01*
X9582917Y-2304780D01*
X9548057Y-2174683D01*
X9554437Y-2068395D01*
X9608436Y-1879628D01*
X9679865Y-1755909D01*
X9816342Y-1614762D01*
X9905200Y-1556093D01*
X10035298Y-1521233D01*
X10182826Y-1551423D01*
X10265304Y-1599042D01*
X10365213Y-1711710D01*
X10382643Y-1776759D01*
X11213808Y-2146661D02*
X10801415Y-1908566D01*
X10522081Y-2297149D01*
X10587129Y-2279719D01*
X10693417Y-2286099D01*
X10899615Y-2405147D01*
X10958284Y-2494005D01*
X10975713Y-2559054D01*
X10969333Y-2665343D01*
X10850286Y-2871539D01*
X10761427Y-2930208D01*
X10696379Y-2947638D01*
X10590091Y-2941258D01*
X10383893Y-2822210D01*
X10325224Y-2733352D01*
X10307795Y-2668303D01*
X6547659Y-12229145D02*
X6482610Y-12246575D01*
X6335082Y-12216385D01*
X6252604Y-12168766D01*
X6152695Y-12056098D01*
X6117835Y-11926001D01*
X6124215Y-11819713D01*
X6178214Y-11630946D01*
X6249643Y-11507227D01*
X6386120Y-11366080D01*
X6474978Y-11307411D01*
X6605076Y-11272551D01*
X6752604Y-11302741D01*
X6835082Y-11350360D01*
X6934991Y-11463028D01*
X6952421Y-11528077D01*
X7742347Y-11874170D02*
X7577389Y-11778931D01*
X7471101Y-11772551D01*
X7406052Y-11789981D01*
X7252145Y-11866080D01*
X7115668Y-12007227D01*
X6925192Y-12337142D01*
X6918812Y-12443430D01*
X6936242Y-12508479D01*
X6994911Y-12597337D01*
X7159869Y-12692576D01*
X7266157Y-12698956D01*
X7331205Y-12681526D01*
X7420064Y-12622857D01*
X7539111Y-12416661D01*
X7545491Y-12310372D01*
X7528062Y-12245323D01*
X7469393Y-12156465D01*
X7304435Y-12061226D01*
X7198147Y-12054846D01*
X7133098Y-12072276D01*
X7044239Y-12130946D01*
X-7558784Y-2015440D02*
X-7313058Y-1488668D01*
X-7844499Y-1520567D02*
X-6978474Y-1020567D01*
X-6787997Y-1350482D01*
X-6781617Y-1456770D01*
X-6799047Y-1521819D01*
X-6857716Y-1610678D01*
X-6981434Y-1682106D01*
X-7087722Y-1688486D01*
X-7152771Y-1671056D01*
X-7241629Y-1612387D01*
X-7432105Y-1282472D01*
X-6526093Y-1804114D02*
X-6216569Y-2340226D01*
X-6713150Y-2242026D01*
X-6641721Y-2365745D01*
X-6635341Y-2472033D01*
X-6652771Y-2537081D01*
X-6711441Y-2625940D01*
X-6917637Y-2744988D01*
X-7023925Y-2751367D01*
X-7088974Y-2733938D01*
X-7177832Y-2675269D01*
X-7320689Y-2427832D01*
X-7327069Y-2321544D01*
X-7309639Y-2256495D01*
X-4809154Y-427939D02*
X-4563428Y98833D01*
X-5094869Y66934D02*
X-4228844Y566934D01*
X-4038367Y237019D01*
X-4031987Y130731D01*
X-4049417Y65682D01*
X-4108086Y-23177D01*
X-4231804Y-94605D01*
X-4338092Y-100985D01*
X-4403141Y-83555D01*
X-4491999Y-24886D01*
X-4682475Y305029D01*
X-3803232Y-836913D02*
X-4380583Y-1170246D01*
X-3592366Y-440239D02*
X-4330004Y-591186D01*
X-4020480Y-1127297D01*
X-17527455Y-1447766D02*
X-18054227Y-1202040D01*
X-18022328Y-1733481D02*
X-18522328Y-867456D01*
X-18192413Y-676979D01*
X-18086125Y-670599D01*
X-18021076Y-688029D01*
X-17932217Y-746698D01*
X-17860789Y-870416D01*
X-17854409Y-976704D01*
X-17871839Y-1041753D01*
X-17930508Y-1130611D01*
X-18260423Y-1321087D01*
X-17285148Y-153170D02*
X-17450106Y-248408D01*
X-17508775Y-337266D01*
X-17526205Y-402315D01*
X-17537255Y-573652D01*
X-17483256Y-762418D01*
X-17292779Y-1092333D01*
X-17203921Y-1151002D01*
X-17138872Y-1168432D01*
X-17032584Y-1162052D01*
X-16867626Y-1066814D01*
X-16808957Y-977956D01*
X-16791528Y-912907D01*
X-16797907Y-806619D01*
X-16916955Y-600423D01*
X-17005814Y-541753D01*
X-17070862Y-524323D01*
X-17177150Y-530703D01*
X-17342108Y-625941D01*
X-17400777Y-714799D01*
X-17418207Y-779848D01*
X-17411827Y-886137D01*
X-16187455Y-9930144D02*
X-15941729Y-9403372D01*
X-16473170Y-9435271D02*
X-15607145Y-8935271D01*
X-15416668Y-9265186D01*
X-15410288Y-9371474D01*
X-15427718Y-9436523D01*
X-15486387Y-9525382D01*
X-15610105Y-9596810D01*
X-15716393Y-9603190D01*
X-15781442Y-9585760D01*
X-15870300Y-9527091D01*
X-16060776Y-9197176D01*
X-15154764Y-9718818D02*
X-14821430Y-10296169D01*
X-15901741Y-10425015D01*
X-14282455Y-13229700D02*
X-14036729Y-12702928D01*
X-14568170Y-12734827D02*
X-13702145Y-12234827D01*
X-13511668Y-12564742D01*
X-13505288Y-12671030D01*
X-13522718Y-12736079D01*
X-13581387Y-12824938D01*
X-13705105Y-12896366D01*
X-13811393Y-12902746D01*
X-13876442Y-12885316D01*
X-13965300Y-12826647D01*
X-14155776Y-12496732D01*
X-13501869Y-13438856D02*
X-13508249Y-13332568D01*
X-13490819Y-13267519D01*
X-13432150Y-13178661D01*
X-13390911Y-13154852D01*
X-13284623Y-13148472D01*
X-13219574Y-13165902D01*
X-13130716Y-13224571D01*
X-13035478Y-13389529D01*
X-13029098Y-13495817D01*
X-13046528Y-13560865D01*
X-13105197Y-13649724D01*
X-13146436Y-13673533D01*
X-13252724Y-13679913D01*
X-13317773Y-13662483D01*
X-13406631Y-13603814D01*
X-13501869Y-13438856D01*
X-13590728Y-13380187D01*
X-13655776Y-13362757D01*
X-13762065Y-13369138D01*
X-13927022Y-13464376D01*
X-13985691Y-13553234D01*
X-14003121Y-13618283D01*
X-13996741Y-13724571D01*
X-13901503Y-13889529D01*
X-13812645Y-13948198D01*
X-13747596Y-13965627D01*
X-13641308Y-13959248D01*
X-13476351Y-13864010D01*
X-13417681Y-13775151D01*
X-13400251Y-13710102D01*
X-13406631Y-13603814D01*
X-18092455Y-6630587D02*
X-17846729Y-6103815D01*
X-18378170Y-6135714D02*
X-17512145Y-5635714D01*
X-17321668Y-5965629D01*
X-17315288Y-6071917D01*
X-17332718Y-6136966D01*
X-17391387Y-6225825D01*
X-17515105Y-6297253D01*
X-17621393Y-6303633D01*
X-17686442Y-6286203D01*
X-17775300Y-6227534D01*
X-17965776Y-5897619D01*
X-17854360Y-7042979D02*
X-17759122Y-7207936D01*
X-17670264Y-7266606D01*
X-17605215Y-7284036D01*
X-17433878Y-7295086D01*
X-17245112Y-7241087D01*
X-16915197Y-7050611D01*
X-16856528Y-6961752D01*
X-16839098Y-6896704D01*
X-16845478Y-6790416D01*
X-16940716Y-6625458D01*
X-17029574Y-6566789D01*
X-17094623Y-6549359D01*
X-17200911Y-6555739D01*
X-17407107Y-6674786D01*
X-17465776Y-6763644D01*
X-17483207Y-6828694D01*
X-17476827Y-6934982D01*
X-17381589Y-7099940D01*
X-17292731Y-7158609D01*
X-17227681Y-7176038D01*
X-17121393Y-7169658D01*
X1277042Y6645066D02*
X943708Y7121257D01*
X705613Y6645066D02*
X705613Y7645066D01*
X1086566Y7645066D01*
X1181804Y7597447D01*
X1229423Y7549828D01*
X1277042Y7454590D01*
X1277042Y7311733D01*
X1229423Y7216495D01*
X1181804Y7168876D01*
X1086566Y7121257D01*
X705613Y7121257D01*
X2229423Y6645066D02*
X1657994Y6645066D01*
X1943708Y6645066D02*
X1943708Y7645066D01*
X1848470Y7502209D01*
X1753232Y7406971D01*
X1657994Y7359352D01*
X2848470Y7645066D02*
X2943709Y7645066D01*
X3038947Y7597447D01*
X3086566Y7549828D01*
X3134185Y7454590D01*
X3181804Y7264114D01*
X3181804Y7026018D01*
X3134185Y6835542D01*
X3086566Y6740304D01*
X3038947Y6692685D01*
X2943709Y6645066D01*
X2848470Y6645066D01*
X2753232Y6692685D01*
X2705613Y6740304D01*
X2657994Y6835542D01*
X2610375Y7026018D01*
X2610375Y7264114D01*
X2657994Y7454590D01*
X2705613Y7549828D01*
X2753232Y7597447D01*
X2848470Y7645066D01*
X1277042Y3470065D02*
X943708Y3946256D01*
X705613Y3470065D02*
X705613Y4470065D01*
X1086566Y4470065D01*
X1181804Y4422446D01*
X1229423Y4374827D01*
X1277042Y4279589D01*
X1277042Y4136732D01*
X1229423Y4041494D01*
X1181804Y3993875D01*
X1086566Y3946256D01*
X705613Y3946256D01*
X2229423Y3470065D02*
X1657994Y3470065D01*
X1943708Y3470065D02*
X1943708Y4470065D01*
X1848470Y4327208D01*
X1753232Y4231970D01*
X1657994Y4184351D01*
X3181804Y3470065D02*
X2610375Y3470065D01*
X2896089Y3470065D02*
X2896089Y4470065D01*
X2800851Y4327208D01*
X2705613Y4231970D01*
X2610375Y4184351D01*
X8452381Y14470143D02*
X7976190Y14136809D01*
X8452381Y13898714D02*
X7452381Y13898714D01*
X7452381Y14279667D01*
X7500000Y14374905D01*
X7547619Y14422524D01*
X7642857Y14470143D01*
X7785714Y14470143D01*
X7880952Y14422524D01*
X7928571Y14374905D01*
X7976190Y14279667D01*
X7976190Y13898714D01*
X8452381Y15422524D02*
X8452381Y14851095D01*
X8452381Y15136809D02*
X7452381Y15136809D01*
X7595238Y15041571D01*
X7690476Y14946333D01*
X7738095Y14851095D01*
X7452381Y15755857D02*
X7452381Y16374905D01*
X7833333Y16041571D01*
X7833333Y16184429D01*
X7880952Y16279667D01*
X7928571Y16327286D01*
X8023810Y16374905D01*
X8261905Y16374905D01*
X8357143Y16327286D01*
X8404762Y16279667D01*
X8452381Y16184429D01*
X8452381Y15898714D01*
X8404762Y15803476D01*
X8357143Y15755857D01*
X-1262958Y18075065D02*
X-1596292Y18551256D01*
X-1834387Y18075065D02*
X-1834387Y19075065D01*
X-1453434Y19075065D01*
X-1358196Y19027446D01*
X-1310577Y18979827D01*
X-1262958Y18884589D01*
X-1262958Y18741732D01*
X-1310577Y18646494D01*
X-1358196Y18598875D01*
X-1453434Y18551256D01*
X-1834387Y18551256D01*
X-310577Y18075065D02*
X-882006Y18075065D01*
X-596292Y18075065D02*
X-596292Y19075065D01*
X-691530Y18932208D01*
X-786768Y18836970D01*
X-882006Y18789351D01*
X546566Y18741732D02*
X546566Y18075065D01*
X308470Y19122684D02*
X70375Y18408398D01*
X689423Y18408398D01*
X-5072958Y18075065D02*
X-5406292Y18551256D01*
X-5644387Y18075065D02*
X-5644387Y19075065D01*
X-5263434Y19075065D01*
X-5168196Y19027446D01*
X-5120577Y18979827D01*
X-5072958Y18884589D01*
X-5072958Y18741732D01*
X-5120577Y18646494D01*
X-5168196Y18598875D01*
X-5263434Y18551256D01*
X-5644387Y18551256D01*
X-4120577Y18075065D02*
X-4692006Y18075065D01*
X-4406292Y18075065D02*
X-4406292Y19075065D01*
X-4501530Y18932208D01*
X-4596768Y18836970D01*
X-4692006Y18789351D01*
X-3215815Y19075065D02*
X-3692006Y19075065D01*
X-3739625Y18598875D01*
X-3692006Y18646494D01*
X-3596768Y18694113D01*
X-3358672Y18694113D01*
X-3263434Y18646494D01*
X-3215815Y18598875D01*
X-3168196Y18503636D01*
X-3168196Y18265541D01*
X-3215815Y18170303D01*
X-3263434Y18122684D01*
X-3358672Y18075065D01*
X-3596768Y18075065D01*
X-3692006Y18122684D01*
X-3739625Y18170303D01*
X2547042Y18075065D02*
X2213708Y18551256D01*
X1975613Y18075065D02*
X1975613Y19075065D01*
X2356566Y19075065D01*
X2451804Y19027446D01*
X2499423Y18979827D01*
X2547042Y18884589D01*
X2547042Y18741732D01*
X2499423Y18646494D01*
X2451804Y18598875D01*
X2356566Y18551256D01*
X1975613Y18551256D01*
X3499423Y18075065D02*
X2927994Y18075065D01*
X3213708Y18075065D02*
X3213708Y19075065D01*
X3118470Y18932208D01*
X3023232Y18836970D01*
X2927994Y18789351D01*
X4356566Y19075065D02*
X4166089Y19075065D01*
X4070851Y19027446D01*
X4023232Y18979827D01*
X3927994Y18836970D01*
X3880375Y18646494D01*
X3880375Y18265541D01*
X3927994Y18170303D01*
X3975613Y18122684D01*
X4070851Y18075065D01*
X4261328Y18075065D01*
X4356566Y18122684D01*
X4404185Y18170303D01*
X4451804Y18265541D01*
X4451804Y18503636D01*
X4404185Y18598875D01*
X4356566Y18646494D01*
X4261328Y18694113D01*
X4070851Y18694113D01*
X3975613Y18646494D01*
X3927994Y18598875D01*
X3880375Y18503636D01*
X5417339Y-5775010D02*
X4838278Y-5825590D01*
X5131624Y-6269882D02*
X4265599Y-5769882D01*
X4456076Y-5439967D01*
X4544934Y-5381298D01*
X4609983Y-5363868D01*
X4716271Y-5370248D01*
X4839988Y-5441676D01*
X4898657Y-5530535D01*
X4916087Y-5595584D01*
X4909707Y-5701872D01*
X4719231Y-6031787D01*
X5893529Y-4950224D02*
X5607815Y-5445096D01*
X5750672Y-5197660D02*
X4884647Y-4697660D01*
X4960745Y-4851567D01*
X4995605Y-4981665D01*
X4989225Y-5087953D01*
X5194171Y-4161549D02*
X5527504Y-3584198D01*
X6179243Y-4455353D01*
X2667709Y-4187510D02*
X2088648Y-4238090D01*
X2381994Y-4682382D02*
X1515969Y-4182382D01*
X1706446Y-3852467D01*
X1795304Y-3793798D01*
X1860353Y-3776368D01*
X1966641Y-3782748D01*
X2090358Y-3854176D01*
X2149027Y-3943035D01*
X2166457Y-4008084D01*
X2160077Y-4114372D01*
X1969601Y-4444287D01*
X3143899Y-3362724D02*
X2858185Y-3857596D01*
X3001042Y-3610160D02*
X2135017Y-3110160D01*
X2211115Y-3264067D01*
X2245975Y-3394165D01*
X2239595Y-3500453D01*
X2934741Y-2582138D02*
X2845883Y-2640807D01*
X2780834Y-2658237D01*
X2674546Y-2651857D01*
X2633307Y-2628048D01*
X2574638Y-2539189D01*
X2557208Y-2474141D01*
X2563588Y-2367853D01*
X2658827Y-2202895D01*
X2747685Y-2144226D01*
X2812734Y-2126796D01*
X2919022Y-2133176D01*
X2960261Y-2156985D01*
X3018930Y-2245843D01*
X3036360Y-2310892D01*
X3029980Y-2417180D01*
X2934741Y-2582138D01*
X2928362Y-2688426D01*
X2945791Y-2753475D01*
X3004461Y-2842334D01*
X3169418Y-2937572D01*
X3275706Y-2943951D01*
X3340755Y-2926522D01*
X3429613Y-2867853D01*
X3524852Y-2702895D01*
X3531232Y-2596607D01*
X3513802Y-2531558D01*
X3455133Y-2442700D01*
X3290176Y-2347462D01*
X3183887Y-2341081D01*
X3118838Y-2358511D01*
X3029980Y-2417180D01*
X9312203Y-14108432D02*
X9261623Y-13529371D01*
X8817331Y-13822717D02*
X9317331Y-12956692D01*
X9647246Y-13147169D01*
X9705915Y-13236027D01*
X9723345Y-13301076D01*
X9716965Y-13407364D01*
X9645537Y-13531081D01*
X9556678Y-13589750D01*
X9491629Y-13607180D01*
X9385341Y-13600800D01*
X9055426Y-13410324D01*
X10094498Y-13515361D02*
X10159547Y-13497931D01*
X10265835Y-13504311D01*
X10472032Y-13623359D01*
X10530701Y-13712217D01*
X10548131Y-13777266D01*
X10541751Y-13883554D01*
X10494132Y-13966033D01*
X10381464Y-14065941D01*
X9600878Y-14275098D01*
X10136989Y-14584622D01*
X11173100Y-14028121D02*
X11255579Y-14075740D01*
X11314248Y-14164598D01*
X11331678Y-14229647D01*
X11325298Y-14335935D01*
X11271299Y-14524702D01*
X11152251Y-14730899D01*
X11015774Y-14872046D01*
X10926916Y-14930715D01*
X10861867Y-14948145D01*
X10755579Y-14941765D01*
X10673100Y-14894146D01*
X10614431Y-14805288D01*
X10597001Y-14740239D01*
X10603381Y-14633951D01*
X10657379Y-14445184D01*
X10776427Y-14238987D01*
X10912905Y-14097840D01*
X11001763Y-14039171D01*
X11066812Y-14021741D01*
X11173100Y-14028121D01*
X16586010Y-9290305D02*
X16006949Y-9340885D01*
X16300295Y-9785177D02*
X15434270Y-9285177D01*
X15624747Y-8955262D01*
X15713605Y-8896593D01*
X15778654Y-8879163D01*
X15884942Y-8885543D01*
X16008659Y-8956971D01*
X16067328Y-9045830D01*
X16084758Y-9110879D01*
X16078378Y-9217167D01*
X15887902Y-9547082D01*
X15992939Y-8508010D02*
X15975509Y-8442961D01*
X15981889Y-8336673D01*
X16100937Y-8130476D01*
X16189795Y-8071807D01*
X16254844Y-8054377D01*
X16361132Y-8060757D01*
X16443611Y-8108376D01*
X16543519Y-8221044D01*
X16752676Y-9001630D01*
X17062200Y-8465519D01*
X17538391Y-7640733D02*
X17252676Y-8135605D01*
X17395533Y-7888169D02*
X16529508Y-7388169D01*
X16605607Y-7542076D01*
X16640466Y-7672174D01*
X16634087Y-7778462D01*
X18491010Y-5990748D02*
X17911949Y-6041328D01*
X18205295Y-6485620D02*
X17339270Y-5985620D01*
X17529747Y-5655705D01*
X17618605Y-5597036D01*
X17683654Y-5579606D01*
X17789942Y-5585986D01*
X17913659Y-5657414D01*
X17972328Y-5746273D01*
X17989758Y-5811322D01*
X17983378Y-5917610D01*
X17792902Y-6247525D01*
X17897939Y-5208453D02*
X17880509Y-5143404D01*
X17886889Y-5037116D01*
X18005937Y-4830919D01*
X18094795Y-4772250D01*
X18159844Y-4754820D01*
X18266132Y-4761200D01*
X18348611Y-4808819D01*
X18448519Y-4921487D01*
X18657676Y-5702073D01*
X18967200Y-5165962D01*
X18374130Y-4383667D02*
X18356700Y-4318618D01*
X18363080Y-4212330D01*
X18482128Y-4006133D01*
X18570986Y-3947464D01*
X18636035Y-3930034D01*
X18742323Y-3936414D01*
X18824801Y-3984033D01*
X18924709Y-4096700D01*
X19133867Y-4877287D01*
X19443391Y-4341176D01*
X14681010Y-12589862D02*
X14101949Y-12640442D01*
X14395295Y-13084734D02*
X13529270Y-12584734D01*
X13719747Y-12254819D01*
X13808605Y-12196150D01*
X13873654Y-12178720D01*
X13979942Y-12185100D01*
X14103659Y-12256528D01*
X14162328Y-12345387D01*
X14179758Y-12410436D01*
X14173378Y-12516724D01*
X13982902Y-12846639D01*
X14087939Y-11807567D02*
X14070509Y-11742518D01*
X14076889Y-11636230D01*
X14195937Y-11430033D01*
X14284795Y-11371364D01*
X14349844Y-11353934D01*
X14456132Y-11360314D01*
X14538611Y-11407933D01*
X14638519Y-11520601D01*
X14847676Y-12301187D01*
X15157200Y-11765076D01*
X14457842Y-10976401D02*
X14767366Y-10440290D01*
X14930613Y-10919441D01*
X15002042Y-10795723D01*
X15090900Y-10737054D01*
X15155949Y-10719624D01*
X15262238Y-10726004D01*
X15468434Y-10845052D01*
X15527103Y-10933910D01*
X15544533Y-10998959D01*
X15538153Y-11105247D01*
X15395295Y-11352683D01*
X15306437Y-11411352D01*
X15241388Y-11428782D01*
X-5286333Y22518619D02*
X-5286333Y21804333D01*
X-5333953Y21661476D01*
X-5429191Y21566238D01*
X-5572048Y21518619D01*
X-5667286Y21518619D01*
X-4857762Y22423381D02*
X-4810143Y22471000D01*
X-4714905Y22518619D01*
X-4476809Y22518619D01*
X-4381571Y22471000D01*
X-4333952Y22423381D01*
X-4286333Y22328143D01*
X-4286333Y22232905D01*
X-4333952Y22090048D01*
X-4905381Y21518619D01*
X-4286333Y21518619D01*
X-16889821Y8414019D02*
X-16023796Y8914019D01*
X-15904748Y8707822D01*
X-15874558Y8560294D01*
X-15909418Y8430197D01*
X-15968087Y8341338D01*
X-16109234Y8204861D01*
X-16232953Y8133432D01*
X-16421720Y8079433D01*
X-16528008Y8073054D01*
X-16658105Y8107913D01*
X-16770773Y8207822D01*
X-16889821Y8414019D01*
X-15598184Y7510172D02*
X-16175535Y7176839D01*
X-15387318Y7906846D02*
X-16124956Y7755899D01*
X-15815432Y7219788D01*
X14374905Y9263119D02*
X14374905Y10263119D01*
X14613000Y10263119D01*
X14755858Y10215500D01*
X14851096Y10120262D01*
X14898715Y10025024D01*
X14946334Y9834548D01*
X14946334Y9691690D01*
X14898715Y9501214D01*
X14851096Y9405976D01*
X14755858Y9310738D01*
X14613000Y9263119D01*
X14374905Y9263119D01*
X15851096Y10263119D02*
X15374905Y10263119D01*
X15327286Y9786929D01*
X15374905Y9834548D01*
X15470143Y9882167D01*
X15708239Y9882167D01*
X15803477Y9834548D01*
X15851096Y9786929D01*
X15898715Y9691690D01*
X15898715Y9453595D01*
X15851096Y9358357D01*
X15803477Y9310738D01*
X15708239Y9263119D01*
X15470143Y9263119D01*
X15374905Y9310738D01*
X15327286Y9358357D01*
X1356226Y-18137400D02*
X490201Y-17637400D01*
X609248Y-17431203D01*
X721916Y-17331294D01*
X852014Y-17296435D01*
X958302Y-17302814D01*
X1147068Y-17356813D01*
X1270787Y-17428242D01*
X1411935Y-17564719D01*
X1470604Y-17653578D01*
X1505463Y-17783675D01*
X1475273Y-17931203D01*
X1356226Y-18137400D01*
X1204487Y-16400220D02*
X1109248Y-16565178D01*
X1102868Y-16671466D01*
X1120298Y-16736515D01*
X1196397Y-16890422D01*
X1337544Y-17026899D01*
X1667459Y-17217375D01*
X1773747Y-17223755D01*
X1838796Y-17206325D01*
X1927654Y-17147656D01*
X2022893Y-16982698D01*
X2029273Y-16876410D01*
X2011843Y-16811362D01*
X1953174Y-16722503D01*
X1746978Y-16603456D01*
X1640689Y-16597076D01*
X1575640Y-16614505D01*
X1486782Y-16673174D01*
X1391543Y-16838132D01*
X1385163Y-16944420D01*
X1402593Y-17009469D01*
X1461263Y-17098328D01*
X-13032202Y3632541D02*
X-12786475Y4159312D01*
X-13317916Y4127413D02*
X-12451891Y4627413D01*
X-12261415Y4297498D01*
X-12255035Y4191210D01*
X-12272465Y4126161D01*
X-12331134Y4037303D01*
X-12454851Y3965874D01*
X-12561139Y3959495D01*
X-12626188Y3976925D01*
X-12715046Y4035594D01*
X-12905523Y4365509D01*
X-12058179Y3755008D02*
X-11993130Y3737578D01*
X-11904272Y3678909D01*
X-11785224Y3472712D01*
X-11778844Y3366424D01*
X-11796274Y3301375D01*
X-11854943Y3212517D01*
X-11937422Y3164898D01*
X-12084949Y3134709D01*
X-12865535Y3343866D01*
X-12556011Y2807755D01*
X-11550089Y2398781D02*
X-12127440Y2065447D01*
X-11339223Y2795454D02*
X-12076861Y2644507D01*
X-11767337Y2108396D01*
X8374143Y8564619D02*
X8040809Y9040810D01*
X7802714Y8564619D02*
X7802714Y9564619D01*
X8183667Y9564619D01*
X8278905Y9517000D01*
X8326524Y9469381D01*
X8374143Y9374143D01*
X8374143Y9231286D01*
X8326524Y9136048D01*
X8278905Y9088429D01*
X8183667Y9040810D01*
X7802714Y9040810D01*
X8755095Y9469381D02*
X8802714Y9517000D01*
X8897952Y9564619D01*
X9136048Y9564619D01*
X9231286Y9517000D01*
X9278905Y9469381D01*
X9326524Y9374143D01*
X9326524Y9278905D01*
X9278905Y9136048D01*
X8707476Y8564619D01*
X9326524Y8564619D01*
X10231286Y9564619D02*
X9755095Y9564619D01*
X9707476Y9088429D01*
X9755095Y9136048D01*
X9850333Y9183667D01*
X10088429Y9183667D01*
X10183667Y9136048D01*
X10231286Y9088429D01*
X10278905Y8993190D01*
X10278905Y8755095D01*
X10231286Y8659857D01*
X10183667Y8612238D01*
X10088429Y8564619D01*
X9850333Y8564619D01*
X9755095Y8612238D01*
X9707476Y8659857D01*
X3689845Y-12466921D02*
X3110784Y-12517501D01*
X3404130Y-12961793D02*
X2538105Y-12461793D01*
X2728582Y-12131878D01*
X2817440Y-12073209D01*
X2882489Y-12055779D01*
X2988777Y-12062159D01*
X3112494Y-12133587D01*
X3171163Y-12222446D01*
X3188593Y-12287495D01*
X3182213Y-12393783D01*
X2991737Y-12723698D01*
X3096774Y-11684626D02*
X3079344Y-11619577D01*
X3085724Y-11513289D01*
X3204772Y-11307092D01*
X3293630Y-11248423D01*
X3358679Y-11230993D01*
X3464967Y-11237373D01*
X3547446Y-11284992D01*
X3647354Y-11397660D01*
X3856511Y-12178246D01*
X4166035Y-11642135D01*
X3728582Y-10399827D02*
X3633343Y-10564785D01*
X3626963Y-10671073D01*
X3644393Y-10736122D01*
X3720492Y-10890029D01*
X3861639Y-11026506D01*
X4191554Y-11216983D01*
X4297842Y-11223362D01*
X4362891Y-11205933D01*
X4451749Y-11147264D01*
X4546988Y-10982306D01*
X4553368Y-10876018D01*
X4535938Y-10810969D01*
X4477269Y-10722111D01*
X4271073Y-10603063D01*
X4164784Y-10596683D01*
X4099735Y-10614113D01*
X4010877Y-10672782D01*
X3915638Y-10837740D01*
X3909258Y-10944028D01*
X3926688Y-11009076D01*
X3985358Y-11097935D01*
M02*
