G04 #@! TF.FileFunction,Soldermask,Top*
%FSLAX46Y46*%
G04 Gerber Fmt 4.6, Leading zero omitted, Abs format (unit mm)*
G04 Created by KiCad (PCBNEW 4.0.6) date 03/19/17 22:54:01*
%MOMM*%
%LPD*%
G01*
G04 APERTURE LIST*
%ADD10C,0.100000*%
%ADD11R,4.400000X4.400000*%
%ADD12R,1.000000X1.950000*%
%ADD13R,1.650000X1.400000*%
%ADD14R,1.100000X1.700000*%
%ADD15R,1.700000X1.100000*%
%ADD16R,1.600000X1.600000*%
%ADD17R,1.200000X3.600000*%
%ADD18R,1.300000X1.200000*%
G04 APERTURE END LIST*
D10*
D11*
X8128000Y20701000D03*
D10*
G36*
X-16162175Y-7019172D02*
X-16662175Y-6153146D01*
X-14973425Y-5178146D01*
X-14473425Y-6044172D01*
X-16162175Y-7019172D01*
X-16162175Y-7019172D01*
G37*
G36*
X-15527175Y-8119024D02*
X-16027175Y-7252998D01*
X-14338425Y-6277998D01*
X-13838425Y-7144024D01*
X-15527175Y-8119024D01*
X-15527175Y-8119024D01*
G37*
G36*
X-14892175Y-9218876D02*
X-15392175Y-8352850D01*
X-13703425Y-7377850D01*
X-13203425Y-8243876D01*
X-14892175Y-9218876D01*
X-14892175Y-9218876D01*
G37*
G36*
X-14257175Y-10318728D02*
X-14757175Y-9452702D01*
X-13068425Y-8477702D01*
X-12568425Y-9343728D01*
X-14257175Y-10318728D01*
X-14257175Y-10318728D01*
G37*
G36*
X-9580637Y-7618728D02*
X-10080637Y-6752702D01*
X-8391887Y-5777702D01*
X-7891887Y-6643728D01*
X-9580637Y-7618728D01*
X-9580637Y-7618728D01*
G37*
G36*
X-10215637Y-6518876D02*
X-10715637Y-5652850D01*
X-9026887Y-4677850D01*
X-8526887Y-5543876D01*
X-10215637Y-6518876D01*
X-10215637Y-6518876D01*
G37*
G36*
X-10850637Y-5419024D02*
X-11350637Y-4552998D01*
X-9661887Y-3577998D01*
X-9161887Y-4444024D01*
X-10850637Y-5419024D01*
X-10850637Y-5419024D01*
G37*
G36*
X-11485637Y-4319172D02*
X-11985637Y-3453146D01*
X-10296887Y-2478146D01*
X-9796887Y-3344172D01*
X-11485637Y-4319172D01*
X-11485637Y-4319172D01*
G37*
G36*
X14290489Y-10311501D02*
X13790489Y-11177527D01*
X12101739Y-10202527D01*
X12601739Y-9336501D01*
X14290489Y-10311501D01*
X14290489Y-10311501D01*
G37*
G36*
X14925489Y-9211649D02*
X14425489Y-10077675D01*
X12736739Y-9102675D01*
X13236739Y-8236649D01*
X14925489Y-9211649D01*
X14925489Y-9211649D01*
G37*
G36*
X15560489Y-8111797D02*
X15060489Y-8977823D01*
X13371739Y-8002823D01*
X13871739Y-7136797D01*
X15560489Y-8111797D01*
X15560489Y-8111797D01*
G37*
G36*
X16195489Y-7011945D02*
X15695489Y-7877971D01*
X14006739Y-6902971D01*
X14506739Y-6036945D01*
X16195489Y-7011945D01*
X16195489Y-7011945D01*
G37*
G36*
X11518951Y-4311945D02*
X11018951Y-5177971D01*
X9330201Y-4202971D01*
X9830201Y-3336945D01*
X11518951Y-4311945D01*
X11518951Y-4311945D01*
G37*
G36*
X10883951Y-5411797D02*
X10383951Y-6277823D01*
X8695201Y-5302823D01*
X9195201Y-4436797D01*
X10883951Y-5411797D01*
X10883951Y-5411797D01*
G37*
G36*
X10248951Y-6511649D02*
X9748951Y-7377675D01*
X8060201Y-6402675D01*
X8560201Y-5536649D01*
X10248951Y-6511649D01*
X10248951Y-6511649D01*
G37*
G36*
X9613951Y-7611501D02*
X9113951Y-8477527D01*
X7425201Y-7502527D01*
X7925201Y-6636501D01*
X9613951Y-7611501D01*
X9613951Y-7611501D01*
G37*
G36*
X9210489Y-19110319D02*
X8710489Y-19976345D01*
X7021739Y-19001345D01*
X7521739Y-18135319D01*
X9210489Y-19110319D01*
X9210489Y-19110319D01*
G37*
G36*
X9845489Y-18010467D02*
X9345489Y-18876493D01*
X7656739Y-17901493D01*
X8156739Y-17035467D01*
X9845489Y-18010467D01*
X9845489Y-18010467D01*
G37*
G36*
X10480489Y-16910615D02*
X9980489Y-17776641D01*
X8291739Y-16801641D01*
X8791739Y-15935615D01*
X10480489Y-16910615D01*
X10480489Y-16910615D01*
G37*
G36*
X11115489Y-15810763D02*
X10615489Y-16676789D01*
X8926739Y-15701789D01*
X9426739Y-14835763D01*
X11115489Y-15810763D01*
X11115489Y-15810763D01*
G37*
G36*
X6438951Y-13110763D02*
X5938951Y-13976789D01*
X4250201Y-13001789D01*
X4750201Y-12135763D01*
X6438951Y-13110763D01*
X6438951Y-13110763D01*
G37*
G36*
X5803951Y-14210615D02*
X5303951Y-15076641D01*
X3615201Y-14101641D01*
X4115201Y-13235615D01*
X5803951Y-14210615D01*
X5803951Y-14210615D01*
G37*
G36*
X5168951Y-15310467D02*
X4668951Y-16176493D01*
X2980201Y-15201493D01*
X3480201Y-14335467D01*
X5168951Y-15310467D01*
X5168951Y-15310467D01*
G37*
G36*
X4533951Y-16410319D02*
X4033951Y-17276345D01*
X2345201Y-16301345D01*
X2845201Y-15435319D01*
X4533951Y-16410319D01*
X4533951Y-16410319D01*
G37*
D12*
X2554900Y16527446D03*
X1284900Y16527446D03*
X14900Y16527446D03*
X-1255100Y16527446D03*
X-1255100Y11127446D03*
X14900Y11127446D03*
X1284900Y11127446D03*
X2554900Y11127446D03*
D10*
G36*
X-21559673Y2329571D02*
X-22059673Y3195597D01*
X-20370923Y4170597D01*
X-19870923Y3304571D01*
X-21559673Y2329571D01*
X-21559673Y2329571D01*
G37*
G36*
X-20924673Y1229719D02*
X-21424673Y2095745D01*
X-19735923Y3070745D01*
X-19235923Y2204719D01*
X-20924673Y1229719D01*
X-20924673Y1229719D01*
G37*
G36*
X-20289673Y129867D02*
X-20789673Y995893D01*
X-19100923Y1970893D01*
X-18600923Y1104867D01*
X-20289673Y129867D01*
X-20289673Y129867D01*
G37*
G36*
X-19654673Y-969985D02*
X-20154673Y-103959D01*
X-18465923Y871041D01*
X-17965923Y5015D01*
X-19654673Y-969985D01*
X-19654673Y-969985D01*
G37*
G36*
X-14978135Y1730015D02*
X-15478135Y2596041D01*
X-13789385Y3571041D01*
X-13289385Y2705015D01*
X-14978135Y1730015D01*
X-14978135Y1730015D01*
G37*
G36*
X-15613135Y2829867D02*
X-16113135Y3695893D01*
X-14424385Y4670893D01*
X-13924385Y3804867D01*
X-15613135Y2829867D01*
X-15613135Y2829867D01*
G37*
G36*
X-16248135Y3929719D02*
X-16748135Y4795745D01*
X-15059385Y5770745D01*
X-14559385Y4904719D01*
X-16248135Y3929719D01*
X-16248135Y3929719D01*
G37*
G36*
X-16883135Y5029571D02*
X-17383135Y5895597D01*
X-15694385Y6870597D01*
X-15194385Y6004571D01*
X-16883135Y5029571D01*
X-16883135Y5029571D01*
G37*
D12*
X13349899Y16527447D03*
X12079899Y16527447D03*
X10809899Y16527447D03*
X9539899Y16527447D03*
X9539899Y11127447D03*
X10809899Y11127447D03*
X12079899Y11127447D03*
X13349899Y11127447D03*
D10*
G36*
X-7497216Y-10457318D02*
X-8322216Y-9028376D01*
X-7109780Y-8328376D01*
X-6284780Y-9757318D01*
X-7497216Y-10457318D01*
X-7497216Y-10457318D01*
G37*
G36*
X-5765166Y-9457318D02*
X-6590166Y-8028376D01*
X-5377730Y-7328376D01*
X-4552730Y-8757318D01*
X-5765166Y-9457318D01*
X-5765166Y-9457318D01*
G37*
G36*
X-14544495Y-2061073D02*
X-15369495Y-632131D01*
X-14157059Y67869D01*
X-13332059Y-1361073D01*
X-14544495Y-2061073D01*
X-14544495Y-2061073D01*
G37*
G36*
X-12812445Y-1061073D02*
X-13637445Y367869D01*
X-12425009Y1067869D01*
X-11600009Y-361073D01*
X-12812445Y-1061073D01*
X-12812445Y-1061073D01*
G37*
D13*
X-4430101Y11017446D03*
X-4430101Y9017446D03*
X6350000Y12430000D03*
X6350000Y10430000D03*
D10*
G36*
X12935532Y-1088356D02*
X12110532Y-2517298D01*
X10898096Y-1817298D01*
X11723096Y-388356D01*
X12935532Y-1088356D01*
X12935532Y-1088356D01*
G37*
G36*
X11203482Y-88356D02*
X10378482Y-1517298D01*
X9166046Y-817298D01*
X9991046Y611644D01*
X11203482Y-88356D01*
X11203482Y-88356D01*
G37*
G36*
X9505310Y-10839674D02*
X8680310Y-12268616D01*
X7467874Y-11568616D01*
X8292874Y-10139674D01*
X9505310Y-10839674D01*
X9505310Y-10839674D01*
G37*
G36*
X7773260Y-9839674D02*
X6948260Y-11268616D01*
X5735824Y-10568616D01*
X6560824Y-9139674D01*
X7773260Y-9839674D01*
X7773260Y-9839674D01*
G37*
G36*
X-9998742Y-1884548D02*
X-8526498Y-1034548D01*
X-7976498Y-1987176D01*
X-9448742Y-2837176D01*
X-9998742Y-1884548D01*
X-9998742Y-1884548D01*
G37*
G36*
X-9048742Y-3529996D02*
X-7576498Y-2679996D01*
X-7026498Y-3632624D01*
X-8498742Y-4482624D01*
X-9048742Y-3529996D01*
X-9048742Y-3529996D01*
G37*
G36*
X-7249112Y-297047D02*
X-5776868Y552953D01*
X-5226868Y-399675D01*
X-6699112Y-1249675D01*
X-7249112Y-297047D01*
X-7249112Y-297047D01*
G37*
G36*
X-6299112Y-1942495D02*
X-4826868Y-1092495D01*
X-4276868Y-2045123D01*
X-5749112Y-2895123D01*
X-6299112Y-1942495D01*
X-6299112Y-1942495D01*
G37*
G36*
X-17658347Y-3887724D02*
X-18508347Y-2415480D01*
X-17555719Y-1865480D01*
X-16705719Y-3337724D01*
X-17658347Y-3887724D01*
X-17658347Y-3887724D01*
G37*
G36*
X-16012899Y-2937724D02*
X-16862899Y-1465480D01*
X-15910271Y-915480D01*
X-15060271Y-2387724D01*
X-16012899Y-2937724D01*
X-16012899Y-2937724D01*
G37*
G36*
X-18627413Y-9799252D02*
X-17155169Y-8949252D01*
X-16605169Y-9901880D01*
X-18077413Y-10751880D01*
X-18627413Y-9799252D01*
X-18627413Y-9799252D01*
G37*
G36*
X-17677413Y-11444700D02*
X-16205169Y-10594700D01*
X-15655169Y-11547328D01*
X-17127413Y-12397328D01*
X-17677413Y-11444700D01*
X-17677413Y-11444700D01*
G37*
G36*
X-16722413Y-13098808D02*
X-15250169Y-12248808D01*
X-14700169Y-13201436D01*
X-16172413Y-14051436D01*
X-16722413Y-13098808D01*
X-16722413Y-13098808D01*
G37*
G36*
X-15772413Y-14744256D02*
X-14300169Y-13894256D01*
X-13750169Y-14846884D01*
X-15222413Y-15696884D01*
X-15772413Y-14744256D01*
X-15772413Y-14744256D01*
G37*
G36*
X-20532413Y-6499695D02*
X-19060169Y-5649695D01*
X-18510169Y-6602323D01*
X-19982413Y-7452323D01*
X-20532413Y-6499695D01*
X-20532413Y-6499695D01*
G37*
G36*
X-19582413Y-8145143D02*
X-18110169Y-7295143D01*
X-17560169Y-8247771D01*
X-19032413Y-9097771D01*
X-19582413Y-8145143D01*
X-19582413Y-8145143D01*
G37*
D14*
X2869899Y8747447D03*
X969899Y8747447D03*
X2869899Y5572446D03*
X969899Y5572446D03*
D15*
X6350000Y16063000D03*
X6350000Y14163000D03*
D14*
X329899Y20177446D03*
X-1570101Y20177446D03*
X-3480101Y20177446D03*
X-5380101Y20177446D03*
X4139899Y20177446D03*
X2239899Y20177446D03*
D10*
G36*
X6762058Y-7541127D02*
X5289814Y-6691127D01*
X5839814Y-5738499D01*
X7312058Y-6588499D01*
X6762058Y-7541127D01*
X6762058Y-7541127D01*
G37*
G36*
X7712058Y-5895679D02*
X6239814Y-5045679D01*
X6789814Y-4093051D01*
X8262058Y-4943051D01*
X7712058Y-5895679D01*
X7712058Y-5895679D01*
G37*
G36*
X4012428Y-5953627D02*
X2540184Y-5103627D01*
X3090184Y-4150999D01*
X4562428Y-5000999D01*
X4012428Y-5953627D01*
X4012428Y-5953627D01*
G37*
G36*
X4962428Y-4308179D02*
X3490184Y-3458179D01*
X4040184Y-2505551D01*
X5512428Y-3355551D01*
X4962428Y-4308179D01*
X4962428Y-4308179D01*
G37*
G36*
X12644162Y-12623023D02*
X11794162Y-14095267D01*
X10841534Y-13545267D01*
X11691534Y-12073023D01*
X12644162Y-12623023D01*
X12644162Y-12623023D01*
G37*
G36*
X10998714Y-11673023D02*
X10148714Y-13145267D01*
X9196086Y-12595267D01*
X10046086Y-11123023D01*
X10998714Y-11673023D01*
X10998714Y-11673023D01*
G37*
G36*
X17930729Y-11056422D02*
X16458485Y-10206422D01*
X17008485Y-9253794D01*
X18480729Y-10103794D01*
X17930729Y-11056422D01*
X17930729Y-11056422D01*
G37*
G36*
X18880729Y-9410974D02*
X17408485Y-8560974D01*
X17958485Y-7608346D01*
X19430729Y-8458346D01*
X18880729Y-9410974D01*
X18880729Y-9410974D01*
G37*
G36*
X19835729Y-7756865D02*
X18363485Y-6906865D01*
X18913485Y-5954237D01*
X20385729Y-6804237D01*
X19835729Y-7756865D01*
X19835729Y-7756865D01*
G37*
G36*
X20785729Y-6111417D02*
X19313485Y-5261417D01*
X19863485Y-4308789D01*
X21335729Y-5158789D01*
X20785729Y-6111417D01*
X20785729Y-6111417D01*
G37*
G36*
X16025729Y-14355979D02*
X14553485Y-13505979D01*
X15103485Y-12553351D01*
X16575729Y-13403351D01*
X16025729Y-14355979D01*
X16025729Y-14355979D01*
G37*
G36*
X16975729Y-12710531D02*
X15503485Y-11860531D01*
X16053485Y-10907903D01*
X17525729Y-11757903D01*
X16975729Y-12710531D01*
X16975729Y-12710531D01*
G37*
D11*
X-8128000Y20701000D03*
D10*
G36*
X-12327180Y4723552D02*
X-13712820Y3923552D01*
X-14512820Y5309192D01*
X-13127180Y6109192D01*
X-12327180Y4723552D01*
X-12327180Y4723552D01*
G37*
G36*
X-13427180Y6628808D02*
X-14812820Y5828808D01*
X-15612820Y7214448D01*
X-14227180Y8014448D01*
X-13427180Y6628808D01*
X-13427180Y6628808D01*
G37*
D16*
X11155500Y9144000D03*
X13355500Y9144000D03*
D10*
G36*
X2543180Y-12305552D02*
X3928820Y-13105552D01*
X3128820Y-14491192D01*
X1743180Y-13691192D01*
X2543180Y-12305552D01*
X2543180Y-12305552D01*
G37*
G36*
X1443180Y-14210808D02*
X2828820Y-15010808D01*
X2028820Y-16396448D01*
X643180Y-15596448D01*
X1443180Y-14210808D01*
X1443180Y-14210808D01*
G37*
G36*
X-9562878Y3824962D02*
X-11035122Y2974962D01*
X-11585122Y3927590D01*
X-10112878Y4777590D01*
X-9562878Y3824962D01*
X-9562878Y3824962D01*
G37*
G36*
X-10512878Y5470410D02*
X-11985122Y4620410D01*
X-12535122Y5573038D01*
X-11062878Y6423038D01*
X-10512878Y5470410D01*
X-10512878Y5470410D01*
G37*
D14*
X8892500Y7429500D03*
X10792500Y7429500D03*
D10*
G36*
X1728378Y-9832962D02*
X3200622Y-10682962D01*
X2650622Y-11635590D01*
X1178378Y-10785590D01*
X1728378Y-9832962D01*
X1728378Y-9832962D01*
G37*
G36*
X778378Y-11478410D02*
X2250622Y-12328410D01*
X1700622Y-13281038D01*
X228378Y-12431038D01*
X778378Y-11478410D01*
X778378Y-11478410D01*
G37*
G36*
X-11894115Y2038333D02*
X-8776423Y3838333D01*
X-8176423Y2799103D01*
X-11294115Y999103D01*
X-11894115Y2038333D01*
X-11894115Y2038333D01*
G37*
G36*
X-11094115Y652693D02*
X-7976423Y2452693D01*
X-7376423Y1413463D01*
X-10494115Y-386537D01*
X-11094115Y652693D01*
X-11094115Y652693D01*
G37*
D17*
X7164899Y7477447D03*
X5564899Y7477447D03*
D10*
G36*
X4629930Y-10594080D02*
X1512238Y-8794080D01*
X2112238Y-7754850D01*
X5229930Y-9554850D01*
X4629930Y-10594080D01*
X4629930Y-10594080D01*
G37*
G36*
X5429930Y-9208440D02*
X2312238Y-7408440D01*
X2912238Y-6369210D01*
X6029930Y-8169210D01*
X5429930Y-9208440D01*
X5429930Y-9208440D01*
G37*
G36*
X-6929211Y-6261133D02*
X-7579211Y-5135299D01*
X-6539981Y-4535299D01*
X-5889981Y-5661133D01*
X-6929211Y-6261133D01*
X-6929211Y-6261133D01*
G37*
G36*
X-5110557Y-5211133D02*
X-5760557Y-4085299D01*
X-4721327Y-3485299D01*
X-4071327Y-4611133D01*
X-5110557Y-5211133D01*
X-5110557Y-5211133D01*
G37*
D18*
X-1255101Y8527446D03*
X-1255101Y6427446D03*
D10*
G36*
X9017526Y-2694541D02*
X8367526Y-3820375D01*
X7328296Y-3220375D01*
X7978296Y-2094541D01*
X9017526Y-2694541D01*
X9017526Y-2694541D01*
G37*
G36*
X7198872Y-1644541D02*
X6548872Y-2770375D01*
X5509642Y-2170375D01*
X6159642Y-1044541D01*
X7198872Y-1644541D01*
X7198872Y-1644541D01*
G37*
M02*
