G04 #@! TF.FileFunction,Legend,Bot*
%FSLAX46Y46*%
G04 Gerber Fmt 4.6, Leading zero omitted, Abs format (unit mm)*
G04 Created by KiCad (PCBNEW 4.0.6) date 03/20/17 19:46:40*
%MOMM*%
%LPD*%
G01*
G04 APERTURE LIST*
%ADD10C,0.100000*%
%ADD11C,0.300000*%
%ADD12C,0.150000*%
%ADD13C,0.120000*%
%ADD14R,1.900000X1.000000*%
%ADD15R,1.700000X4.900000*%
%ADD16R,2.200000X4.300000*%
%ADD17R,1.000000X1.950000*%
%ADD18R,1.700000X1.100000*%
%ADD19R,1.100000X1.700000*%
%ADD20R,4.400000X4.400000*%
%ADD21R,1.600000X1.600000*%
G04 APERTURE END LIST*
D10*
D11*
X-10185543Y-13746800D02*
X-10114115Y-13675371D01*
X-9971258Y-13461086D01*
X-9899829Y-13318229D01*
X-9828400Y-13103943D01*
X-9756972Y-12746800D01*
X-9756972Y-12461086D01*
X-9828400Y-12103943D01*
X-9899829Y-11889657D01*
X-9971258Y-11746800D01*
X-10114115Y-11532514D01*
X-10185543Y-11461086D01*
X-10756972Y-12603943D02*
X-11899829Y-12603943D01*
X-11328400Y-13175371D02*
X-11328400Y-12032514D01*
X-12471258Y-13746800D02*
X-12542686Y-13675371D01*
X-12685543Y-13461086D01*
X-12756972Y-13318229D01*
X-12828401Y-13103943D01*
X-12899829Y-12746800D01*
X-12899829Y-12461086D01*
X-12828401Y-12103943D01*
X-12756972Y-11889657D01*
X-12685543Y-11746800D01*
X-12542686Y-11532514D01*
X-12471258Y-11461086D01*
X12471257Y-13746800D02*
X12542685Y-13675371D01*
X12685542Y-13461086D01*
X12756971Y-13318229D01*
X12828400Y-13103943D01*
X12899828Y-12746800D01*
X12899828Y-12461086D01*
X12828400Y-12103943D01*
X12756971Y-11889657D01*
X12685542Y-11746800D01*
X12542685Y-11532514D01*
X12471257Y-11461086D01*
X11899828Y-12603943D02*
X10756971Y-12603943D01*
X10185542Y-13746800D02*
X10114114Y-13675371D01*
X9971257Y-13461086D01*
X9899828Y-13318229D01*
X9828399Y-13103943D01*
X9756971Y-12746800D01*
X9756971Y-12461086D01*
X9828399Y-12103943D01*
X9899828Y-11889657D01*
X9971257Y-11746800D01*
X10114114Y-11532514D01*
X10185542Y-11461086D01*
D12*
X-2120264Y270247D02*
X-2120264Y295247D01*
X2029736Y270247D02*
X2029736Y385247D01*
X2029736Y9170247D02*
X2029736Y9055247D01*
X-2120264Y9170247D02*
X-2120264Y9055247D01*
X-2120264Y270247D02*
X2029736Y270247D01*
X-2120264Y9170247D02*
X2029736Y9170247D01*
X-2120264Y295247D02*
X-3495264Y295247D01*
D13*
X-6050000Y-12599000D02*
X6050000Y-12599000D01*
X-7500000Y-18099000D02*
X-7500000Y-16299000D01*
X-7500000Y-18099000D02*
X-5930000Y-18099000D01*
X-5930000Y-19599000D02*
X-5930000Y-18099000D01*
X-3100000Y-19599000D02*
X-1900000Y-19599000D01*
X7500000Y-18099000D02*
X7500000Y-16299000D01*
X5930000Y-18099000D02*
X7500000Y-18099000D01*
X5930000Y-19599000D02*
X5930000Y-18099000D01*
X-5930000Y-19599000D02*
X-4400000Y-19599000D01*
X-600000Y-19599000D02*
X600000Y-19599000D01*
X1900000Y-19599000D02*
X3100000Y-19599000D01*
X4400000Y-19599000D02*
X5930000Y-19599000D01*
D12*
X2575000Y13165000D02*
X2525000Y13165000D01*
X2575000Y17315000D02*
X2430000Y17315000D01*
X-2575000Y17315000D02*
X-2430000Y17315000D01*
X-2575000Y13165000D02*
X-2430000Y13165000D01*
X2575000Y13165000D02*
X2575000Y17315000D01*
X-2575000Y13165000D02*
X-2575000Y17315000D01*
X2525000Y13165000D02*
X2525000Y11765000D01*
D13*
X-4962000Y9052000D02*
X-4962000Y10252000D01*
X-6722000Y10252000D02*
X-6722000Y9052000D01*
X-5553000Y11693000D02*
X-4353000Y11693000D01*
X-4353000Y13453000D02*
X-5553000Y13453000D01*
X-13303000Y-15399000D02*
X-13303000Y-19399000D01*
X-9303000Y-19399000D02*
X-13303000Y-19399000D01*
X-9303000Y-15399000D02*
X-9303000Y-19399000D01*
X-9303000Y-15399000D02*
X-13303000Y-15399000D01*
X9303000Y-15399000D02*
X9303000Y-19399000D01*
X13303000Y-19399000D02*
X9303000Y-19399000D01*
X13303000Y-15399000D02*
X13303000Y-19399000D01*
X13303000Y-15399000D02*
X9303000Y-15399000D01*
X-3280000Y17083000D02*
X-3280000Y15683000D01*
X-3280000Y15683000D02*
X-6080000Y15683000D01*
X-3280000Y17083000D02*
X-6080000Y17083000D01*
X-8881000Y16030500D02*
X-8881000Y14830500D01*
X-7121000Y14830500D02*
X-7121000Y16030500D01*
D12*
X930926Y-1107134D02*
X930926Y-107134D01*
X-116693Y-1011896D02*
X-69074Y-1059515D01*
X73783Y-1107134D01*
X169021Y-1107134D01*
X311879Y-1059515D01*
X407117Y-964277D01*
X454736Y-869039D01*
X502355Y-678563D01*
X502355Y-535705D01*
X454736Y-345229D01*
X407117Y-249991D01*
X311879Y-154753D01*
X169021Y-107134D01*
X73783Y-107134D01*
X-69074Y-154753D01*
X-116693Y-202372D01*
X-1069074Y-1107134D02*
X-497645Y-1107134D01*
X-783359Y-1107134D02*
X-783359Y-107134D01*
X-688121Y-249991D01*
X-592883Y-345229D01*
X-497645Y-392848D01*
X333333Y-10120381D02*
X333333Y-10834667D01*
X380953Y-10977524D01*
X476191Y-11072762D01*
X619048Y-11120381D01*
X714286Y-11120381D01*
X-666667Y-11120381D02*
X-95238Y-11120381D01*
X-380952Y-11120381D02*
X-380952Y-10120381D01*
X-285714Y-10263238D01*
X-190476Y-10358476D01*
X-95238Y-10406095D01*
X4047619Y15335238D02*
X4000000Y15430476D01*
X3904762Y15525714D01*
X3761905Y15668571D01*
X3714286Y15763810D01*
X3714286Y15859048D01*
X3952381Y15811429D02*
X3904762Y15906667D01*
X3809524Y16001905D01*
X3619048Y16049524D01*
X3285714Y16049524D01*
X3095238Y16001905D01*
X3000000Y15906667D01*
X2952381Y15811429D01*
X2952381Y15620952D01*
X3000000Y15525714D01*
X3095238Y15430476D01*
X3285714Y15382857D01*
X3619048Y15382857D01*
X3809524Y15430476D01*
X3904762Y15525714D01*
X3952381Y15620952D01*
X3952381Y15811429D01*
X3952381Y14430476D02*
X3952381Y15001905D01*
X3952381Y14716191D02*
X2952381Y14716191D01*
X3095238Y14811429D01*
X3190476Y14906667D01*
X3238095Y15001905D01*
X-7039619Y9818666D02*
X-7515810Y10152000D01*
X-7039619Y10390095D02*
X-8039619Y10390095D01*
X-8039619Y10009142D01*
X-7992000Y9913904D01*
X-7944381Y9866285D01*
X-7849143Y9818666D01*
X-7706286Y9818666D01*
X-7611048Y9866285D01*
X-7563429Y9913904D01*
X-7515810Y10009142D01*
X-7515810Y10390095D01*
X-7039619Y8866285D02*
X-7039619Y9437714D01*
X-7039619Y9152000D02*
X-8039619Y9152000D01*
X-7896762Y9247238D01*
X-7801524Y9342476D01*
X-7753905Y9437714D01*
X-4786334Y13770619D02*
X-4453000Y14246810D01*
X-4214905Y13770619D02*
X-4214905Y14770619D01*
X-4595858Y14770619D01*
X-4691096Y14723000D01*
X-4738715Y14675381D01*
X-4786334Y14580143D01*
X-4786334Y14437286D01*
X-4738715Y14342048D01*
X-4691096Y14294429D01*
X-4595858Y14246810D01*
X-4214905Y14246810D01*
X-5167286Y14675381D02*
X-5214905Y14723000D01*
X-5310143Y14770619D01*
X-5548239Y14770619D01*
X-5643477Y14723000D01*
X-5691096Y14675381D01*
X-5738715Y14580143D01*
X-5738715Y14484905D01*
X-5691096Y14342048D01*
X-5119667Y13770619D01*
X-5738715Y13770619D01*
X-10995067Y-14057381D02*
X-10995067Y-14771667D01*
X-10947447Y-14914524D01*
X-10852209Y-15009762D01*
X-10709352Y-15057381D01*
X-10614114Y-15057381D01*
X-11899829Y-14390714D02*
X-11899829Y-15057381D01*
X-11661733Y-14009762D02*
X-11423638Y-14724048D01*
X-12042686Y-14724048D01*
X11610933Y-14057381D02*
X11610933Y-14771667D01*
X11658553Y-14914524D01*
X11753791Y-15009762D01*
X11896648Y-15057381D01*
X11991886Y-15057381D01*
X10658552Y-14057381D02*
X11134743Y-14057381D01*
X11182362Y-14533571D01*
X11134743Y-14485952D01*
X11039505Y-14438333D01*
X10801409Y-14438333D01*
X10706171Y-14485952D01*
X10658552Y-14533571D01*
X10610933Y-14628810D01*
X10610933Y-14866905D01*
X10658552Y-14962143D01*
X10706171Y-15009762D01*
X10801409Y-15057381D01*
X11039505Y-15057381D01*
X11134743Y-15009762D01*
X11182362Y-14962143D01*
X-4341905Y17380619D02*
X-4341905Y18380619D01*
X-4580000Y18380619D01*
X-4722858Y18333000D01*
X-4818096Y18237762D01*
X-4865715Y18142524D01*
X-4913334Y17952048D01*
X-4913334Y17809190D01*
X-4865715Y17618714D01*
X-4818096Y17523476D01*
X-4722858Y17428238D01*
X-4580000Y17380619D01*
X-4341905Y17380619D01*
X-5246667Y18380619D02*
X-5913334Y18380619D01*
X-5484762Y17380619D01*
X-9199619Y16009857D02*
X-9675810Y16343191D01*
X-9199619Y16581286D02*
X-10199619Y16581286D01*
X-10199619Y16200333D01*
X-10152000Y16105095D01*
X-10104381Y16057476D01*
X-10009143Y16009857D01*
X-9866286Y16009857D01*
X-9771048Y16057476D01*
X-9723429Y16105095D01*
X-9675810Y16200333D01*
X-9675810Y16581286D01*
X-10104381Y15628905D02*
X-10152000Y15581286D01*
X-10199619Y15486048D01*
X-10199619Y15247952D01*
X-10152000Y15152714D01*
X-10104381Y15105095D01*
X-10009143Y15057476D01*
X-9913905Y15057476D01*
X-9771048Y15105095D01*
X-9199619Y15676524D01*
X-9199619Y15057476D01*
X-10199619Y14724143D02*
X-10199619Y14057476D01*
X-9199619Y14486048D01*
%LPC*%
D14*
X-2745264Y910247D03*
X-2745264Y2180247D03*
X-2745264Y3450247D03*
X-2745264Y4720247D03*
X-2745264Y5990247D03*
X-2745264Y7260247D03*
X-2745264Y8530247D03*
X2654736Y8530247D03*
X2654736Y7260247D03*
X2654736Y5990247D03*
X2654736Y4720247D03*
X2654736Y3450247D03*
X2654736Y2180247D03*
X2654736Y910247D03*
D15*
X-3750000Y-21149000D03*
X-1250000Y-21149000D03*
X1250000Y-21149000D03*
X3750000Y-21149000D03*
D16*
X-6950000Y-14349000D03*
X6950000Y-14349000D03*
D17*
X1905000Y12540000D03*
X635000Y12540000D03*
X-635000Y12540000D03*
X-1905000Y12540000D03*
X-1905000Y17940000D03*
X-635000Y17940000D03*
X635000Y17940000D03*
X1905000Y17940000D03*
D18*
X-5842000Y10602000D03*
X-5842000Y8702000D03*
D19*
X-4003000Y12573000D03*
X-5903000Y12573000D03*
D20*
X-11303000Y-17399000D03*
X11303000Y-17399000D03*
D21*
X-6180000Y16383000D03*
X-3980000Y16383000D03*
D18*
X-8001000Y14480500D03*
X-8001000Y16380500D03*
M02*
