M48
;DRILL file {KiCad 4.0.6} date 03/20/17 23:06:53
;FORMAT={-:-/ absolute / metric / decimal}
FMAT,2
METRIC,TZ
T1C0.300
%
G90
G05
M71
T1
X-17.145Y-7.112
X-11.303Y-17.399
X-9.525Y22.098
X-9.525Y20.701
X-9.525Y19.304
X-8.128Y22.098
X-8.128Y20.701
X-8.128Y19.304
X-7.239Y9.525
X-6.858Y22.098
X-6.858Y20.701
X-6.858Y19.304
X-4.445Y7.239
X-3.683Y-7.874
X-2.159Y-5.334
X1.27Y-7.366
X6.858Y21.971
X6.858Y20.701
X6.858Y19.431
X8.128Y21.971
X8.128Y20.701
X8.128Y19.431
X9.398Y21.971
X9.398Y20.701
X9.398Y19.431
X10.16Y1.079
X11.303Y-17.399
X11.938Y0.826
T0
M30
