G04 #@! TF.FileFunction,Copper,L1,Top,Signal*
%FSLAX46Y46*%
G04 Gerber Fmt 4.6, Leading zero omitted, Abs format (unit mm)*
G04 Created by KiCad (PCBNEW 4.0.6) date 03/19/17 21:40:27*
%MOMM*%
%LPD*%
G01*
G04 APERTURE LIST*
%ADD10C,0.100000*%
%ADD11R,4.000000X4.000000*%
%ADD12R,0.900000X0.800000*%
%ADD13R,0.600000X1.550000*%
%ADD14R,0.800000X3.200000*%
%ADD15R,1.250000X1.000000*%
%ADD16R,0.700000X1.300000*%
%ADD17R,1.300000X0.700000*%
%ADD18R,1.200000X1.200000*%
%ADD19C,0.600000*%
%ADD20C,0.250000*%
%ADD21C,0.500000*%
G04 APERTURE END LIST*
D10*
D11*
X8128000Y20701000D03*
D10*
G36*
X-16088970Y-6745967D02*
X-16388970Y-6226351D01*
X-15046630Y-5451351D01*
X-14746630Y-5970967D01*
X-16088970Y-6745967D01*
X-16088970Y-6745967D01*
G37*
G36*
X-15453970Y-7845819D02*
X-15753970Y-7326203D01*
X-14411630Y-6551203D01*
X-14111630Y-7070819D01*
X-15453970Y-7845819D01*
X-15453970Y-7845819D01*
G37*
G36*
X-14818970Y-8945671D02*
X-15118970Y-8426055D01*
X-13776630Y-7651055D01*
X-13476630Y-8170671D01*
X-14818970Y-8945671D01*
X-14818970Y-8945671D01*
G37*
G36*
X-14183970Y-10045523D02*
X-14483970Y-9525907D01*
X-13141630Y-8750907D01*
X-12841630Y-9270523D01*
X-14183970Y-10045523D01*
X-14183970Y-10045523D01*
G37*
G36*
X-9507432Y-7345523D02*
X-9807432Y-6825907D01*
X-8465092Y-6050907D01*
X-8165092Y-6570523D01*
X-9507432Y-7345523D01*
X-9507432Y-7345523D01*
G37*
G36*
X-10142432Y-6245671D02*
X-10442432Y-5726055D01*
X-9100092Y-4951055D01*
X-8800092Y-5470671D01*
X-10142432Y-6245671D01*
X-10142432Y-6245671D01*
G37*
G36*
X-10777432Y-5145819D02*
X-11077432Y-4626203D01*
X-9735092Y-3851203D01*
X-9435092Y-4370819D01*
X-10777432Y-5145819D01*
X-10777432Y-5145819D01*
G37*
G36*
X-11412432Y-4045967D02*
X-11712432Y-3526351D01*
X-10370092Y-2751351D01*
X-10070092Y-3270967D01*
X-11412432Y-4045967D01*
X-11412432Y-4045967D01*
G37*
G36*
X14017284Y-10384706D02*
X13717284Y-10904322D01*
X12374944Y-10129322D01*
X12674944Y-9609706D01*
X14017284Y-10384706D01*
X14017284Y-10384706D01*
G37*
G36*
X14652284Y-9284854D02*
X14352284Y-9804470D01*
X13009944Y-9029470D01*
X13309944Y-8509854D01*
X14652284Y-9284854D01*
X14652284Y-9284854D01*
G37*
G36*
X15287284Y-8185002D02*
X14987284Y-8704618D01*
X13644944Y-7929618D01*
X13944944Y-7410002D01*
X15287284Y-8185002D01*
X15287284Y-8185002D01*
G37*
G36*
X15922284Y-7085150D02*
X15622284Y-7604766D01*
X14279944Y-6829766D01*
X14579944Y-6310150D01*
X15922284Y-7085150D01*
X15922284Y-7085150D01*
G37*
G36*
X11245746Y-4385150D02*
X10945746Y-4904766D01*
X9603406Y-4129766D01*
X9903406Y-3610150D01*
X11245746Y-4385150D01*
X11245746Y-4385150D01*
G37*
G36*
X10610746Y-5485002D02*
X10310746Y-6004618D01*
X8968406Y-5229618D01*
X9268406Y-4710002D01*
X10610746Y-5485002D01*
X10610746Y-5485002D01*
G37*
G36*
X9975746Y-6584854D02*
X9675746Y-7104470D01*
X8333406Y-6329470D01*
X8633406Y-5809854D01*
X9975746Y-6584854D01*
X9975746Y-6584854D01*
G37*
G36*
X9340746Y-7684706D02*
X9040746Y-8204322D01*
X7698406Y-7429322D01*
X7998406Y-6909706D01*
X9340746Y-7684706D01*
X9340746Y-7684706D01*
G37*
G36*
X8937284Y-19183524D02*
X8637284Y-19703140D01*
X7294944Y-18928140D01*
X7594944Y-18408524D01*
X8937284Y-19183524D01*
X8937284Y-19183524D01*
G37*
G36*
X9572284Y-18083672D02*
X9272284Y-18603288D01*
X7929944Y-17828288D01*
X8229944Y-17308672D01*
X9572284Y-18083672D01*
X9572284Y-18083672D01*
G37*
G36*
X10207284Y-16983820D02*
X9907284Y-17503436D01*
X8564944Y-16728436D01*
X8864944Y-16208820D01*
X10207284Y-16983820D01*
X10207284Y-16983820D01*
G37*
G36*
X10842284Y-15883968D02*
X10542284Y-16403584D01*
X9199944Y-15628584D01*
X9499944Y-15108968D01*
X10842284Y-15883968D01*
X10842284Y-15883968D01*
G37*
G36*
X6165746Y-13183968D02*
X5865746Y-13703584D01*
X4523406Y-12928584D01*
X4823406Y-12408968D01*
X6165746Y-13183968D01*
X6165746Y-13183968D01*
G37*
G36*
X5530746Y-14283820D02*
X5230746Y-14803436D01*
X3888406Y-14028436D01*
X4188406Y-13508820D01*
X5530746Y-14283820D01*
X5530746Y-14283820D01*
G37*
G36*
X4895746Y-15383672D02*
X4595746Y-15903288D01*
X3253406Y-15128288D01*
X3553406Y-14608672D01*
X4895746Y-15383672D01*
X4895746Y-15383672D01*
G37*
G36*
X4260746Y-16483524D02*
X3960746Y-17003140D01*
X2618406Y-16228140D01*
X2918406Y-15708524D01*
X4260746Y-16483524D01*
X4260746Y-16483524D01*
G37*
G36*
X-6856006Y-5987927D02*
X-7306006Y-5208505D01*
X-6613186Y-4808505D01*
X-6163186Y-5587927D01*
X-6856006Y-5987927D01*
X-6856006Y-5987927D01*
G37*
G36*
X-5037352Y-4937927D02*
X-5487352Y-4158505D01*
X-4794532Y-3758505D01*
X-4344532Y-4537927D01*
X-5037352Y-4937927D01*
X-5037352Y-4937927D01*
G37*
D12*
X-1255101Y8527446D03*
X-1255101Y6427446D03*
D10*
G36*
X8744321Y-2767747D02*
X8294321Y-3547169D01*
X7601501Y-3147169D01*
X8051501Y-2367747D01*
X8744321Y-2767747D01*
X8744321Y-2767747D01*
G37*
G36*
X6925667Y-1717747D02*
X6475667Y-2497169D01*
X5782847Y-2097169D01*
X6232847Y-1317747D01*
X6925667Y-1717747D01*
X6925667Y-1717747D01*
G37*
D13*
X2554900Y16527446D03*
X1284900Y16527446D03*
X14900Y16527446D03*
X-1255100Y16527446D03*
X-1255100Y11127446D03*
X14900Y11127446D03*
X1284900Y11127446D03*
X2554900Y11127446D03*
D10*
G36*
X-21486468Y2602776D02*
X-21786468Y3122392D01*
X-20444128Y3897392D01*
X-20144128Y3377776D01*
X-21486468Y2602776D01*
X-21486468Y2602776D01*
G37*
G36*
X-20851468Y1502924D02*
X-21151468Y2022540D01*
X-19809128Y2797540D01*
X-19509128Y2277924D01*
X-20851468Y1502924D01*
X-20851468Y1502924D01*
G37*
G36*
X-20216468Y403072D02*
X-20516468Y922688D01*
X-19174128Y1697688D01*
X-18874128Y1178072D01*
X-20216468Y403072D01*
X-20216468Y403072D01*
G37*
G36*
X-19581468Y-696780D02*
X-19881468Y-177164D01*
X-18539128Y597836D01*
X-18239128Y78220D01*
X-19581468Y-696780D01*
X-19581468Y-696780D01*
G37*
G36*
X-14904930Y2003220D02*
X-15204930Y2522836D01*
X-13862590Y3297836D01*
X-13562590Y2778220D01*
X-14904930Y2003220D01*
X-14904930Y2003220D01*
G37*
G36*
X-15539930Y3103072D02*
X-15839930Y3622688D01*
X-14497590Y4397688D01*
X-14197590Y3878072D01*
X-15539930Y3103072D01*
X-15539930Y3103072D01*
G37*
G36*
X-16174930Y4202924D02*
X-16474930Y4722540D01*
X-15132590Y5497540D01*
X-14832590Y4977924D01*
X-16174930Y4202924D01*
X-16174930Y4202924D01*
G37*
G36*
X-16809930Y5302776D02*
X-17109930Y5822392D01*
X-15767590Y6597392D01*
X-15467590Y6077776D01*
X-16809930Y5302776D01*
X-16809930Y5302776D01*
G37*
D13*
X13349899Y16527447D03*
X12079899Y16527447D03*
X10809899Y16527447D03*
X9539899Y16527447D03*
X9539899Y11127447D03*
X10809899Y11127447D03*
X12079899Y11127447D03*
X13349899Y11127447D03*
D10*
G36*
X-11620910Y1965128D02*
X-8849628Y3565128D01*
X-8449628Y2872308D01*
X-11220910Y1272308D01*
X-11620910Y1965128D01*
X-11620910Y1965128D01*
G37*
G36*
X-10820910Y579488D02*
X-8049628Y2179488D01*
X-7649628Y1486668D01*
X-10420910Y-113332D01*
X-10820910Y579488D01*
X-10820910Y579488D01*
G37*
D14*
X7164899Y7477447D03*
X5564899Y7477447D03*
D10*
G36*
X4556725Y-10320875D02*
X1785443Y-8720875D01*
X2185443Y-8028055D01*
X4956725Y-9628055D01*
X4556725Y-10320875D01*
X4556725Y-10320875D01*
G37*
G36*
X5356725Y-8935235D02*
X2585443Y-7335235D01*
X2985443Y-6642415D01*
X5756725Y-8242415D01*
X5356725Y-8935235D01*
X5356725Y-8935235D01*
G37*
G36*
X-7424011Y-10184113D02*
X-8049011Y-9101581D01*
X-7182985Y-8601581D01*
X-6557985Y-9684113D01*
X-7424011Y-10184113D01*
X-7424011Y-10184113D01*
G37*
G36*
X-5691961Y-9184113D02*
X-6316961Y-8101581D01*
X-5450935Y-7601581D01*
X-4825935Y-8684113D01*
X-5691961Y-9184113D01*
X-5691961Y-9184113D01*
G37*
G36*
X-14471290Y-1787868D02*
X-15096290Y-705336D01*
X-14230264Y-205336D01*
X-13605264Y-1287868D01*
X-14471290Y-1787868D01*
X-14471290Y-1787868D01*
G37*
G36*
X-12739240Y-787868D02*
X-13364240Y294664D01*
X-12498214Y794664D01*
X-11873214Y-287868D01*
X-12739240Y-787868D01*
X-12739240Y-787868D01*
G37*
D15*
X-4430101Y11017446D03*
X-4430101Y9017446D03*
X6350000Y12430000D03*
X6350000Y10430000D03*
D10*
G36*
X12662327Y-1161561D02*
X12037327Y-2244093D01*
X11171301Y-1744093D01*
X11796301Y-661561D01*
X12662327Y-1161561D01*
X12662327Y-1161561D01*
G37*
G36*
X10930277Y-161561D02*
X10305277Y-1244093D01*
X9439251Y-744093D01*
X10064251Y338439D01*
X10930277Y-161561D01*
X10930277Y-161561D01*
G37*
G36*
X9232105Y-10912879D02*
X8607105Y-11995411D01*
X7741079Y-11495411D01*
X8366079Y-10412879D01*
X9232105Y-10912879D01*
X9232105Y-10912879D01*
G37*
G36*
X7500055Y-9912879D02*
X6875055Y-10995411D01*
X6009029Y-10495411D01*
X6634029Y-9412879D01*
X7500055Y-9912879D01*
X7500055Y-9912879D01*
G37*
G36*
X-9725537Y-1957753D02*
X-8599703Y-1307753D01*
X-8249703Y-1913971D01*
X-9375537Y-2563971D01*
X-9725537Y-1957753D01*
X-9725537Y-1957753D01*
G37*
G36*
X-8775537Y-3603201D02*
X-7649703Y-2953201D01*
X-7299703Y-3559419D01*
X-8425537Y-4209419D01*
X-8775537Y-3603201D01*
X-8775537Y-3603201D01*
G37*
G36*
X-6975907Y-370252D02*
X-5850073Y279748D01*
X-5500073Y-326470D01*
X-6625907Y-976470D01*
X-6975907Y-370252D01*
X-6975907Y-370252D01*
G37*
G36*
X-6025907Y-2015700D02*
X-4900073Y-1365700D01*
X-4550073Y-1971918D01*
X-5675907Y-2621918D01*
X-6025907Y-2015700D01*
X-6025907Y-2015700D01*
G37*
G36*
X-17585142Y-3614519D02*
X-18235142Y-2488685D01*
X-17628924Y-2138685D01*
X-16978924Y-3264519D01*
X-17585142Y-3614519D01*
X-17585142Y-3614519D01*
G37*
G36*
X-15939694Y-2664519D02*
X-16589694Y-1538685D01*
X-15983476Y-1188685D01*
X-15333476Y-2314519D01*
X-15939694Y-2664519D01*
X-15939694Y-2664519D01*
G37*
G36*
X-18354208Y-9872457D02*
X-17228374Y-9222457D01*
X-16878374Y-9828675D01*
X-18004208Y-10478675D01*
X-18354208Y-9872457D01*
X-18354208Y-9872457D01*
G37*
G36*
X-17404208Y-11517905D02*
X-16278374Y-10867905D01*
X-15928374Y-11474123D01*
X-17054208Y-12124123D01*
X-17404208Y-11517905D01*
X-17404208Y-11517905D01*
G37*
G36*
X-16449208Y-13172013D02*
X-15323374Y-12522013D01*
X-14973374Y-13128231D01*
X-16099208Y-13778231D01*
X-16449208Y-13172013D01*
X-16449208Y-13172013D01*
G37*
G36*
X-15499208Y-14817461D02*
X-14373374Y-14167461D01*
X-14023374Y-14773679D01*
X-15149208Y-15423679D01*
X-15499208Y-14817461D01*
X-15499208Y-14817461D01*
G37*
G36*
X-20259208Y-6572900D02*
X-19133374Y-5922900D01*
X-18783374Y-6529118D01*
X-19909208Y-7179118D01*
X-20259208Y-6572900D01*
X-20259208Y-6572900D01*
G37*
G36*
X-19309208Y-8218348D02*
X-18183374Y-7568348D01*
X-17833374Y-8174566D01*
X-18959208Y-8824566D01*
X-19309208Y-8218348D01*
X-19309208Y-8218348D01*
G37*
D16*
X2869899Y8747447D03*
X969899Y8747447D03*
X2869899Y5572446D03*
X969899Y5572446D03*
D17*
X6350000Y16063000D03*
X6350000Y14163000D03*
D16*
X329899Y20177446D03*
X-1570101Y20177446D03*
X-3480101Y20177446D03*
X-5380101Y20177446D03*
X4139899Y20177446D03*
X2239899Y20177446D03*
D10*
G36*
X6688853Y-7267922D02*
X5563019Y-6617922D01*
X5913019Y-6011704D01*
X7038853Y-6661704D01*
X6688853Y-7267922D01*
X6688853Y-7267922D01*
G37*
G36*
X7638853Y-5622474D02*
X6513019Y-4972474D01*
X6863019Y-4366256D01*
X7988853Y-5016256D01*
X7638853Y-5622474D01*
X7638853Y-5622474D01*
G37*
G36*
X3939223Y-5680422D02*
X2813389Y-5030422D01*
X3163389Y-4424204D01*
X4289223Y-5074204D01*
X3939223Y-5680422D01*
X3939223Y-5680422D01*
G37*
G36*
X4889223Y-4034974D02*
X3763389Y-3384974D01*
X4113389Y-2778756D01*
X5239223Y-3428756D01*
X4889223Y-4034974D01*
X4889223Y-4034974D01*
G37*
G36*
X12370957Y-12696228D02*
X11720957Y-13822062D01*
X11114739Y-13472062D01*
X11764739Y-12346228D01*
X12370957Y-12696228D01*
X12370957Y-12696228D01*
G37*
G36*
X10725509Y-11746228D02*
X10075509Y-12872062D01*
X9469291Y-12522062D01*
X10119291Y-11396228D01*
X10725509Y-11746228D01*
X10725509Y-11746228D01*
G37*
G36*
X17857524Y-10783217D02*
X16731690Y-10133217D01*
X17081690Y-9526999D01*
X18207524Y-10176999D01*
X17857524Y-10783217D01*
X17857524Y-10783217D01*
G37*
G36*
X18807524Y-9137769D02*
X17681690Y-8487769D01*
X18031690Y-7881551D01*
X19157524Y-8531551D01*
X18807524Y-9137769D01*
X18807524Y-9137769D01*
G37*
G36*
X19762524Y-7483660D02*
X18636690Y-6833660D01*
X18986690Y-6227442D01*
X20112524Y-6877442D01*
X19762524Y-7483660D01*
X19762524Y-7483660D01*
G37*
G36*
X20712524Y-5838212D02*
X19586690Y-5188212D01*
X19936690Y-4581994D01*
X21062524Y-5231994D01*
X20712524Y-5838212D01*
X20712524Y-5838212D01*
G37*
G36*
X15952524Y-14082774D02*
X14826690Y-13432774D01*
X15176690Y-12826556D01*
X16302524Y-13476556D01*
X15952524Y-14082774D01*
X15952524Y-14082774D01*
G37*
G36*
X16902524Y-12437326D02*
X15776690Y-11787326D01*
X16126690Y-11181108D01*
X17252524Y-11831108D01*
X16902524Y-12437326D01*
X16902524Y-12437326D01*
G37*
D11*
X-8128000Y20701000D03*
D10*
G36*
X-12600385Y4796757D02*
X-13639615Y4196757D01*
X-14239615Y5235987D01*
X-13200385Y5835987D01*
X-12600385Y4796757D01*
X-12600385Y4796757D01*
G37*
G36*
X-13700385Y6702013D02*
X-14739615Y6102013D01*
X-15339615Y7141243D01*
X-14300385Y7741243D01*
X-13700385Y6702013D01*
X-13700385Y6702013D01*
G37*
D18*
X11155500Y9144000D03*
X13355500Y9144000D03*
D10*
G36*
X2616385Y-12578757D02*
X3655615Y-13178757D01*
X3055615Y-14217987D01*
X2016385Y-13617987D01*
X2616385Y-12578757D01*
X2616385Y-12578757D01*
G37*
G36*
X1516385Y-14484013D02*
X2555615Y-15084013D01*
X1955615Y-16123243D01*
X916385Y-15523243D01*
X1516385Y-14484013D01*
X1516385Y-14484013D01*
G37*
G36*
X-9836083Y3898167D02*
X-10961917Y3248167D01*
X-11311917Y3854385D01*
X-10186083Y4504385D01*
X-9836083Y3898167D01*
X-9836083Y3898167D01*
G37*
G36*
X-10786083Y5543615D02*
X-11911917Y4893615D01*
X-12261917Y5499833D01*
X-11136083Y6149833D01*
X-10786083Y5543615D01*
X-10786083Y5543615D01*
G37*
D16*
X8892500Y7429500D03*
X10792500Y7429500D03*
D10*
G36*
X1801583Y-10106167D02*
X2927417Y-10756167D01*
X2577417Y-11362385D01*
X1451583Y-10712385D01*
X1801583Y-10106167D01*
X1801583Y-10106167D01*
G37*
G36*
X851583Y-11751615D02*
X1977417Y-12401615D01*
X1627417Y-13007833D01*
X501583Y-12357833D01*
X851583Y-11751615D01*
X851583Y-11751615D01*
G37*
D19*
X-2159000Y-5334000D03*
X-3683000Y-7874000D03*
X-7239000Y9525000D03*
X-4445000Y7239000D03*
X11938000Y825500D03*
X10160000Y1079500D03*
X-6858000Y19304000D03*
X-8128000Y19304000D03*
X-9525000Y19304000D03*
X-9525000Y20701000D03*
X-9525000Y22098000D03*
X-8128000Y22098000D03*
X-6858000Y22098000D03*
X-6858000Y20701000D03*
X-8128000Y20701000D03*
X-11303000Y-17399000D03*
X11303000Y-17399000D03*
X-20066000Y-5588000D03*
X1270000Y-7366000D03*
X6858000Y21971000D03*
X6858000Y20701000D03*
X6858000Y19431000D03*
X8128000Y19431000D03*
X9398000Y19431000D03*
X9398000Y21971000D03*
X8128000Y21971000D03*
X9398000Y20701000D03*
X8128000Y20701000D03*
D20*
X-7303498Y-9392847D02*
X-6355153Y-9392847D01*
X-6355153Y-9392847D02*
X-6096000Y-9652000D01*
X-6096000Y-9652000D02*
X-4191000Y-9652000D01*
X-4191000Y-9652000D02*
X-2667000Y-8128000D01*
X-2667000Y-8128000D02*
X-2667000Y-5842000D01*
X-2667000Y-5842000D02*
X-2159000Y-5334000D01*
X-9621261Y-5598363D02*
X-8986261Y-6698216D01*
X-8986261Y-6698216D02*
X-8835999Y-6738479D01*
X-8835999Y-6738479D02*
X-7303498Y-9392847D01*
X-5571448Y-8392847D02*
X-4201847Y-8392847D01*
X-4201847Y-8392847D02*
X-3683000Y-7874000D01*
X-6734595Y-5398216D02*
X-6146095Y-6417528D01*
X-6325447Y-7086881D02*
X-5571448Y-8392848D01*
X-6146095Y-6417528D02*
X-6325447Y-7086881D01*
X-8037621Y-3581310D02*
X-7560121Y-4408362D01*
X-7259595Y-4488889D02*
X-6734595Y-5398216D01*
X-7560121Y-4408362D02*
X-7259595Y-4488889D01*
X-15961586Y-1926602D02*
X-14350776Y-996603D01*
X-14297799Y-8298364D02*
X-12839412Y-7456365D01*
X-12102726Y-890341D02*
X-12618728Y3398D01*
X-12282811Y-1562426D02*
X-12102726Y-890341D01*
X-13162692Y-2070424D02*
X-12282811Y-1562426D01*
X-13906456Y-4846189D02*
X-13162692Y-2070424D01*
X-12699956Y-6935908D02*
X-13906456Y-4846189D01*
X-12839412Y-7456365D02*
X-12699956Y-6935908D01*
X-18571291Y-8196457D02*
X-17616291Y-9850565D01*
X-17616291Y-9850565D02*
X-17592134Y-9760408D01*
X-17592134Y-9760408D02*
X-16329469Y-9031408D01*
X-16329469Y-9031408D02*
X-15809013Y-9170862D01*
X-15809013Y-9170862D02*
X-14297799Y-8298364D01*
X-4430101Y11017446D02*
X-5746554Y11017446D01*
X-5746554Y11017446D02*
X-7239000Y9525000D01*
X14899Y11127446D02*
X-1255101Y11127446D01*
X-1255101Y11127446D02*
X-1365102Y11017446D01*
X-1365102Y11017446D02*
X-4430100Y11017447D01*
X969899Y8747447D02*
X141899Y8747446D01*
X141899Y8747446D02*
X-78101Y8527446D01*
X-78101Y8527446D02*
X-1255101Y8527446D01*
X-4430101Y9017446D02*
X-4445000Y7239000D01*
X-1255101Y8527446D02*
X-2432101Y8527446D01*
X-2922101Y9017447D02*
X-4430101Y9017447D01*
X-2432101Y8527446D02*
X-2922101Y9017447D01*
X6350000Y12430000D02*
X6350000Y14163000D01*
X14898Y16527446D02*
X14899Y15224446D01*
X5207000Y10414000D02*
X6350000Y10430000D01*
X4699000Y10922000D02*
X5207000Y10414000D01*
X4713899Y12430446D02*
X4699000Y10922000D01*
X2681899Y14462447D02*
X4713899Y12430446D01*
X776899Y14462446D02*
X2681899Y14462447D01*
X14899Y15224446D02*
X776899Y14462446D01*
X14898Y16527446D02*
X14898Y18399446D01*
X395899Y18780447D02*
X395898Y20111447D01*
X14898Y18399446D02*
X395899Y18780447D01*
X395898Y20111447D02*
X461899Y20177446D01*
X461899Y20177446D02*
X2239899Y20177446D01*
X11916814Y-1452827D02*
X11938000Y825500D01*
X9789577Y-5357310D02*
X10424577Y-4257458D01*
X10424577Y-4257458D02*
X10384314Y-4107195D01*
X10384314Y-4107195D02*
X11916814Y-1452827D01*
X10184764Y-452827D02*
X10160000Y1079500D01*
X8172911Y-2957458D02*
X8761411Y-1938146D01*
X9430763Y-1758794D02*
X10184763Y-452827D01*
X8761411Y-1938146D02*
X9430763Y-1758794D01*
X7250936Y-4994365D02*
X7664936Y-4277295D01*
X7584411Y-3976770D02*
X8172911Y-2957458D01*
X7664936Y-4277295D02*
X7584411Y-3976770D01*
X10097400Y-12134145D02*
X8486592Y-11204145D01*
X14466114Y-8057310D02*
X13227698Y-7342310D01*
X7334042Y-9200422D02*
X6754542Y-10204145D01*
X7832641Y-9066823D02*
X7334042Y-9200422D01*
X8822508Y-9638323D02*
X7832641Y-9066823D01*
X11424786Y-8941044D02*
X8822508Y-9638323D01*
X12186786Y-7621222D02*
X11424786Y-8941044D01*
X13227698Y-7342310D02*
X12186786Y-7621222D01*
X16514607Y-11809217D02*
X17469607Y-10155108D01*
X17469607Y-10155108D02*
X17379449Y-10179266D01*
X17379449Y-10179266D02*
X16336754Y-9577266D01*
X16336754Y-9577266D02*
X16197299Y-9056810D01*
X16197299Y-9056810D02*
X14466114Y-8057310D01*
X-5287991Y-1993810D02*
X-5191490Y-2160952D01*
X-5191490Y-2160952D02*
X-5504441Y-3328904D01*
X-5504441Y-3328904D02*
X-4915942Y-4348216D01*
X969899Y5572446D02*
X-400101Y5572446D01*
X-400101Y5572446D02*
X-1255101Y6427447D01*
X4501306Y-3406865D02*
X5186306Y-2220410D01*
X5186306Y-2220410D02*
X6354257Y-1907458D01*
D21*
X-10574000Y3876276D02*
X-9652000Y4445000D01*
X-8128000Y4191000D02*
X-7002655Y2322077D01*
X-9652000Y4445000D02*
X-8128000Y4191000D01*
X-10084754Y-12095571D02*
X-5310496Y-13374830D01*
X-1242362Y-5191045D02*
X-5319712Y1871133D01*
X-1192212Y-5277907D02*
X-1242362Y-5191045D01*
X-5319712Y1871133D02*
X-7002655Y2322077D01*
X-7002655Y2322077D02*
X-9235269Y1033077D01*
X-3005135Y-12043830D02*
X-1192212Y-5277907D01*
X-5310496Y-13374830D02*
X-3005135Y-12043830D01*
X-10256262Y-4498511D02*
X-11384693Y-5150011D01*
X-10141912Y-12128572D02*
X-10084754Y-12095571D01*
X-12267912Y-8446232D02*
X-10141912Y-12128572D01*
X-11384693Y-5150011D02*
X-12267912Y-8446232D01*
X-14761291Y-14795570D02*
X-11553722Y-12959749D01*
X-11553722Y-12959749D02*
X-10084754Y-12095571D01*
X-14761291Y-14795570D02*
X-14761291Y-15845709D01*
X-13208000Y-17399000D02*
X-11303000Y-17399000D01*
X-14761291Y-15845709D02*
X-13208000Y-17399000D01*
X11239827Y-17462173D02*
X11197813Y-17462173D01*
X11303000Y-17399000D02*
X11239827Y-17462173D01*
X15564607Y-13454665D02*
X14024813Y-12565665D01*
X14024813Y-12565665D02*
X13991813Y-12622823D01*
X8116114Y-19055833D02*
X8751114Y-17955981D01*
X8751114Y-17955981D02*
X9386114Y-16856128D01*
X9386114Y-16856128D02*
X10677358Y-17601628D01*
X10677358Y-17601628D02*
X11197813Y-17462173D01*
X11197813Y-17462173D02*
X13991813Y-12622823D01*
X13991813Y-12622823D02*
X15198313Y-10533103D01*
X15198313Y-10533103D02*
X15012373Y-9839163D01*
X15012373Y-9839163D02*
X13831114Y-9157163D01*
D20*
X15474449Y-13478823D02*
X15564607Y-13454665D01*
X-17607033Y-2876602D02*
X-18402031Y-1499622D01*
X-18345299Y-1287888D02*
X-19060299Y-49472D01*
X-18402031Y-1499622D02*
X-18345299Y-1287888D01*
X-15567799Y-6098659D02*
X-16473299Y-4530287D01*
X-16685032Y-4473553D02*
X-17607033Y-2876602D01*
X-16473299Y-4530287D02*
X-16685032Y-4473553D01*
X-17568785Y-2886852D02*
X-17556704Y-2841773D01*
D21*
X8892500Y7429500D02*
X8890000Y5778500D01*
X7620000Y5016500D02*
X5554953Y5016500D01*
X8890000Y5778500D02*
X7620000Y5016500D01*
X-19521291Y-6132709D02*
X-19521291Y-6551009D01*
X-20066000Y-5588000D02*
X-19521291Y-6132709D01*
X-8621101Y8620447D02*
X-20949459Y8137118D01*
X-20949459Y8137118D02*
X-20965298Y3250084D01*
X-19521291Y-6551009D02*
X-17981498Y-5662009D01*
X-17981498Y-5662009D02*
X-17950998Y-5714836D01*
X-14932799Y-7198511D02*
X-16114058Y-7880512D01*
X-20876558Y368380D02*
X-19695299Y1050381D01*
X-21062498Y-325560D02*
X-20876558Y368380D01*
X-16807999Y-7694570D02*
X-17208009Y-7001732D01*
X-17208009Y-7001732D02*
X-17950998Y-5714836D01*
X-17950998Y-5714836D02*
X-21062498Y-325560D01*
X-16114058Y-7880512D02*
X-16807999Y-7694570D01*
X-19695299Y1050381D02*
X-20330299Y2150233D01*
X-20330299Y2150233D02*
X-20965299Y3250085D01*
X1284899Y11127446D02*
X1284899Y12430446D01*
X-1128102Y14843446D02*
X-5380102Y14843446D01*
X1284899Y12430446D02*
X-1128102Y14843446D01*
X-5380101Y20177447D02*
X-5380102Y14843446D01*
X-5380102Y14843446D02*
X-5380101Y14782447D01*
X-8621101Y8620447D02*
X-3668101Y3667447D01*
X-8621101Y11541447D02*
X-8621101Y8620447D01*
X-5380101Y14782447D02*
X-8621101Y11541447D01*
X-3668101Y3667447D02*
X4205899Y3667447D01*
X4205899Y3667447D02*
X5554953Y5016500D01*
X5554953Y5016500D02*
X5564899Y5026446D01*
X5564899Y5026446D02*
X5564898Y7477446D01*
D20*
X-15711292Y-13150123D02*
X-16666291Y-11496014D01*
X-16666291Y-11496014D02*
X-16576134Y-11520172D01*
X-16576134Y-11520172D02*
X-15203483Y-10727671D01*
X-15203483Y-10727671D02*
X-15064028Y-10207217D01*
X-15064028Y-10207217D02*
X-13662799Y-9398216D01*
X-8987620Y-1935862D02*
X-6237990Y-348361D01*
X-10891261Y-3398658D02*
X-10039958Y-2907158D01*
X-9924660Y-2476860D02*
X-8987620Y-1935862D01*
X-10039958Y-2907158D02*
X-9924660Y-2476860D01*
X-9009948Y-2019188D02*
X-8987620Y-1935862D01*
X2554900Y16527446D02*
X4046554Y16527446D01*
X4511000Y16063000D02*
X6350000Y16063000D01*
X4046554Y16527446D02*
X4511000Y16063000D01*
X9539899Y16527447D02*
X8399447Y16527447D01*
X7935000Y16063000D02*
X6350000Y16063000D01*
X8399447Y16527447D02*
X7935000Y16063000D01*
D21*
X1270000Y-7366000D02*
X1852711Y-6450312D01*
X2189500Y-10734276D02*
X952500Y-10033000D01*
X952500Y-7874000D02*
X1270000Y-7366000D01*
X952500Y-10033000D02*
X952500Y-7874000D01*
X4139899Y18415000D02*
X4139899Y17958101D01*
X10809899Y17384101D02*
X10809899Y16527447D01*
X10287000Y17907000D02*
X10809899Y17384101D01*
X4191000Y17907000D02*
X10287000Y17907000D01*
X4139899Y17958101D02*
X4191000Y17907000D01*
X13349899Y16527447D02*
X18078936Y13760282D01*
X18078936Y13760282D02*
X12173436Y3531656D01*
X9154577Y-6457163D02*
X10612964Y-7299163D01*
X15705227Y-2543103D02*
X15652400Y-2512603D01*
X13388727Y-6555399D02*
X15705227Y-2543103D01*
X10612964Y-7299163D02*
X13388727Y-6555399D01*
X20324607Y-5210103D02*
X15652400Y-2512603D01*
X12173436Y3531656D02*
X5234027Y1672247D01*
X1828485Y-6436325D02*
X1852711Y-6450312D01*
X1424027Y-4926867D02*
X1828485Y-6436325D01*
X5234027Y1672247D02*
X1424027Y-4926867D01*
X14373141Y2261656D02*
X12173436Y3531656D01*
X15652400Y-2512603D02*
X14373141Y2261656D01*
X4139899Y20177446D02*
X4139899Y18415000D01*
X4139899Y18415000D02*
X4139899Y18399447D01*
X4139899Y18399447D02*
X4078899Y18399446D01*
X1284899Y16527446D02*
X1284899Y18018446D01*
X1665899Y18399447D02*
X4078899Y18399446D01*
X1284899Y18018446D02*
X1665899Y18399447D01*
X10809899Y16527446D02*
X12079899Y16527446D01*
X12079899Y16527446D02*
X13349899Y16527446D01*
X1852711Y-6450312D02*
X1883355Y-6468004D01*
X1883355Y-6468004D02*
X1903485Y-6479626D01*
X1903485Y-6479626D02*
X4171084Y-7788825D01*
D20*
X-3480101Y20177446D02*
X-1570101Y20177446D01*
X-1570101Y20177446D02*
X-1636102Y20111446D01*
X-1636102Y20111446D02*
X-1636101Y18653446D01*
X-1636101Y18653446D02*
X-1255101Y18272447D01*
X-1255101Y18272447D02*
X-1255101Y16527446D01*
X2869899Y8747447D02*
X2869899Y5572446D01*
X2554899Y11127446D02*
X2554899Y10144446D01*
X2869899Y9829446D02*
X2869899Y8747447D01*
X2554899Y10144446D02*
X2869899Y9829446D01*
X11742848Y-13084145D02*
X10947848Y-14461126D01*
X10736114Y-14517860D02*
X10021114Y-15756276D01*
X10947848Y-14461126D02*
X10736114Y-14517860D01*
X13196114Y-10257015D02*
X12417614Y-11605416D01*
X12474348Y-11817150D02*
X11742848Y-13084145D01*
X12417614Y-11605416D02*
X12474348Y-11817150D01*
X10059363Y-15746027D02*
X10021114Y-15756276D01*
X11732599Y-13045897D02*
X11742848Y-13084145D01*
X19374607Y-6855551D02*
X18419607Y-8509660D01*
X18419607Y-8509660D02*
X18395449Y-8419502D01*
X18395449Y-8419502D02*
X17352754Y-7817502D01*
X17352754Y-7817502D02*
X16832299Y-7956958D01*
X16832299Y-7956958D02*
X15101114Y-6957458D01*
X18336279Y-8531988D02*
X18419607Y-8509660D01*
X19284449Y-6879709D02*
X19374607Y-6855551D01*
X6300936Y-6639813D02*
X3551306Y-5052313D01*
X8519577Y-7557015D02*
X7668274Y-7065515D01*
X7237976Y-7180813D02*
X6300936Y-6639813D01*
X7668274Y-7065515D02*
X7237976Y-7180813D01*
X-13420000Y5016372D02*
X-12573000Y4953000D01*
X-12573000Y4953000D02*
X-11524000Y5521724D01*
D21*
X-14383760Y2650528D02*
X-13716000Y1524000D01*
X-11811000Y1397000D02*
X-10035269Y2418718D01*
X-13716000Y1524000D02*
X-11811000Y1397000D01*
X-16288760Y5950084D02*
X-14520000Y6921628D01*
X-16288761Y5950085D02*
X-15653761Y4850234D01*
X-15653761Y4850234D02*
X-15018762Y3750381D01*
X-15018762Y3750381D02*
X-14383761Y2650529D01*
D20*
X11155500Y9144000D02*
X11176000Y8445500D01*
X10795000Y8191500D02*
X10792500Y7429500D01*
X11176000Y8445500D02*
X10795000Y8191500D01*
D21*
X13349899Y11127447D02*
X13355500Y9144000D01*
X9539899Y11127447D02*
X8890000Y11112500D01*
X7175500Y9334500D02*
X7164899Y7477447D01*
X8890000Y11112500D02*
X7175500Y9334500D01*
X13349899Y11127446D02*
X12079899Y11127446D01*
X12079899Y11127446D02*
X10809899Y11127446D01*
X10809899Y11127446D02*
X9539899Y11127446D01*
D20*
X2836000Y-13398372D02*
X1239500Y-12379724D01*
D21*
X3439576Y-16355832D02*
X1736000Y-15303628D01*
X4273303Y-12437776D02*
X3403993Y-9193466D01*
X3403993Y-9193466D02*
X3371084Y-9174466D01*
X3439577Y-16355833D02*
X4074577Y-15255981D01*
X4074577Y-15255981D02*
X4709577Y-14156128D01*
X4709577Y-14156128D02*
X5344577Y-13056276D01*
X5344577Y-13056276D02*
X4273303Y-12437776D01*
M02*
